M48
; DRILL file {KiCad 6.0.8-f2edbf62ab~116~ubuntu22.04.1} date jeu. 13 oct. 2022 12:47:29
; FORMAT={-:-/ absolute / metric / decimal}
; #@! TF.CreationDate,2022-10-13T12:47:29+02:00
; #@! TF.GenerationSoftware,Kicad,Pcbnew,6.0.8-f2edbf62ab~116~ubuntu22.04.1
; #@! TF.FileFunction,Plated,1,2,PTH
FMAT,2
METRIC
; #@! TA.AperFunction,Plated,PTH,ViaDrill
T1C0.400
; #@! TA.AperFunction,Plated,PTH,ComponentDrill
T2C0.800
; #@! TA.AperFunction,Plated,PTH,ComponentDrill
T3C0.900
; #@! TA.AperFunction,Plated,PTH,ComponentDrill
T4C1.000
; #@! TA.AperFunction,Plated,PTH,ComponentDrill
T5C2.300
%
G90
G05
T1
X171.45Y-76.2
X171.45Y-93.345
X173.355Y-72.39
X173.99Y-69.215
X173.99Y-74.295
X177.8Y-67.31
X178.117Y-85.725
X178.435Y-76.2
X180.975Y-88.9
X181.292Y-79.375
X181.292Y-80.264
X181.61Y-81.915
X181.61Y-93.98
X181.864Y-72.962
X182.245Y-94.615
X182.308Y-77.533
X182.562Y-74.295
X182.725Y-79.375
X182.725Y-83.375
X182.725Y-85.725
X182.88Y-90.17
X183.324Y-78.105
X183.515Y-94.615
X184.023Y-78.74
X184.785Y-89.535
X185.42Y-81.915
X185.801Y-78.105
X186.079Y-94.639
X186.436Y-78.74
X187.325Y-89.535
X187.325Y-94.615
X187.706Y-86.233
X188.168Y-89.568
X188.595Y-78.74
X188.595Y-81.28
X188.595Y-94.615
X189.103Y-89.535
X189.23Y-78.105
X189.674Y-81.915
X189.674Y-86.36
X189.805Y-94.615
X189.865Y-74.295
X189.865Y-77.47
X190.5Y-86.36
X191.135Y-94.615
X192.405Y-79.375
X194.945Y-78.74
X194.945Y-80.01
X195.245Y-76.197
X196.215Y-89.535
T2
X172.72Y-78.74
X172.72Y-83.62
X194.215Y-93.0
X194.215Y-97.5
X196.215Y-93.0
X196.215Y-97.5
X198.215Y-93.0
X198.215Y-97.5
T3
X175.895Y-89.535
X175.895Y-92.075
T4
X167.64Y-68.255
X167.64Y-70.755
X167.64Y-72.755
X167.64Y-75.255
X167.64Y-86.67
X167.64Y-89.17
X167.64Y-91.17
X167.64Y-93.67
X170.815Y-64.135
X173.355Y-64.135
X175.895Y-64.135
X178.435Y-64.135
X180.975Y-64.135
X183.515Y-64.135
X186.055Y-64.135
T5
X166.19Y-65.185
X166.19Y-78.325
X166.19Y-83.6
X166.19Y-96.74
T4
X189.61Y-66.77G85X189.61Y-68.77
G05
X195.31Y-64.77G85X193.31Y-64.77
G05
X195.31Y-70.77G85X193.31Y-70.77
G05
T0
M30
