G04 #@! TF.GenerationSoftware,KiCad,Pcbnew,6.0.8-f2edbf62ab~116~ubuntu22.04.1*
G04 #@! TF.CreationDate,2022-10-13T12:47:22+02:00*
G04 #@! TF.ProjectId,Dual USB Controller adapter CPC,4475616c-2055-4534-9220-436f6e74726f,0.2*
G04 #@! TF.SameCoordinates,Original*
G04 #@! TF.FileFunction,Copper,L1,Top*
G04 #@! TF.FilePolarity,Positive*
%FSLAX46Y46*%
G04 Gerber Fmt 4.6, Leading zero omitted, Abs format (unit mm)*
G04 Created by KiCad (PCBNEW 6.0.8-f2edbf62ab~116~ubuntu22.04.1) date 2022-10-13 12:47:22*
%MOMM*%
%LPD*%
G01*
G04 APERTURE LIST*
G04 Aperture macros list*
%AMRoundRect*
0 Rectangle with rounded corners*
0 $1 Rounding radius*
0 $2 $3 $4 $5 $6 $7 $8 $9 X,Y pos of 4 corners*
0 Add a 4 corners polygon primitive as box body*
4,1,4,$2,$3,$4,$5,$6,$7,$8,$9,$2,$3,0*
0 Add four circle primitives for the rounded corners*
1,1,$1+$1,$2,$3*
1,1,$1+$1,$4,$5*
1,1,$1+$1,$6,$7*
1,1,$1+$1,$8,$9*
0 Add four rect primitives between the rounded corners*
20,1,$1+$1,$2,$3,$4,$5,0*
20,1,$1+$1,$4,$5,$6,$7,0*
20,1,$1+$1,$6,$7,$8,$9,0*
20,1,$1+$1,$8,$9,$2,$3,0*%
%AMRotRect*
0 Rectangle, with rotation*
0 The origin of the aperture is its center*
0 $1 length*
0 $2 width*
0 $3 Rotation angle, in degrees counterclockwise*
0 Add horizontal line*
21,1,$1,$2,0,0,$3*%
G04 Aperture macros list end*
G04 #@! TA.AperFunction,SMDPad,CuDef*
%ADD10RotRect,0.900000X0.800000X45.000000*%
G04 #@! TD*
G04 #@! TA.AperFunction,SMDPad,CuDef*
%ADD11RoundRect,0.318150X-0.318150X-0.381850X0.318150X-0.381850X0.318150X0.381850X-0.318150X0.381850X0*%
G04 #@! TD*
G04 #@! TA.AperFunction,SMDPad,CuDef*
%ADD12RoundRect,0.250000X0.250000X0.475000X-0.250000X0.475000X-0.250000X-0.475000X0.250000X-0.475000X0*%
G04 #@! TD*
G04 #@! TA.AperFunction,SMDPad,CuDef*
%ADD13RoundRect,0.250000X-0.475000X0.250000X-0.475000X-0.250000X0.475000X-0.250000X0.475000X0.250000X0*%
G04 #@! TD*
G04 #@! TA.AperFunction,SMDPad,CuDef*
%ADD14RoundRect,0.250000X0.475000X-0.250000X0.475000X0.250000X-0.475000X0.250000X-0.475000X-0.250000X0*%
G04 #@! TD*
G04 #@! TA.AperFunction,SMDPad,CuDef*
%ADD15RoundRect,0.250000X-0.250000X-0.475000X0.250000X-0.475000X0.250000X0.475000X-0.250000X0.475000X0*%
G04 #@! TD*
G04 #@! TA.AperFunction,SMDPad,CuDef*
%ADD16R,3.480000X1.846667*%
G04 #@! TD*
G04 #@! TA.AperFunction,SMDPad,CuDef*
%ADD17RoundRect,0.250000X-0.262500X-0.450000X0.262500X-0.450000X0.262500X0.450000X-0.262500X0.450000X0*%
G04 #@! TD*
G04 #@! TA.AperFunction,SMDPad,CuDef*
%ADD18R,0.500000X0.800000*%
G04 #@! TD*
G04 #@! TA.AperFunction,SMDPad,CuDef*
%ADD19R,0.400000X0.800000*%
G04 #@! TD*
G04 #@! TA.AperFunction,SMDPad,CuDef*
%ADD20RoundRect,0.150000X-0.150000X0.587500X-0.150000X-0.587500X0.150000X-0.587500X0.150000X0.587500X0*%
G04 #@! TD*
G04 #@! TA.AperFunction,SMDPad,CuDef*
%ADD21RoundRect,0.250000X-1.075000X0.312500X-1.075000X-0.312500X1.075000X-0.312500X1.075000X0.312500X0*%
G04 #@! TD*
G04 #@! TA.AperFunction,SMDPad,CuDef*
%ADD22RoundRect,0.250000X-0.450000X0.262500X-0.450000X-0.262500X0.450000X-0.262500X0.450000X0.262500X0*%
G04 #@! TD*
G04 #@! TA.AperFunction,SMDPad,CuDef*
%ADD23R,1.846667X3.480000*%
G04 #@! TD*
G04 #@! TA.AperFunction,ComponentPad*
%ADD24R,1.800000X1.800000*%
G04 #@! TD*
G04 #@! TA.AperFunction,ComponentPad*
%ADD25C,1.800000*%
G04 #@! TD*
G04 #@! TA.AperFunction,ComponentPad*
%ADD26C,1.200000*%
G04 #@! TD*
G04 #@! TA.AperFunction,ComponentPad*
%ADD27C,1.500000*%
G04 #@! TD*
G04 #@! TA.AperFunction,SMDPad,CuDef*
%ADD28R,1.500000X1.500000*%
G04 #@! TD*
G04 #@! TA.AperFunction,SMDPad,CuDef*
%ADD29RoundRect,0.250000X0.450000X-0.262500X0.450000X0.262500X-0.450000X0.262500X-0.450000X-0.262500X0*%
G04 #@! TD*
G04 #@! TA.AperFunction,SMDPad,CuDef*
%ADD30R,1.700000X1.300000*%
G04 #@! TD*
G04 #@! TA.AperFunction,SMDPad,CuDef*
%ADD31RoundRect,0.075000X-0.700000X-0.075000X0.700000X-0.075000X0.700000X0.075000X-0.700000X0.075000X0*%
G04 #@! TD*
G04 #@! TA.AperFunction,SMDPad,CuDef*
%ADD32RoundRect,0.075000X-0.075000X-0.700000X0.075000X-0.700000X0.075000X0.700000X-0.075000X0.700000X0*%
G04 #@! TD*
G04 #@! TA.AperFunction,ComponentPad*
%ADD33R,1.700000X1.700000*%
G04 #@! TD*
G04 #@! TA.AperFunction,ComponentPad*
%ADD34O,1.700000X1.700000*%
G04 #@! TD*
G04 #@! TA.AperFunction,ComponentPad*
%ADD35R,3.500000X3.500000*%
G04 #@! TD*
G04 #@! TA.AperFunction,ComponentPad*
%ADD36RoundRect,0.750000X-1.000000X0.750000X-1.000000X-0.750000X1.000000X-0.750000X1.000000X0.750000X0*%
G04 #@! TD*
G04 #@! TA.AperFunction,ComponentPad*
%ADD37RoundRect,0.875000X-0.875000X0.875000X-0.875000X-0.875000X0.875000X-0.875000X0.875000X0.875000X0*%
G04 #@! TD*
G04 #@! TA.AperFunction,ComponentPad*
%ADD38C,3.000000*%
G04 #@! TD*
G04 #@! TA.AperFunction,SMDPad,CuDef*
%ADD39RoundRect,0.150000X-0.150000X0.512500X-0.150000X-0.512500X0.150000X-0.512500X0.150000X0.512500X0*%
G04 #@! TD*
G04 #@! TA.AperFunction,ViaPad*
%ADD40C,0.600000*%
G04 #@! TD*
G04 #@! TA.AperFunction,Conductor*
%ADD41C,0.250000*%
G04 #@! TD*
G04 #@! TA.AperFunction,Conductor*
%ADD42C,0.500000*%
G04 #@! TD*
G04 APERTURE END LIST*
D10*
X175895000Y-70421500D03*
X177238503Y-71765003D03*
X177980965Y-69679038D03*
D11*
X192251300Y-76200000D03*
X193828700Y-76200000D03*
D12*
X176845000Y-67310000D03*
X174945000Y-67310000D03*
D13*
X176530000Y-80330000D03*
X176530000Y-82230000D03*
D11*
X192251300Y-89535000D03*
X193828700Y-89535000D03*
D14*
X179705000Y-90182500D03*
X179705000Y-88282500D03*
D15*
X192090000Y-87630000D03*
X193990000Y-87630000D03*
X192090000Y-74295000D03*
X193990000Y-74295000D03*
D16*
X197485000Y-75740000D03*
X197485000Y-78510000D03*
X197485000Y-81280000D03*
X197485000Y-84050000D03*
X197485000Y-86820000D03*
D17*
X170537500Y-88900000D03*
X172362500Y-88900000D03*
D18*
X188030000Y-92975000D03*
D19*
X188830000Y-92975000D03*
X189630000Y-92975000D03*
D18*
X190430000Y-92975000D03*
X190430000Y-91175000D03*
D19*
X189630000Y-91175000D03*
X188830000Y-91175000D03*
D18*
X188030000Y-91175000D03*
D17*
X170537500Y-71120000D03*
X172362500Y-71120000D03*
D20*
X184465000Y-70817500D03*
X182565000Y-70817500D03*
X183515000Y-72692500D03*
D21*
X187325000Y-70927500D03*
X187325000Y-73852500D03*
D22*
X186055000Y-91162500D03*
X186055000Y-92987500D03*
D23*
X180515000Y-97155000D03*
X183285000Y-97155000D03*
X186055000Y-97155000D03*
X188825000Y-97155000D03*
X191595000Y-97155000D03*
D17*
X170537500Y-67310000D03*
X172362500Y-67310000D03*
D22*
X179705000Y-91797500D03*
X179705000Y-93622500D03*
D24*
X175895000Y-89535000D03*
D25*
X175895000Y-92075000D03*
D26*
X198215000Y-93000000D03*
X196215000Y-93000000D03*
X194215000Y-93000000D03*
X198215000Y-97500000D03*
X196215000Y-97500000D03*
X194215000Y-97500000D03*
D14*
X176530000Y-78752500D03*
X176530000Y-76852500D03*
D27*
X172720000Y-78740000D03*
X172720000Y-83620000D03*
D14*
X176530000Y-85707500D03*
X176530000Y-83807500D03*
D28*
X177890000Y-96520000D03*
X170090000Y-96520000D03*
D29*
X180340000Y-68857500D03*
X180340000Y-67032500D03*
D30*
X180340000Y-70640000D03*
X180340000Y-74140000D03*
D31*
X179745000Y-78165000D03*
X179745000Y-78665000D03*
X179745000Y-79165000D03*
X179745000Y-79665000D03*
X179745000Y-80165000D03*
X179745000Y-80665000D03*
X179745000Y-81165000D03*
X179745000Y-81665000D03*
X179745000Y-82165000D03*
X179745000Y-82665000D03*
X179745000Y-83165000D03*
X179745000Y-83665000D03*
X179745000Y-84165000D03*
X179745000Y-84665000D03*
X179745000Y-85165000D03*
X179745000Y-85665000D03*
D32*
X181670000Y-87590000D03*
X182170000Y-87590000D03*
X182670000Y-87590000D03*
X183170000Y-87590000D03*
X183670000Y-87590000D03*
X184170000Y-87590000D03*
X184670000Y-87590000D03*
X185170000Y-87590000D03*
X185670000Y-87590000D03*
X186170000Y-87590000D03*
X186670000Y-87590000D03*
X187170000Y-87590000D03*
X187670000Y-87590000D03*
X188170000Y-87590000D03*
X188670000Y-87590000D03*
X189170000Y-87590000D03*
D31*
X191095000Y-85665000D03*
X191095000Y-85165000D03*
X191095000Y-84665000D03*
X191095000Y-84165000D03*
X191095000Y-83665000D03*
X191095000Y-83165000D03*
X191095000Y-82665000D03*
X191095000Y-82165000D03*
X191095000Y-81665000D03*
X191095000Y-81165000D03*
X191095000Y-80665000D03*
X191095000Y-80165000D03*
X191095000Y-79665000D03*
X191095000Y-79165000D03*
X191095000Y-78665000D03*
X191095000Y-78165000D03*
D32*
X189170000Y-76240000D03*
X188670000Y-76240000D03*
X188170000Y-76240000D03*
X187670000Y-76240000D03*
X187170000Y-76240000D03*
X186670000Y-76240000D03*
X186170000Y-76240000D03*
X185670000Y-76240000D03*
X185170000Y-76240000D03*
X184670000Y-76240000D03*
X184170000Y-76240000D03*
X183670000Y-76240000D03*
X183170000Y-76240000D03*
X182670000Y-76240000D03*
X182170000Y-76240000D03*
X181670000Y-76240000D03*
D12*
X177480000Y-73660000D03*
X175580000Y-73660000D03*
D18*
X181680000Y-92975000D03*
D19*
X182480000Y-92975000D03*
X183280000Y-92975000D03*
D18*
X184080000Y-92975000D03*
X184080000Y-91175000D03*
D19*
X183280000Y-91175000D03*
X182480000Y-91175000D03*
D18*
X181680000Y-91175000D03*
D17*
X170537500Y-91440000D03*
X172362500Y-91440000D03*
D33*
X186055000Y-64135000D03*
D34*
X183515000Y-64135000D03*
X180975000Y-64135000D03*
X178435000Y-64135000D03*
X175895000Y-64135000D03*
X173355000Y-64135000D03*
X170815000Y-64135000D03*
D17*
X170537500Y-73660000D03*
X172362500Y-73660000D03*
D18*
X182315000Y-68845000D03*
D19*
X183115000Y-68845000D03*
X183915000Y-68845000D03*
D18*
X184715000Y-68845000D03*
X184715000Y-67045000D03*
D19*
X183915000Y-67045000D03*
X183115000Y-67045000D03*
D18*
X182315000Y-67045000D03*
D35*
X194310000Y-70770000D03*
D36*
X194310000Y-64770000D03*
D37*
X189610000Y-67770000D03*
D27*
X167640000Y-75255000D03*
X167640000Y-72755000D03*
X167640000Y-70755000D03*
X167640000Y-68255000D03*
D38*
X166190000Y-78325000D03*
X166190000Y-65185000D03*
D27*
X167640000Y-93670000D03*
X167640000Y-91170000D03*
X167640000Y-89170000D03*
X167640000Y-86670000D03*
D38*
X166190000Y-96740000D03*
X166190000Y-83600000D03*
D39*
X176845000Y-69347500D03*
X175895000Y-69347500D03*
X174945000Y-69347500D03*
X174945000Y-71622500D03*
X176845000Y-71622500D03*
D40*
X181610000Y-81915000D03*
X196215000Y-89535000D03*
X178435000Y-76200000D03*
X185420000Y-81915000D03*
X171450000Y-93345000D03*
X180975000Y-88900000D03*
X171450000Y-76200000D03*
X182308500Y-77533500D03*
X182724997Y-83375498D03*
X181864000Y-72961500D03*
X182724997Y-79375000D03*
X182724997Y-85725000D03*
X188595000Y-81280000D03*
X189674500Y-81915000D03*
X182562500Y-74295000D03*
X187706002Y-86233000D03*
X189103000Y-89535000D03*
X181292500Y-79375000D03*
X173990012Y-74295000D03*
X181292500Y-80264000D03*
X173355000Y-72390000D03*
X178117500Y-85725000D03*
X188595000Y-94615000D03*
X188168025Y-89567620D03*
X190500000Y-86360000D03*
X191135000Y-94615000D03*
X194945000Y-78740000D03*
X188595000Y-78740000D03*
X195245024Y-76196616D03*
X189865000Y-77470000D03*
X189805000Y-94615000D03*
X189674500Y-86360000D03*
X182245000Y-94615000D03*
X184023000Y-78740000D03*
X187325000Y-89535000D03*
X186079442Y-94639442D03*
X184785000Y-89534998D03*
X183515000Y-94615000D03*
X181610000Y-93980000D03*
X183324498Y-78105000D03*
X177800000Y-67310000D03*
X173990000Y-69215000D03*
X182879996Y-90170000D03*
X185801000Y-78105000D03*
X186436000Y-78740000D03*
X189865000Y-74295000D03*
X192405000Y-79375000D03*
X194945000Y-80010000D03*
X189230000Y-78105000D03*
X187325000Y-94615000D03*
D41*
X176530000Y-78740000D02*
X172720000Y-78740000D01*
X179745000Y-80165000D02*
X177955000Y-80165000D01*
X177955000Y-80165000D02*
X176530000Y-78740000D01*
D42*
X172387500Y-67310000D02*
X174957500Y-67310000D01*
X193828700Y-89535000D02*
X196215000Y-89535000D01*
X175895000Y-67310000D02*
X175895000Y-72590002D01*
X176500000Y-76835000D02*
X172509264Y-76835000D01*
D41*
X180919264Y-83665000D02*
X181610000Y-82974264D01*
X182170000Y-87590000D02*
X182170000Y-88594000D01*
D42*
X172387500Y-67310000D02*
X173990000Y-67310000D01*
D41*
X181864000Y-88900000D02*
X180310000Y-88900000D01*
D42*
X170090000Y-96520000D02*
X170090000Y-94705000D01*
X176530000Y-75565000D02*
X176530000Y-76865000D01*
X175592500Y-74627500D02*
X176530000Y-75565000D01*
D41*
X182170000Y-77395000D02*
X182308500Y-77533500D01*
D42*
X176530000Y-82217500D02*
X176530000Y-83820000D01*
D41*
X179745000Y-83665000D02*
X180919264Y-83665000D01*
X182170000Y-76240000D02*
X182170000Y-77395000D01*
X179745000Y-83665000D02*
X176685000Y-83665000D01*
D42*
X170090000Y-94705000D02*
X171450000Y-93345000D01*
D41*
X182170000Y-88594000D02*
X181864000Y-88900000D01*
D42*
X175895000Y-72590002D02*
X175592500Y-72892502D01*
X172509264Y-76835000D02*
X171874264Y-76200000D01*
D41*
X180310000Y-88900000D02*
X179705000Y-88295000D01*
D42*
X171874264Y-76200000D02*
X171450000Y-76200000D01*
D41*
X176685000Y-83665000D02*
X176530000Y-83820000D01*
D42*
X175895000Y-66040000D02*
X175895000Y-67310000D01*
D41*
X181610000Y-82974264D02*
X181610000Y-82339264D01*
D42*
X193977500Y-74295000D02*
X193977500Y-76051200D01*
D41*
X181610000Y-82339264D02*
X181610000Y-81915000D01*
D42*
X193977500Y-89386200D02*
X193828700Y-89535000D01*
X193977500Y-76051200D02*
X193828700Y-76200000D01*
X193977500Y-87630000D02*
X193977500Y-89386200D01*
D41*
X185420000Y-81915000D02*
X181610000Y-81915000D01*
D42*
X175895000Y-66040000D02*
X175895000Y-64135000D01*
X175592500Y-72892502D02*
X175592500Y-73660000D01*
X176530000Y-76865000D02*
X176500000Y-76835000D01*
X175895000Y-67310000D02*
X174957500Y-67310000D01*
X175592500Y-73660000D02*
X175592500Y-74627500D01*
D41*
X175997500Y-80342500D02*
X176530000Y-80342500D01*
X172720000Y-83620000D02*
X175997500Y-80342500D01*
X179745000Y-80665000D02*
X176852500Y-80665000D01*
X176852500Y-80665000D02*
X176530000Y-80342500D01*
X180520000Y-84165000D02*
X180537502Y-84147498D01*
X181864000Y-73081000D02*
X181864000Y-72961500D01*
X182670000Y-85779997D02*
X182670000Y-87590000D01*
X189170000Y-87590000D02*
X192062500Y-87590000D01*
X182880000Y-79375000D02*
X182724997Y-79375000D01*
X181670000Y-76240000D02*
X180935000Y-76240000D01*
X191095000Y-75302500D02*
X192102500Y-74295000D01*
X180805000Y-74140000D02*
X181864000Y-73081000D01*
D42*
X182724997Y-79375000D02*
X182724997Y-79219997D01*
D41*
X178060000Y-84165000D02*
X176530000Y-85695000D01*
X181865411Y-89535000D02*
X180340000Y-89535000D01*
X182300733Y-83375498D02*
X182724997Y-83375498D01*
D42*
X182724997Y-79219997D02*
X180340000Y-76835000D01*
D41*
X180537502Y-84147498D02*
X181338235Y-84147498D01*
X189044298Y-79375000D02*
X182880000Y-79375000D01*
X183024996Y-85425001D02*
X182724997Y-85725000D01*
D42*
X179705000Y-91772500D02*
X179705000Y-90170000D01*
D41*
X182670000Y-87590000D02*
X182670000Y-88730411D01*
D42*
X176845000Y-73037500D02*
X177467500Y-73660000D01*
D41*
X180340000Y-89535000D02*
X179705000Y-90170000D01*
X181338235Y-84147498D02*
X182110235Y-83375498D01*
D42*
X178268750Y-73660000D02*
X178748750Y-74140000D01*
D41*
X187845703Y-85425001D02*
X183024996Y-85425001D01*
X190254298Y-78165000D02*
X189044298Y-79375000D01*
X182110235Y-83375498D02*
X182300733Y-83375498D01*
X180340000Y-74140000D02*
X180805000Y-74140000D01*
D42*
X177467500Y-73660000D02*
X178268750Y-73660000D01*
D41*
X180340000Y-76835000D02*
X179745000Y-77430000D01*
X179745000Y-77430000D02*
X179745000Y-78165000D01*
D42*
X180340000Y-74140000D02*
X180340000Y-76835000D01*
D41*
X179745000Y-84165000D02*
X178060000Y-84165000D01*
X182724997Y-85725000D02*
X182670000Y-85779997D01*
X189170000Y-86749298D02*
X187845703Y-85425001D01*
X192062500Y-87590000D02*
X192102500Y-87630000D01*
X191095000Y-78165000D02*
X191095000Y-75302500D01*
X191095000Y-78165000D02*
X190254298Y-78165000D01*
X179745000Y-84165000D02*
X180520000Y-84165000D01*
D42*
X178748750Y-74140000D02*
X180340000Y-74140000D01*
X176845000Y-71795000D02*
X176845000Y-73037500D01*
D41*
X180935000Y-76240000D02*
X180340000Y-76835000D01*
X189170000Y-87590000D02*
X189170000Y-86749298D01*
X182670000Y-88730411D02*
X181865411Y-89535000D01*
X189019264Y-81280000D02*
X188595000Y-81280000D01*
X189231410Y-81280000D02*
X189019264Y-81280000D01*
X189846410Y-80665000D02*
X189231410Y-81280000D01*
X191095000Y-80665000D02*
X189846410Y-80665000D01*
X190000236Y-81165000D02*
X189674500Y-81490736D01*
X189674500Y-81490736D02*
X189674500Y-81915000D01*
X191095000Y-81165000D02*
X190000236Y-81165000D01*
X183670000Y-76240000D02*
X183670000Y-75212000D01*
X170512500Y-67310000D02*
X170815000Y-67007500D01*
X182753000Y-74295000D02*
X182562500Y-74295000D01*
X183670000Y-75212000D02*
X182753000Y-74295000D01*
X170815000Y-67007500D02*
X170815000Y-64135000D01*
X189103000Y-89535000D02*
X190025002Y-89535000D01*
X187154736Y-86233000D02*
X187281738Y-86233000D01*
X191770000Y-93345000D02*
X193040000Y-94615000D01*
X190025002Y-89535000D02*
X191770000Y-91279998D01*
X191770000Y-91279998D02*
X191770000Y-93345000D01*
X193040000Y-94615000D02*
X194600000Y-94615000D01*
X186670000Y-87590000D02*
X186670000Y-86717736D01*
X194600000Y-94615000D02*
X196215000Y-93000000D01*
X187281738Y-86233000D02*
X187706002Y-86233000D01*
X186670000Y-86717736D02*
X187154736Y-86233000D01*
X181973499Y-80055999D02*
X181592499Y-79674999D01*
X173990000Y-74295000D02*
X173990012Y-74295000D01*
X191095000Y-79665000D02*
X189573590Y-79665000D01*
X172387500Y-73660000D02*
X173355000Y-73660000D01*
X189573590Y-79665000D02*
X189182591Y-80055999D01*
X173355000Y-73660000D02*
X173990000Y-74295000D01*
X181592499Y-79674999D02*
X181292500Y-79375000D01*
X189182591Y-80055999D02*
X181973499Y-80055999D01*
X172387500Y-71120000D02*
X172387500Y-71422500D01*
X181592499Y-80563999D02*
X181292500Y-80264000D01*
X191095000Y-80165000D02*
X189710000Y-80165000D01*
X189311001Y-80563999D02*
X181592499Y-80563999D01*
X172387500Y-71422500D02*
X173355000Y-72390000D01*
X189710000Y-80165000D02*
X189311001Y-80563999D01*
X179705000Y-93647500D02*
X177467500Y-93647500D01*
X177467500Y-93647500D02*
X175895000Y-92075000D01*
X179745000Y-84665000D02*
X178753236Y-84665000D01*
X178117500Y-85300736D02*
X178117500Y-85725000D01*
X178753236Y-84665000D02*
X178117500Y-85300736D01*
X191615000Y-89535000D02*
X192251300Y-89535000D01*
X188670000Y-88702851D02*
X188867149Y-88900000D01*
X188867149Y-88900000D02*
X190980000Y-88900000D01*
X190980000Y-88900000D02*
X191615000Y-89535000D01*
X188670000Y-87590000D02*
X188670000Y-88702851D01*
X191095000Y-78665000D02*
X191935702Y-78665000D01*
X191935702Y-78665000D02*
X192251300Y-78349402D01*
X192251300Y-76900000D02*
X192251300Y-76200000D01*
X192251300Y-78349402D02*
X192251300Y-76900000D01*
X188170000Y-87590000D02*
X188170000Y-89565645D01*
X188170000Y-89565645D02*
X188168025Y-89567620D01*
X188825000Y-94845000D02*
X188595000Y-94615000D01*
X188030000Y-94050000D02*
X188030000Y-92975000D01*
X188825000Y-97155000D02*
X188825000Y-94845000D01*
X188595000Y-94615000D02*
X188030000Y-94050000D01*
X188170000Y-89569595D02*
X188168025Y-89567620D01*
X191135000Y-94615000D02*
X190430000Y-93910000D01*
X190430000Y-93910000D02*
X190430000Y-92975000D01*
X190500000Y-86260000D02*
X190500000Y-86360000D01*
X191095000Y-85665000D02*
X190500000Y-86260000D01*
X191595000Y-95075000D02*
X191135000Y-94615000D01*
X191595000Y-97155000D02*
X191595000Y-95075000D01*
X168005000Y-71120000D02*
X167640000Y-70755000D01*
X170512500Y-71120000D02*
X168005000Y-71120000D01*
X168545000Y-73660000D02*
X167640000Y-72755000D01*
X170512500Y-73660000D02*
X168545000Y-73660000D01*
X170512500Y-88900000D02*
X167910000Y-88900000D01*
X167910000Y-88900000D02*
X167640000Y-89170000D01*
X170512500Y-91440000D02*
X167910000Y-91440000D01*
X167910000Y-91440000D02*
X167640000Y-91170000D01*
X191095000Y-83165000D02*
X194060000Y-83165000D01*
X194945000Y-84050000D02*
X197485000Y-84050000D01*
X194060000Y-83165000D02*
X194945000Y-84050000D01*
X194945000Y-81280000D02*
X197485000Y-81280000D01*
X191095000Y-82665000D02*
X193560000Y-82665000D01*
X193560000Y-82665000D02*
X194945000Y-81280000D01*
X187170000Y-76240000D02*
X187170000Y-77739264D01*
X197255000Y-78740000D02*
X197485000Y-78510000D01*
X188170736Y-78740000D02*
X188595000Y-78740000D01*
X194945000Y-78740000D02*
X197255000Y-78740000D01*
X187170000Y-77739264D02*
X188170736Y-78740000D01*
X188170000Y-76240000D02*
X188170000Y-77080702D01*
X197485000Y-75740000D02*
X195495000Y-75740000D01*
X195495000Y-75740000D02*
X195245024Y-75989976D01*
X195245024Y-75989976D02*
X195245024Y-76196616D01*
X188170000Y-77080702D02*
X188559298Y-77470000D01*
X188559298Y-77470000D02*
X189440736Y-77470000D01*
X189440736Y-77470000D02*
X189865000Y-77470000D01*
X189674500Y-85681736D02*
X189674500Y-85935736D01*
X189630000Y-94440000D02*
X189805000Y-94615000D01*
X191095000Y-85165000D02*
X190191236Y-85165000D01*
X189674500Y-85935736D02*
X189674500Y-86360000D01*
X189630000Y-92975000D02*
X189630000Y-94440000D01*
X190191236Y-85165000D02*
X189674500Y-85681736D01*
X184170000Y-76240000D02*
X184170000Y-78593000D01*
X182480000Y-94380000D02*
X182480000Y-92975000D01*
X184170000Y-78593000D02*
X184023000Y-78740000D01*
X182245000Y-94615000D02*
X182480000Y-94380000D01*
X186055000Y-94615000D02*
X185720000Y-94615000D01*
X187670000Y-89190000D02*
X187325000Y-89535000D01*
X187670000Y-87590000D02*
X187670000Y-89190000D01*
X185720000Y-94615000D02*
X184080000Y-92975000D01*
X186055000Y-97155000D02*
X186055000Y-94615000D01*
X183280000Y-94380000D02*
X183515000Y-94615000D01*
X185209264Y-89534998D02*
X184785000Y-89534998D01*
X187170000Y-87590000D02*
X187170000Y-88430702D01*
X183285000Y-94845000D02*
X183515000Y-94615000D01*
X186065704Y-89534998D02*
X185209264Y-89534998D01*
X187170000Y-88430702D02*
X186065704Y-89534998D01*
X183280000Y-92975000D02*
X183280000Y-94380000D01*
X183285000Y-97155000D02*
X183285000Y-94845000D01*
X180515000Y-97155000D02*
X180515000Y-95075000D01*
X183170000Y-76240000D02*
X183170000Y-77950502D01*
X181680000Y-92975000D02*
X181680000Y-93910000D01*
X183170000Y-77950502D02*
X183324498Y-78105000D01*
X180515000Y-95075000D02*
X181610000Y-93980000D01*
X181680000Y-93910000D02*
X181610000Y-93980000D01*
X172387500Y-91440000D02*
X171450000Y-90502500D01*
X172085000Y-87630000D02*
X173887250Y-87630000D01*
X182598500Y-84165000D02*
X191095000Y-84165000D01*
X180086000Y-86677500D02*
X182598500Y-84165000D01*
X173887250Y-87630000D02*
X174839750Y-86677500D01*
X174839750Y-86677500D02*
X180086000Y-86677500D01*
X171450000Y-88265000D02*
X172085000Y-87630000D01*
X171450000Y-90502500D02*
X171450000Y-88265000D01*
X182828750Y-84665000D02*
X191095000Y-84665000D01*
X173432499Y-88900000D02*
X175083499Y-87249000D01*
X180244750Y-87249000D02*
X182828750Y-84665000D01*
X172387500Y-88900000D02*
X173432499Y-88900000D01*
X175083499Y-87249000D02*
X180244750Y-87249000D01*
X186170000Y-87590000D02*
X186170000Y-88430702D01*
X177890000Y-95520000D02*
X177890000Y-96520000D01*
X181954994Y-90170000D02*
X181449998Y-90170000D01*
X183224994Y-88900000D02*
X181954994Y-90170000D01*
X180975000Y-93881850D02*
X179766851Y-95089999D01*
X181449998Y-90170000D02*
X180975000Y-90644998D01*
X185700702Y-88900000D02*
X183224994Y-88900000D01*
X178320001Y-95089999D02*
X177890000Y-95520000D01*
X180975000Y-90644998D02*
X180975000Y-93881850D01*
X186170000Y-88430702D02*
X185700702Y-88900000D01*
X179766851Y-95089999D02*
X178320001Y-95089999D01*
D42*
X173990000Y-69215000D02*
X173990000Y-69215000D01*
X176845000Y-69175000D02*
X177476927Y-69175000D01*
X176832500Y-67310000D02*
X177800000Y-67310000D01*
X186690000Y-68277500D02*
X186690000Y-70355000D01*
X177800000Y-67310000D02*
X178102500Y-67007500D01*
X182430000Y-91175000D02*
X182879996Y-90725004D01*
X177476927Y-69175000D02*
X177980965Y-69679038D01*
X186690000Y-70355000D02*
X187325000Y-70990000D01*
X181680000Y-91175000D02*
X190430000Y-91175000D01*
X182879996Y-90725004D02*
X182879996Y-90170000D01*
X185420000Y-67007500D02*
X186690000Y-68277500D01*
X174625000Y-69215000D02*
X174414264Y-69215000D01*
X181680000Y-91175000D02*
X182430000Y-91175000D01*
X176845000Y-67322500D02*
X176832500Y-67310000D01*
X174414264Y-69215000D02*
X173990000Y-69215000D01*
X178102500Y-67007500D02*
X185420000Y-67007500D01*
X176845000Y-69175000D02*
X176845000Y-67322500D01*
D41*
X183115000Y-68845000D02*
X183115000Y-69450000D01*
X183515000Y-69850000D02*
X183515000Y-73244298D01*
X185670000Y-75399298D02*
X185670000Y-75465000D01*
X183515000Y-73244298D02*
X185670000Y-75399298D01*
X185670000Y-75465000D02*
X185670000Y-76240000D01*
X183115000Y-69450000D02*
X183515000Y-69850000D01*
X182315000Y-70505000D02*
X182565000Y-70755000D01*
X182565000Y-73294298D02*
X184670000Y-75399298D01*
X184694990Y-77039990D02*
X184694990Y-77105692D01*
X185501001Y-77805001D02*
X185801000Y-78105000D01*
X182315000Y-68845000D02*
X182315000Y-70505000D01*
X184694990Y-77105692D02*
X185394299Y-77805001D01*
X182565000Y-70755000D02*
X182565000Y-73294298D01*
X184670000Y-77015000D02*
X184694990Y-77039990D01*
X184670000Y-76240000D02*
X184670000Y-77015000D01*
X184670000Y-75465000D02*
X184670000Y-76240000D01*
X185394299Y-77805001D02*
X185501001Y-77805001D01*
X184670000Y-75399298D02*
X184670000Y-75465000D01*
X186170000Y-77548998D02*
X186436000Y-77814998D01*
X186436000Y-77814998D02*
X186436000Y-78315736D01*
X184715000Y-70505000D02*
X184465000Y-70755000D01*
X186436000Y-78315736D02*
X186436000Y-78740000D01*
X184465000Y-73266595D02*
X186170000Y-74971595D01*
X184465000Y-70755000D02*
X184465000Y-73266595D01*
X184715000Y-68845000D02*
X184715000Y-70505000D01*
X186170000Y-76240000D02*
X186170000Y-77548998D01*
X186170000Y-74971595D02*
X186170000Y-76240000D01*
D42*
X190915000Y-70770000D02*
X194310000Y-70770000D01*
X187895000Y-73790000D02*
X190915000Y-70770000D01*
X187325000Y-73790000D02*
X187895000Y-73790000D01*
D41*
X189170000Y-74990000D02*
X189865000Y-74295000D01*
X189170000Y-76240000D02*
X189170000Y-74990000D01*
X191095000Y-79165000D02*
X192195000Y-79165000D01*
X192195000Y-79165000D02*
X192405000Y-79375000D01*
X191095000Y-82165000D02*
X192790000Y-82165000D01*
X192790000Y-82165000D02*
X194945000Y-80010000D01*
X187670000Y-77217113D02*
X188557887Y-78105000D01*
X188557887Y-78105000D02*
X188805736Y-78105000D01*
X187670000Y-76240000D02*
X187670000Y-77217113D01*
X188805736Y-78105000D02*
X189230000Y-78105000D01*
X191935702Y-83665000D02*
X195090702Y-86820000D01*
X195090702Y-86820000D02*
X195495000Y-86820000D01*
X195495000Y-86820000D02*
X197485000Y-86820000D01*
X191095000Y-83665000D02*
X191935702Y-83665000D01*
D42*
X187325000Y-94282500D02*
X187325000Y-94615000D01*
X186055000Y-93012500D02*
X187325000Y-94282500D01*
X180340000Y-68882500D02*
X180340000Y-70640000D01*
G04 #@! TA.AperFunction,Conductor*
G36*
X165166456Y-85328348D02*
G01*
X165235271Y-85371515D01*
X165242807Y-85375556D01*
X165484520Y-85484694D01*
X165492551Y-85487680D01*
X165746832Y-85563002D01*
X165755184Y-85564869D01*
X166017340Y-85604984D01*
X166025874Y-85605700D01*
X166291045Y-85609867D01*
X166299596Y-85609418D01*
X166562883Y-85577557D01*
X166571287Y-85575954D01*
X166640333Y-85557841D01*
X166711300Y-85559903D01*
X166769886Y-85600004D01*
X166797492Y-85665414D01*
X166785352Y-85735365D01*
X166761401Y-85768812D01*
X166672251Y-85857962D01*
X166669094Y-85862470D01*
X166669092Y-85862473D01*
X166630212Y-85918000D01*
X166545944Y-86038347D01*
X166543621Y-86043329D01*
X166543618Y-86043334D01*
X166506652Y-86122610D01*
X166452880Y-86237924D01*
X166395885Y-86450629D01*
X166376693Y-86670000D01*
X166395885Y-86889371D01*
X166452880Y-87102076D01*
X166496415Y-87195438D01*
X166543618Y-87296666D01*
X166543621Y-87296671D01*
X166545944Y-87301653D01*
X166549100Y-87306160D01*
X166549101Y-87306162D01*
X166643535Y-87441027D01*
X166672251Y-87482038D01*
X166827962Y-87637749D01*
X167008346Y-87764056D01*
X167013331Y-87766380D01*
X167013337Y-87766384D01*
X167097877Y-87805805D01*
X167151163Y-87852722D01*
X167170624Y-87920999D01*
X167150082Y-87988959D01*
X167097878Y-88034195D01*
X167013334Y-88073618D01*
X167013329Y-88073621D01*
X167008347Y-88075944D01*
X167003840Y-88079100D01*
X167003838Y-88079101D01*
X166832473Y-88199092D01*
X166832470Y-88199094D01*
X166827962Y-88202251D01*
X166672251Y-88357962D01*
X166669094Y-88362470D01*
X166669092Y-88362473D01*
X166560692Y-88517285D01*
X166545944Y-88538347D01*
X166543621Y-88543329D01*
X166543618Y-88543334D01*
X166496415Y-88644562D01*
X166452880Y-88737924D01*
X166395885Y-88950629D01*
X166376693Y-89170000D01*
X166395885Y-89389371D01*
X166452880Y-89602076D01*
X166488735Y-89678968D01*
X166543618Y-89796666D01*
X166543621Y-89796671D01*
X166545944Y-89801653D01*
X166549100Y-89806160D01*
X166549101Y-89806162D01*
X166658098Y-89961825D01*
X166672251Y-89982038D01*
X166771118Y-90080905D01*
X166805144Y-90143217D01*
X166800079Y-90214032D01*
X166771118Y-90259095D01*
X166672251Y-90357962D01*
X166669094Y-90362470D01*
X166669092Y-90362473D01*
X166549101Y-90533838D01*
X166545944Y-90538347D01*
X166543621Y-90543329D01*
X166543618Y-90543334D01*
X166507878Y-90619979D01*
X166452880Y-90737924D01*
X166395885Y-90950629D01*
X166376693Y-91170000D01*
X166395885Y-91389371D01*
X166452880Y-91602076D01*
X166463357Y-91624544D01*
X166543618Y-91796666D01*
X166543621Y-91796671D01*
X166545944Y-91801653D01*
X166549100Y-91806160D01*
X166549101Y-91806162D01*
X166655891Y-91958673D01*
X166672251Y-91982038D01*
X166827962Y-92137749D01*
X166832471Y-92140906D01*
X166832473Y-92140908D01*
X166882343Y-92175827D01*
X167008346Y-92264056D01*
X167013328Y-92266379D01*
X167013333Y-92266382D01*
X167098469Y-92306081D01*
X167151754Y-92352998D01*
X167171215Y-92421276D01*
X167150673Y-92489235D01*
X167098469Y-92534471D01*
X167013583Y-92574054D01*
X167004093Y-92579534D01*
X166962851Y-92608411D01*
X166954477Y-92618887D01*
X166961545Y-92632334D01*
X167627189Y-93297979D01*
X167641132Y-93305592D01*
X167642966Y-93305461D01*
X167649580Y-93301210D01*
X168319180Y-92631609D01*
X168325607Y-92619839D01*
X168316313Y-92607825D01*
X168275912Y-92579536D01*
X168266416Y-92574053D01*
X168181531Y-92534471D01*
X168128246Y-92487554D01*
X168108785Y-92419276D01*
X168129327Y-92351316D01*
X168181531Y-92306081D01*
X168266667Y-92266382D01*
X168266672Y-92266379D01*
X168271654Y-92264056D01*
X168397657Y-92175827D01*
X168447527Y-92140908D01*
X168447529Y-92140906D01*
X168452038Y-92137749D01*
X168479382Y-92110405D01*
X168541694Y-92076379D01*
X168568477Y-92073500D01*
X169445803Y-92073500D01*
X169513924Y-92093502D01*
X169560417Y-92147158D01*
X169565326Y-92159623D01*
X169580920Y-92206362D01*
X169583450Y-92213946D01*
X169587301Y-92220170D01*
X169587302Y-92220171D01*
X169622314Y-92276749D01*
X169676522Y-92364348D01*
X169801697Y-92489305D01*
X169807927Y-92493145D01*
X169807928Y-92493146D01*
X169945090Y-92577694D01*
X169952262Y-92582115D01*
X170029776Y-92607825D01*
X170113611Y-92635632D01*
X170113613Y-92635632D01*
X170120139Y-92637797D01*
X170126975Y-92638497D01*
X170126978Y-92638498D01*
X170170031Y-92642909D01*
X170224600Y-92648500D01*
X170850400Y-92648500D01*
X170853646Y-92648163D01*
X170853650Y-92648163D01*
X170949308Y-92638238D01*
X170949312Y-92638237D01*
X170956166Y-92637526D01*
X170962702Y-92635345D01*
X170962704Y-92635345D01*
X171094806Y-92591272D01*
X171123946Y-92581550D01*
X171274348Y-92488478D01*
X171360784Y-92401891D01*
X171423066Y-92367812D01*
X171493886Y-92372815D01*
X171538975Y-92401736D01*
X171570601Y-92433307D01*
X171626697Y-92489305D01*
X171632927Y-92493145D01*
X171632928Y-92493146D01*
X171770090Y-92577694D01*
X171777262Y-92582115D01*
X171854776Y-92607825D01*
X171938611Y-92635632D01*
X171938613Y-92635632D01*
X171945139Y-92637797D01*
X171951975Y-92638497D01*
X171951978Y-92638498D01*
X171995031Y-92642909D01*
X172049600Y-92648500D01*
X172675400Y-92648500D01*
X172678646Y-92648163D01*
X172678650Y-92648163D01*
X172774308Y-92638238D01*
X172774312Y-92638237D01*
X172781166Y-92637526D01*
X172787702Y-92635345D01*
X172787704Y-92635345D01*
X172919806Y-92591272D01*
X172948946Y-92581550D01*
X173099348Y-92488478D01*
X173224305Y-92363303D01*
X173236208Y-92343993D01*
X173313275Y-92218968D01*
X173313276Y-92218966D01*
X173317115Y-92212738D01*
X173362343Y-92076379D01*
X173370632Y-92051389D01*
X173370632Y-92051387D01*
X173372797Y-92044861D01*
X173383500Y-91940400D01*
X173383500Y-90939600D01*
X173383163Y-90936350D01*
X173373238Y-90840692D01*
X173373237Y-90840688D01*
X173372526Y-90833834D01*
X173358263Y-90791081D01*
X173318868Y-90673002D01*
X173316550Y-90666054D01*
X173223478Y-90515652D01*
X173098303Y-90390695D01*
X173064561Y-90369896D01*
X172953968Y-90301725D01*
X172953966Y-90301724D01*
X172947738Y-90297885D01*
X172931569Y-90292522D01*
X172922570Y-90289537D01*
X172864209Y-90249107D01*
X172836972Y-90183543D01*
X172849505Y-90113661D01*
X172897829Y-90061649D01*
X172922359Y-90050421D01*
X172941993Y-90043871D01*
X172942003Y-90043867D01*
X172948946Y-90041550D01*
X173099348Y-89948478D01*
X173224305Y-89823303D01*
X173230983Y-89812469D01*
X173313275Y-89678968D01*
X173313276Y-89678966D01*
X173317115Y-89672738D01*
X173334663Y-89619832D01*
X173375094Y-89561473D01*
X173440658Y-89534236D01*
X173454256Y-89533500D01*
X173472355Y-89533500D01*
X173476290Y-89533003D01*
X173476355Y-89532995D01*
X173488192Y-89532062D01*
X173520450Y-89531048D01*
X173524469Y-89530922D01*
X173532388Y-89530673D01*
X173551842Y-89525021D01*
X173571199Y-89521013D01*
X173583429Y-89519468D01*
X173583430Y-89519468D01*
X173591296Y-89518474D01*
X173598667Y-89515555D01*
X173598669Y-89515555D01*
X173632411Y-89502196D01*
X173643641Y-89498351D01*
X173678482Y-89488229D01*
X173678483Y-89488229D01*
X173686092Y-89486018D01*
X173692911Y-89481985D01*
X173692916Y-89481983D01*
X173703527Y-89475707D01*
X173721275Y-89467012D01*
X173740116Y-89459552D01*
X173747735Y-89454017D01*
X173775886Y-89433564D01*
X173785806Y-89427048D01*
X173817034Y-89408580D01*
X173817037Y-89408578D01*
X173823861Y-89404542D01*
X173838182Y-89390221D01*
X173853216Y-89377380D01*
X173863193Y-89370131D01*
X173869606Y-89365472D01*
X173897797Y-89331395D01*
X173905787Y-89322616D01*
X174271405Y-88956998D01*
X174333717Y-88922972D01*
X174404532Y-88928037D01*
X174461368Y-88970584D01*
X174486179Y-89037104D01*
X174486500Y-89046093D01*
X174486500Y-90483134D01*
X174493255Y-90545316D01*
X174544385Y-90681705D01*
X174631739Y-90798261D01*
X174748295Y-90885615D01*
X174756704Y-90888767D01*
X174756705Y-90888768D01*
X174816164Y-90911058D01*
X174872929Y-90953699D01*
X174897629Y-91020261D01*
X174882422Y-91089609D01*
X174863029Y-91116091D01*
X174796639Y-91185564D01*
X174793725Y-91189836D01*
X174793724Y-91189837D01*
X174778427Y-91212262D01*
X174666119Y-91376899D01*
X174568602Y-91586981D01*
X174506707Y-91810169D01*
X174482095Y-92040469D01*
X174482392Y-92045622D01*
X174482392Y-92045625D01*
X174492097Y-92213946D01*
X174495427Y-92271697D01*
X174496564Y-92276743D01*
X174496565Y-92276749D01*
X174528472Y-92418329D01*
X174546346Y-92497642D01*
X174548288Y-92502424D01*
X174548289Y-92502428D01*
X174618201Y-92674600D01*
X174633484Y-92712237D01*
X174754501Y-92909719D01*
X174906147Y-93084784D01*
X175084349Y-93232730D01*
X175284322Y-93349584D01*
X175500694Y-93432209D01*
X175505760Y-93433240D01*
X175505761Y-93433240D01*
X175510401Y-93434184D01*
X175727656Y-93478385D01*
X175858324Y-93483176D01*
X175953949Y-93486683D01*
X175953953Y-93486683D01*
X175959113Y-93486872D01*
X175964233Y-93486216D01*
X175964235Y-93486216D01*
X176183719Y-93458099D01*
X176183720Y-93458099D01*
X176188847Y-93457442D01*
X176264983Y-93434600D01*
X176335979Y-93434184D01*
X176390287Y-93466191D01*
X176681792Y-93757697D01*
X176963853Y-94039758D01*
X176971387Y-94048037D01*
X176975500Y-94054518D01*
X177006169Y-94083318D01*
X177025151Y-94101143D01*
X177027993Y-94103898D01*
X177047730Y-94123635D01*
X177050927Y-94126115D01*
X177059947Y-94133818D01*
X177092179Y-94164086D01*
X177099125Y-94167905D01*
X177099128Y-94167907D01*
X177109934Y-94173848D01*
X177126453Y-94184699D01*
X177142459Y-94197114D01*
X177149728Y-94200259D01*
X177149732Y-94200262D01*
X177183037Y-94214674D01*
X177193687Y-94219891D01*
X177232440Y-94241195D01*
X177240115Y-94243166D01*
X177240116Y-94243166D01*
X177252062Y-94246233D01*
X177270767Y-94252637D01*
X177289355Y-94260681D01*
X177297178Y-94261920D01*
X177297188Y-94261923D01*
X177333024Y-94267599D01*
X177344644Y-94270005D01*
X177379789Y-94279028D01*
X177387470Y-94281000D01*
X177407724Y-94281000D01*
X177427434Y-94282551D01*
X177447443Y-94285720D01*
X177455335Y-94284974D01*
X177491461Y-94281559D01*
X177503319Y-94281000D01*
X177981899Y-94281000D01*
X178050020Y-94301002D01*
X178096513Y-94354658D01*
X178106617Y-94424932D01*
X178077123Y-94489512D01*
X178028284Y-94524151D01*
X178019759Y-94527527D01*
X178012384Y-94530447D01*
X178005969Y-94535108D01*
X177976626Y-94556426D01*
X177966708Y-94562942D01*
X177948020Y-94573994D01*
X177928638Y-94585457D01*
X177914314Y-94599781D01*
X177899282Y-94612620D01*
X177882894Y-94624527D01*
X177871837Y-94637893D01*
X177854713Y-94658592D01*
X177846723Y-94667372D01*
X177497747Y-95016348D01*
X177489461Y-95023888D01*
X177482982Y-95028000D01*
X177477557Y-95033777D01*
X177436357Y-95077651D01*
X177433602Y-95080493D01*
X177413865Y-95100230D01*
X177411385Y-95103427D01*
X177403682Y-95112447D01*
X177373414Y-95144679D01*
X177369595Y-95151625D01*
X177369593Y-95151628D01*
X177363652Y-95162434D01*
X177352801Y-95178953D01*
X177340386Y-95194959D01*
X177338082Y-95200283D01*
X177286881Y-95248091D01*
X177230319Y-95261500D01*
X177091866Y-95261500D01*
X177029684Y-95268255D01*
X176893295Y-95319385D01*
X176776739Y-95406739D01*
X176689385Y-95523295D01*
X176638255Y-95659684D01*
X176631500Y-95721866D01*
X176631500Y-97318134D01*
X176638255Y-97380316D01*
X176689385Y-97516705D01*
X176776739Y-97633261D01*
X176893295Y-97720615D01*
X177029684Y-97771745D01*
X177091866Y-97778500D01*
X178688134Y-97778500D01*
X178750316Y-97771745D01*
X178797586Y-97754024D01*
X178878301Y-97723766D01*
X178878304Y-97723764D01*
X178886705Y-97720615D01*
X178893888Y-97715232D01*
X178896658Y-97713715D01*
X178966015Y-97698546D01*
X179032563Y-97723282D01*
X179075173Y-97780070D01*
X179083167Y-97824235D01*
X179083167Y-98425500D01*
X179063165Y-98493621D01*
X179009509Y-98540114D01*
X178957167Y-98551500D01*
X167497927Y-98551500D01*
X167429806Y-98531498D01*
X167383313Y-98477842D01*
X167373209Y-98407568D01*
X167395395Y-98352266D01*
X167413125Y-98327442D01*
X167406608Y-98315818D01*
X165919885Y-96829095D01*
X165885859Y-96766783D01*
X165887694Y-96741132D01*
X166554408Y-96741132D01*
X166554539Y-96742965D01*
X166558790Y-96749580D01*
X167765730Y-97956520D01*
X167777939Y-97963187D01*
X167789439Y-97954497D01*
X167886831Y-97821913D01*
X167891418Y-97814685D01*
X168017962Y-97581621D01*
X168021530Y-97573827D01*
X168115271Y-97325750D01*
X168117748Y-97317544D01*
X168118406Y-97314669D01*
X168832001Y-97314669D01*
X168832371Y-97321490D01*
X168837895Y-97372352D01*
X168841521Y-97387604D01*
X168886676Y-97508054D01*
X168895214Y-97523649D01*
X168971715Y-97625724D01*
X168984276Y-97638285D01*
X169086351Y-97714786D01*
X169101946Y-97723324D01*
X169222394Y-97768478D01*
X169237649Y-97772105D01*
X169288514Y-97777631D01*
X169295328Y-97778000D01*
X169817885Y-97778000D01*
X169833124Y-97773525D01*
X169834329Y-97772135D01*
X169836000Y-97764452D01*
X169836000Y-97759884D01*
X170344000Y-97759884D01*
X170348475Y-97775123D01*
X170349865Y-97776328D01*
X170357548Y-97777999D01*
X170884669Y-97777999D01*
X170891490Y-97777629D01*
X170942352Y-97772105D01*
X170957604Y-97768479D01*
X171078054Y-97723324D01*
X171093649Y-97714786D01*
X171195724Y-97638285D01*
X171208285Y-97625724D01*
X171284786Y-97523649D01*
X171293324Y-97508054D01*
X171338478Y-97387606D01*
X171342105Y-97372351D01*
X171347631Y-97321486D01*
X171348000Y-97314672D01*
X171348000Y-96792115D01*
X171343525Y-96776876D01*
X171342135Y-96775671D01*
X171334452Y-96774000D01*
X170362115Y-96774000D01*
X170346876Y-96778475D01*
X170345671Y-96779865D01*
X170344000Y-96787548D01*
X170344000Y-97759884D01*
X169836000Y-97759884D01*
X169836000Y-96792115D01*
X169831525Y-96776876D01*
X169830135Y-96775671D01*
X169822452Y-96774000D01*
X168850116Y-96774000D01*
X168834877Y-96778475D01*
X168833672Y-96779865D01*
X168832001Y-96787548D01*
X168832001Y-97314669D01*
X168118406Y-97314669D01*
X168176954Y-97059038D01*
X168178294Y-97050577D01*
X168202031Y-96784616D01*
X168202277Y-96779677D01*
X168202666Y-96742485D01*
X168202523Y-96737519D01*
X168184362Y-96471123D01*
X168183201Y-96462649D01*
X168138726Y-96247885D01*
X168832000Y-96247885D01*
X168836475Y-96263124D01*
X168837865Y-96264329D01*
X168845548Y-96266000D01*
X169817885Y-96266000D01*
X169833124Y-96261525D01*
X169834329Y-96260135D01*
X169836000Y-96252452D01*
X169836000Y-96247885D01*
X170344000Y-96247885D01*
X170348475Y-96263124D01*
X170349865Y-96264329D01*
X170357548Y-96266000D01*
X171329884Y-96266000D01*
X171345123Y-96261525D01*
X171346328Y-96260135D01*
X171347999Y-96252452D01*
X171347999Y-95725331D01*
X171347629Y-95718510D01*
X171342105Y-95667648D01*
X171338479Y-95652396D01*
X171293324Y-95531946D01*
X171284786Y-95516351D01*
X171208285Y-95414276D01*
X171195724Y-95401715D01*
X171093649Y-95325214D01*
X171078054Y-95316676D01*
X170957606Y-95271522D01*
X170942351Y-95267895D01*
X170891486Y-95262369D01*
X170884672Y-95262000D01*
X170362115Y-95262000D01*
X170346876Y-95266475D01*
X170345671Y-95267865D01*
X170344000Y-95275548D01*
X170344000Y-96247885D01*
X169836000Y-96247885D01*
X169836000Y-95280116D01*
X169831525Y-95264877D01*
X169830135Y-95263672D01*
X169822452Y-95262001D01*
X169295331Y-95262001D01*
X169288510Y-95262371D01*
X169237648Y-95267895D01*
X169222396Y-95271521D01*
X169101946Y-95316676D01*
X169086351Y-95325214D01*
X168984276Y-95401715D01*
X168971715Y-95414276D01*
X168895214Y-95516351D01*
X168886676Y-95531946D01*
X168841522Y-95652394D01*
X168837895Y-95667649D01*
X168832369Y-95718514D01*
X168832000Y-95725328D01*
X168832000Y-96247885D01*
X168138726Y-96247885D01*
X168129419Y-96202944D01*
X168127120Y-96194709D01*
X168038588Y-95944705D01*
X168035191Y-95936854D01*
X167913550Y-95701178D01*
X167909122Y-95693866D01*
X167790031Y-95524417D01*
X167779509Y-95516037D01*
X167766121Y-95523089D01*
X166562022Y-96727188D01*
X166554408Y-96741132D01*
X165887694Y-96741132D01*
X165890924Y-96695968D01*
X165919885Y-96650905D01*
X167406604Y-95164186D01*
X167413795Y-95151017D01*
X167396742Y-95127177D01*
X167398074Y-95126224D01*
X167369931Y-95085021D01*
X167367938Y-95014052D01*
X167404631Y-94953273D01*
X167468358Y-94921979D01*
X167500765Y-94920624D01*
X167634514Y-94932326D01*
X167645475Y-94932326D01*
X167853804Y-94914099D01*
X167864599Y-94912196D01*
X168066595Y-94858072D01*
X168076887Y-94854326D01*
X168266416Y-94765947D01*
X168275912Y-94760464D01*
X168317148Y-94731590D01*
X168325523Y-94721112D01*
X168318457Y-94707668D01*
X167652811Y-94042021D01*
X167638868Y-94034408D01*
X167637034Y-94034539D01*
X167630420Y-94038790D01*
X166960820Y-94708391D01*
X166939167Y-94748045D01*
X166936031Y-94762465D01*
X166885832Y-94812670D01*
X166816458Y-94827765D01*
X166790921Y-94823265D01*
X166612592Y-94772467D01*
X166604214Y-94770685D01*
X166341656Y-94733318D01*
X166333111Y-94732691D01*
X166067908Y-94731302D01*
X166059374Y-94731839D01*
X165796433Y-94766456D01*
X165788035Y-94768149D01*
X165532238Y-94838127D01*
X165524143Y-94840946D01*
X165280199Y-94944997D01*
X165272576Y-94948881D01*
X165164206Y-95013739D01*
X165095482Y-95031559D01*
X165028034Y-95009395D01*
X164983276Y-94954284D01*
X164973500Y-94905623D01*
X164973500Y-93675475D01*
X166377674Y-93675475D01*
X166395901Y-93883804D01*
X166397804Y-93894599D01*
X166451928Y-94096595D01*
X166455674Y-94106887D01*
X166544054Y-94296417D01*
X166549534Y-94305907D01*
X166578411Y-94347149D01*
X166588887Y-94355523D01*
X166602334Y-94348455D01*
X167267979Y-93682811D01*
X167274356Y-93671132D01*
X168004408Y-93671132D01*
X168004539Y-93672966D01*
X168008790Y-93679580D01*
X168678391Y-94349180D01*
X168690161Y-94355607D01*
X168702176Y-94346311D01*
X168730466Y-94305907D01*
X168735946Y-94296417D01*
X168824326Y-94106887D01*
X168828072Y-94096595D01*
X168882196Y-93894599D01*
X168884099Y-93883804D01*
X168902326Y-93675475D01*
X168902326Y-93664525D01*
X168884099Y-93456196D01*
X168882196Y-93445401D01*
X168828072Y-93243405D01*
X168824326Y-93233113D01*
X168735946Y-93043583D01*
X168730466Y-93034093D01*
X168701589Y-92992851D01*
X168691113Y-92984477D01*
X168677666Y-92991545D01*
X168012021Y-93657189D01*
X168004408Y-93671132D01*
X167274356Y-93671132D01*
X167275592Y-93668868D01*
X167275461Y-93667034D01*
X167271210Y-93660420D01*
X166601609Y-92990820D01*
X166589839Y-92984393D01*
X166577824Y-92993689D01*
X166549534Y-93034093D01*
X166544054Y-93043583D01*
X166455674Y-93233113D01*
X166451928Y-93243405D01*
X166397804Y-93445401D01*
X166395901Y-93456196D01*
X166377674Y-93664525D01*
X166377674Y-93675475D01*
X164973500Y-93675475D01*
X164973500Y-85435086D01*
X164993502Y-85366965D01*
X165047158Y-85320472D01*
X165117432Y-85310368D01*
X165166456Y-85328348D01*
G37*
G04 #@! TD.AperFunction*
G04 #@! TA.AperFunction,Conductor*
G36*
X194186121Y-87396002D02*
G01*
X194232614Y-87449658D01*
X194244000Y-87502000D01*
X194244000Y-88777000D01*
X194223998Y-88845121D01*
X194170342Y-88891614D01*
X194118000Y-88903000D01*
X194100815Y-88903000D01*
X194085576Y-88907475D01*
X194084371Y-88908865D01*
X194082700Y-88916548D01*
X194082700Y-89262885D01*
X194087175Y-89278124D01*
X194088565Y-89279329D01*
X194096248Y-89281000D01*
X194954885Y-89281000D01*
X194970124Y-89276525D01*
X194971329Y-89275135D01*
X194973000Y-89267452D01*
X194973000Y-89083851D01*
X194972854Y-89079555D01*
X194970560Y-89045917D01*
X194968836Y-89034971D01*
X194928408Y-88872822D01*
X194923724Y-88860089D01*
X194849979Y-88711530D01*
X194845055Y-88703831D01*
X194825202Y-88635666D01*
X194843942Y-88569827D01*
X194927816Y-88433757D01*
X194933963Y-88420576D01*
X194985138Y-88266290D01*
X194988005Y-88252914D01*
X194997672Y-88158562D01*
X194998000Y-88152146D01*
X194998000Y-87892524D01*
X195018002Y-87824403D01*
X195071658Y-87777910D01*
X195141932Y-87767806D01*
X195206512Y-87797300D01*
X195241158Y-87854435D01*
X195243255Y-87853649D01*
X195294385Y-87990038D01*
X195381739Y-88106594D01*
X195498295Y-88193948D01*
X195634684Y-88245078D01*
X195696866Y-88251833D01*
X198755500Y-88251833D01*
X198823621Y-88271835D01*
X198870114Y-88325491D01*
X198881500Y-88377833D01*
X198881500Y-91886432D01*
X198861498Y-91954553D01*
X198807842Y-92001046D01*
X198737568Y-92011150D01*
X198708810Y-92003462D01*
X198536549Y-91934737D01*
X198531180Y-91932595D01*
X198356663Y-91897881D01*
X198337032Y-91893976D01*
X198337031Y-91893976D01*
X198331366Y-91892849D01*
X198325592Y-91892773D01*
X198325588Y-91892773D01*
X198222452Y-91891424D01*
X198127655Y-91890183D01*
X198121958Y-91891162D01*
X198121957Y-91891162D01*
X198102671Y-91894476D01*
X197926870Y-91924684D01*
X197735734Y-91995198D01*
X197730773Y-91998150D01*
X197730772Y-91998150D01*
X197601615Y-92074991D01*
X197560649Y-92099363D01*
X197407478Y-92233690D01*
X197313395Y-92353034D01*
X197255515Y-92394146D01*
X197184595Y-92397440D01*
X197123152Y-92361869D01*
X197113488Y-92350416D01*
X197045758Y-92259715D01*
X197045758Y-92259714D01*
X197042305Y-92255091D01*
X196939029Y-92159623D01*
X196896943Y-92120719D01*
X196896940Y-92120717D01*
X196892703Y-92116800D01*
X196826454Y-92075000D01*
X196725288Y-92011169D01*
X196725283Y-92011167D01*
X196720404Y-92008088D01*
X196531180Y-91932595D01*
X196356663Y-91897881D01*
X196337032Y-91893976D01*
X196337031Y-91893976D01*
X196331366Y-91892849D01*
X196325592Y-91892773D01*
X196325588Y-91892773D01*
X196222452Y-91891424D01*
X196127655Y-91890183D01*
X196121958Y-91891162D01*
X196121957Y-91891162D01*
X196102671Y-91894476D01*
X195926870Y-91924684D01*
X195735734Y-91995198D01*
X195730773Y-91998150D01*
X195730772Y-91998150D01*
X195601615Y-92074991D01*
X195560649Y-92099363D01*
X195407478Y-92233690D01*
X195403907Y-92238220D01*
X195403906Y-92238221D01*
X195297274Y-92373482D01*
X195239392Y-92414595D01*
X195189174Y-92421143D01*
X195161457Y-92419125D01*
X195147449Y-92426762D01*
X194574210Y-93000000D01*
X194304095Y-93270116D01*
X194241783Y-93304141D01*
X194170967Y-93299076D01*
X194125905Y-93270115D01*
X193855790Y-93000000D01*
X193283542Y-92427753D01*
X193271162Y-92420993D01*
X193265196Y-92425459D01*
X193189645Y-92569058D01*
X193185242Y-92579691D01*
X193128281Y-92763132D01*
X193125891Y-92774376D01*
X193103313Y-92965137D01*
X193103012Y-92976638D01*
X193115575Y-93168304D01*
X193117376Y-93179674D01*
X193164657Y-93365843D01*
X193168498Y-93376690D01*
X193248915Y-93551128D01*
X193254666Y-93561089D01*
X193300127Y-93625415D01*
X193323108Y-93692589D01*
X193306124Y-93761524D01*
X193254566Y-93810334D01*
X193184805Y-93823521D01*
X193118989Y-93796899D01*
X193108135Y-93787230D01*
X192440405Y-93119500D01*
X192406379Y-93057188D01*
X192403500Y-93030405D01*
X192403500Y-92058675D01*
X193637788Y-92058675D01*
X193641275Y-92067064D01*
X194202189Y-92627979D01*
X194216132Y-92635592D01*
X194217966Y-92635461D01*
X194224580Y-92631210D01*
X194785285Y-92070504D01*
X194792042Y-92058129D01*
X194786012Y-92050073D01*
X194725061Y-92011616D01*
X194714813Y-92006395D01*
X194536401Y-91935216D01*
X194525373Y-91931949D01*
X194336982Y-91894476D01*
X194325535Y-91893273D01*
X194133477Y-91890759D01*
X194121997Y-91891662D01*
X193932697Y-91924190D01*
X193921577Y-91927170D01*
X193741365Y-91993653D01*
X193730991Y-91998601D01*
X193647385Y-92048342D01*
X193637788Y-92058675D01*
X192403500Y-92058675D01*
X192403500Y-91358765D01*
X192404027Y-91347582D01*
X192405702Y-91340089D01*
X192403562Y-91271998D01*
X192403500Y-91268041D01*
X192403500Y-91240142D01*
X192402996Y-91236151D01*
X192402063Y-91224309D01*
X192401685Y-91212262D01*
X192400674Y-91180109D01*
X192398462Y-91172495D01*
X192398461Y-91172490D01*
X192395023Y-91160657D01*
X192391012Y-91141293D01*
X192389467Y-91129062D01*
X192388474Y-91121201D01*
X192385557Y-91113834D01*
X192385556Y-91113829D01*
X192372198Y-91080090D01*
X192368354Y-91068863D01*
X192358230Y-91034020D01*
X192356018Y-91026405D01*
X192345707Y-91008970D01*
X192337012Y-90991222D01*
X192329552Y-90972381D01*
X192324889Y-90965963D01*
X192324887Y-90965959D01*
X192308613Y-90943559D01*
X192284755Y-90876691D01*
X192300837Y-90807540D01*
X192351752Y-90758061D01*
X192410550Y-90743500D01*
X192640948Y-90743500D01*
X192643084Y-90743354D01*
X192643096Y-90743354D01*
X192672795Y-90741329D01*
X192682301Y-90740681D01*
X192856574Y-90697229D01*
X192984538Y-90633707D01*
X193054448Y-90621335D01*
X193096586Y-90633707D01*
X193217489Y-90693724D01*
X193230222Y-90698408D01*
X193392371Y-90738836D01*
X193403317Y-90740560D01*
X193436955Y-90742854D01*
X193441250Y-90743000D01*
X193556585Y-90743000D01*
X193571824Y-90738525D01*
X193573029Y-90737135D01*
X193574700Y-90729452D01*
X193574700Y-90724885D01*
X194082700Y-90724885D01*
X194087175Y-90740124D01*
X194088565Y-90741329D01*
X194096248Y-90743000D01*
X194216150Y-90743000D01*
X194220445Y-90742854D01*
X194254083Y-90740560D01*
X194265029Y-90738836D01*
X194427178Y-90698408D01*
X194439911Y-90693724D01*
X194588471Y-90619979D01*
X194599896Y-90612672D01*
X194729159Y-90508742D01*
X194738742Y-90499159D01*
X194842672Y-90369896D01*
X194849979Y-90358471D01*
X194923724Y-90209911D01*
X194928408Y-90197178D01*
X194968836Y-90035029D01*
X194970560Y-90024083D01*
X194972854Y-89990445D01*
X194973000Y-89986150D01*
X194973000Y-89807115D01*
X194968525Y-89791876D01*
X194967135Y-89790671D01*
X194959452Y-89789000D01*
X194100815Y-89789000D01*
X194085576Y-89793475D01*
X194084371Y-89794865D01*
X194082700Y-89802548D01*
X194082700Y-90724885D01*
X193574700Y-90724885D01*
X193574700Y-88413000D01*
X193594702Y-88344879D01*
X193648358Y-88298386D01*
X193700700Y-88287000D01*
X193717885Y-88287000D01*
X193733124Y-88282525D01*
X193734329Y-88281135D01*
X193736000Y-88273452D01*
X193736000Y-87502000D01*
X193756002Y-87433879D01*
X193809658Y-87387386D01*
X193862000Y-87376000D01*
X194118000Y-87376000D01*
X194186121Y-87396002D01*
G37*
G04 #@! TD.AperFunction*
G04 #@! TA.AperFunction,Conductor*
G36*
X178414121Y-87902502D02*
G01*
X178460614Y-87956158D01*
X178472000Y-88008500D01*
X178472000Y-88010385D01*
X178476475Y-88025624D01*
X178477865Y-88026829D01*
X178485548Y-88028500D01*
X179833000Y-88028500D01*
X179901121Y-88048502D01*
X179947614Y-88102158D01*
X179959000Y-88154500D01*
X179959000Y-88410500D01*
X179938998Y-88478621D01*
X179885342Y-88525114D01*
X179833000Y-88536500D01*
X178490116Y-88536500D01*
X178474877Y-88540975D01*
X178473672Y-88542365D01*
X178472001Y-88550048D01*
X178472001Y-88579595D01*
X178472338Y-88586114D01*
X178482257Y-88681706D01*
X178485149Y-88695100D01*
X178536588Y-88849284D01*
X178542761Y-88862462D01*
X178628063Y-89000307D01*
X178637099Y-89011708D01*
X178751828Y-89126238D01*
X178760762Y-89133294D01*
X178801823Y-89191212D01*
X178805053Y-89262135D01*
X178769426Y-89323546D01*
X178761593Y-89330346D01*
X178755652Y-89334022D01*
X178630695Y-89459197D01*
X178626855Y-89465427D01*
X178626854Y-89465428D01*
X178542623Y-89602076D01*
X178537885Y-89609762D01*
X178516997Y-89672738D01*
X178499242Y-89726269D01*
X178482203Y-89777639D01*
X178481503Y-89784475D01*
X178481502Y-89784478D01*
X178479183Y-89807115D01*
X178471500Y-89882100D01*
X178471500Y-90482900D01*
X178471837Y-90486146D01*
X178471837Y-90486150D01*
X178478744Y-90552715D01*
X178482474Y-90588666D01*
X178538450Y-90756446D01*
X178631522Y-90906848D01*
X178636704Y-90912021D01*
X178641251Y-90917758D01*
X178639738Y-90918957D01*
X178669106Y-90972630D01*
X178664101Y-91043450D01*
X178653270Y-91065632D01*
X178562885Y-91212262D01*
X178554961Y-91236152D01*
X178517220Y-91349940D01*
X178507203Y-91380139D01*
X178496500Y-91484600D01*
X178496500Y-92110400D01*
X178496837Y-92113646D01*
X178496837Y-92113650D01*
X178506457Y-92206362D01*
X178507474Y-92216166D01*
X178509655Y-92222702D01*
X178509655Y-92222704D01*
X178517600Y-92246517D01*
X178563450Y-92383946D01*
X178656522Y-92534348D01*
X178741209Y-92618887D01*
X178743109Y-92620784D01*
X178777188Y-92683066D01*
X178772185Y-92753886D01*
X178743264Y-92798975D01*
X178655695Y-92886697D01*
X178651855Y-92892927D01*
X178651854Y-92892928D01*
X178614137Y-92954116D01*
X178561364Y-93001610D01*
X178506877Y-93014000D01*
X177782094Y-93014000D01*
X177713973Y-92993998D01*
X177692999Y-92977095D01*
X177286299Y-92570395D01*
X177252273Y-92508083D01*
X177254836Y-92444671D01*
X177259977Y-92427753D01*
X177276408Y-92373671D01*
X177306640Y-92144041D01*
X177307462Y-92110400D01*
X177308245Y-92078365D01*
X177308245Y-92078361D01*
X177308327Y-92075000D01*
X177301012Y-91986025D01*
X177289773Y-91849318D01*
X177289772Y-91849312D01*
X177289349Y-91844167D01*
X177232925Y-91619533D01*
X177227502Y-91607061D01*
X177142630Y-91411868D01*
X177142628Y-91411865D01*
X177140570Y-91407131D01*
X177014764Y-91212665D01*
X177011282Y-91208838D01*
X176924848Y-91113848D01*
X176893796Y-91050002D01*
X176902192Y-90979504D01*
X176947369Y-90924736D01*
X176973812Y-90911067D01*
X177033297Y-90888767D01*
X177041705Y-90885615D01*
X177158261Y-90798261D01*
X177245615Y-90681705D01*
X177296745Y-90545316D01*
X177303500Y-90483134D01*
X177303500Y-88586866D01*
X177296745Y-88524684D01*
X177245615Y-88388295D01*
X177158261Y-88271739D01*
X177041705Y-88184385D01*
X176905316Y-88133255D01*
X176897466Y-88132402D01*
X176891914Y-88131082D01*
X176830268Y-88095865D01*
X176797448Y-88032910D01*
X176803874Y-87962204D01*
X176847507Y-87906198D01*
X176921061Y-87882500D01*
X178346000Y-87882500D01*
X178414121Y-87902502D01*
G37*
G04 #@! TD.AperFunction*
G04 #@! TA.AperFunction,Conductor*
G36*
X165166456Y-66913348D02*
G01*
X165235271Y-66956515D01*
X165242807Y-66960556D01*
X165484520Y-67069694D01*
X165492551Y-67072680D01*
X165746832Y-67148002D01*
X165755184Y-67149869D01*
X166017340Y-67189984D01*
X166025874Y-67190700D01*
X166291045Y-67194867D01*
X166299596Y-67194418D01*
X166562883Y-67162557D01*
X166571287Y-67160954D01*
X166640333Y-67142841D01*
X166711300Y-67144903D01*
X166769886Y-67185004D01*
X166797492Y-67250414D01*
X166785352Y-67320365D01*
X166761401Y-67353812D01*
X166672251Y-67442962D01*
X166669094Y-67447470D01*
X166669092Y-67447473D01*
X166578013Y-67577548D01*
X166545944Y-67623347D01*
X166543621Y-67628329D01*
X166543618Y-67628334D01*
X166496415Y-67729562D01*
X166452880Y-67822924D01*
X166395885Y-68035629D01*
X166376693Y-68255000D01*
X166395885Y-68474371D01*
X166452880Y-68687076D01*
X166459266Y-68700771D01*
X166543618Y-68881666D01*
X166543621Y-68881671D01*
X166545944Y-68886653D01*
X166549100Y-68891160D01*
X166549101Y-68891162D01*
X166620618Y-68993298D01*
X166672251Y-69067038D01*
X166827962Y-69222749D01*
X167008346Y-69349056D01*
X167013331Y-69351380D01*
X167013337Y-69351384D01*
X167097877Y-69390805D01*
X167151163Y-69437722D01*
X167170624Y-69505999D01*
X167150082Y-69573959D01*
X167097878Y-69619195D01*
X167013334Y-69658618D01*
X167013329Y-69658621D01*
X167008347Y-69660944D01*
X167003840Y-69664100D01*
X167003838Y-69664101D01*
X166832473Y-69784092D01*
X166832470Y-69784094D01*
X166827962Y-69787251D01*
X166672251Y-69942962D01*
X166669094Y-69947470D01*
X166669092Y-69947473D01*
X166551097Y-70115988D01*
X166545944Y-70123347D01*
X166543621Y-70128329D01*
X166543618Y-70128334D01*
X166508835Y-70202928D01*
X166452880Y-70322924D01*
X166395885Y-70535629D01*
X166376693Y-70755000D01*
X166395885Y-70974371D01*
X166452880Y-71187076D01*
X166492830Y-71272750D01*
X166543618Y-71381666D01*
X166543621Y-71381671D01*
X166545944Y-71386653D01*
X166549100Y-71391160D01*
X166549101Y-71391162D01*
X166651012Y-71536705D01*
X166672251Y-71567038D01*
X166771118Y-71665905D01*
X166805144Y-71728217D01*
X166800079Y-71799032D01*
X166771118Y-71844095D01*
X166672251Y-71942962D01*
X166669094Y-71947470D01*
X166669092Y-71947473D01*
X166595542Y-72052514D01*
X166545944Y-72123347D01*
X166543621Y-72128329D01*
X166543618Y-72128334D01*
X166506930Y-72207012D01*
X166452880Y-72322924D01*
X166395885Y-72535629D01*
X166376693Y-72755000D01*
X166395885Y-72974371D01*
X166452880Y-73187076D01*
X166486251Y-73258640D01*
X166543618Y-73381666D01*
X166543621Y-73381671D01*
X166545944Y-73386653D01*
X166549100Y-73391160D01*
X166549101Y-73391162D01*
X166668277Y-73561362D01*
X166672251Y-73567038D01*
X166827962Y-73722749D01*
X166832471Y-73725906D01*
X166832473Y-73725908D01*
X166894872Y-73769600D01*
X167008346Y-73849056D01*
X167013328Y-73851379D01*
X167013333Y-73851382D01*
X167098469Y-73891081D01*
X167151754Y-73937998D01*
X167171215Y-74006276D01*
X167150673Y-74074235D01*
X167098469Y-74119471D01*
X167013583Y-74159054D01*
X167004093Y-74164534D01*
X166962851Y-74193411D01*
X166954477Y-74203887D01*
X166961545Y-74217334D01*
X167640000Y-74895790D01*
X168678388Y-75934177D01*
X168690162Y-75940606D01*
X168702176Y-75931310D01*
X168730466Y-75890907D01*
X168735946Y-75881417D01*
X168824326Y-75691887D01*
X168828072Y-75681595D01*
X168882196Y-75479599D01*
X168884099Y-75468804D01*
X168902326Y-75260475D01*
X168902326Y-75249525D01*
X168884099Y-75041196D01*
X168882196Y-75030401D01*
X168828072Y-74828405D01*
X168824326Y-74818113D01*
X168735944Y-74628579D01*
X168730470Y-74619099D01*
X168641314Y-74491771D01*
X168618626Y-74424497D01*
X168635911Y-74355636D01*
X168687681Y-74307052D01*
X168744527Y-74293500D01*
X169445803Y-74293500D01*
X169513924Y-74313502D01*
X169560417Y-74367158D01*
X169565326Y-74379623D01*
X169580298Y-74424497D01*
X169583450Y-74433946D01*
X169587301Y-74440170D01*
X169587302Y-74440171D01*
X169633136Y-74514237D01*
X169676522Y-74584348D01*
X169801697Y-74709305D01*
X169807927Y-74713145D01*
X169807928Y-74713146D01*
X169945090Y-74797694D01*
X169952262Y-74802115D01*
X170012934Y-74822239D01*
X170113611Y-74855632D01*
X170113613Y-74855632D01*
X170120139Y-74857797D01*
X170126975Y-74858497D01*
X170126978Y-74858498D01*
X170170031Y-74862909D01*
X170224600Y-74868500D01*
X170850400Y-74868500D01*
X170853646Y-74868163D01*
X170853650Y-74868163D01*
X170949308Y-74858238D01*
X170949312Y-74858237D01*
X170956166Y-74857526D01*
X170962702Y-74855345D01*
X170962704Y-74855345D01*
X171113326Y-74805093D01*
X171123946Y-74801550D01*
X171274348Y-74708478D01*
X171360784Y-74621891D01*
X171423066Y-74587812D01*
X171493886Y-74592815D01*
X171538975Y-74621736D01*
X171611921Y-74694555D01*
X171626697Y-74709305D01*
X171632927Y-74713145D01*
X171632928Y-74713146D01*
X171770090Y-74797694D01*
X171777262Y-74802115D01*
X171837934Y-74822239D01*
X171938611Y-74855632D01*
X171938613Y-74855632D01*
X171945139Y-74857797D01*
X171951975Y-74858497D01*
X171951978Y-74858498D01*
X171995031Y-74862909D01*
X172049600Y-74868500D01*
X172675400Y-74868500D01*
X172678646Y-74868163D01*
X172678650Y-74868163D01*
X172774308Y-74858238D01*
X172774312Y-74858237D01*
X172781166Y-74857526D01*
X172787702Y-74855345D01*
X172787704Y-74855345D01*
X172938326Y-74805093D01*
X172948946Y-74801550D01*
X173099348Y-74708478D01*
X173107592Y-74700219D01*
X173110210Y-74698787D01*
X173110258Y-74698749D01*
X173110265Y-74698757D01*
X173169876Y-74666141D01*
X173240696Y-74671146D01*
X173297568Y-74713644D01*
X173304540Y-74723969D01*
X173341742Y-74785398D01*
X173341745Y-74785401D01*
X173345392Y-74791424D01*
X173350281Y-74796487D01*
X173350282Y-74796488D01*
X173404317Y-74852442D01*
X173471394Y-74921902D01*
X173623171Y-75021222D01*
X173629775Y-75023678D01*
X173629777Y-75023679D01*
X173786570Y-75081990D01*
X173786572Y-75081990D01*
X173793180Y-75084448D01*
X173877007Y-75095633D01*
X173965992Y-75107507D01*
X173965996Y-75107507D01*
X173972973Y-75108438D01*
X173979984Y-75107800D01*
X173979988Y-75107800D01*
X174125681Y-75094540D01*
X174153612Y-75091998D01*
X174160314Y-75089820D01*
X174160316Y-75089820D01*
X174319421Y-75038124D01*
X174319424Y-75038123D01*
X174326120Y-75035947D01*
X174454240Y-74959572D01*
X174475872Y-74946677D01*
X174475874Y-74946676D01*
X174481924Y-74943069D01*
X174613278Y-74817982D01*
X174658938Y-74749258D01*
X174713295Y-74703587D01*
X174783715Y-74694555D01*
X174844880Y-74725724D01*
X174846083Y-74724201D01*
X174863240Y-74737751D01*
X175001243Y-74822816D01*
X175014424Y-74828963D01*
X175168710Y-74880138D01*
X175182086Y-74883005D01*
X175276438Y-74892672D01*
X175282854Y-74893000D01*
X175307885Y-74893000D01*
X175323124Y-74888525D01*
X175324329Y-74887135D01*
X175326000Y-74879452D01*
X175326000Y-73532000D01*
X175346002Y-73463879D01*
X175399658Y-73417386D01*
X175452000Y-73406000D01*
X175708000Y-73406000D01*
X175776121Y-73426002D01*
X175822614Y-73479658D01*
X175834000Y-73532000D01*
X175834000Y-74874884D01*
X175838475Y-74890123D01*
X175839865Y-74891328D01*
X175847548Y-74892999D01*
X175877095Y-74892999D01*
X175883614Y-74892662D01*
X175979206Y-74882743D01*
X175992600Y-74879851D01*
X176146784Y-74828412D01*
X176159962Y-74822239D01*
X176297807Y-74736937D01*
X176309208Y-74727901D01*
X176423738Y-74613172D01*
X176430794Y-74604238D01*
X176488712Y-74563177D01*
X176559635Y-74559947D01*
X176621046Y-74595574D01*
X176627846Y-74603407D01*
X176631522Y-74609348D01*
X176756697Y-74734305D01*
X176762927Y-74738145D01*
X176762928Y-74738146D01*
X176900288Y-74822816D01*
X176907262Y-74827115D01*
X176983621Y-74852442D01*
X177068611Y-74880632D01*
X177068613Y-74880632D01*
X177075139Y-74882797D01*
X177081975Y-74883497D01*
X177081978Y-74883498D01*
X177125031Y-74887909D01*
X177179600Y-74893500D01*
X177780400Y-74893500D01*
X177783646Y-74893163D01*
X177783650Y-74893163D01*
X177879308Y-74883238D01*
X177879312Y-74883237D01*
X177886166Y-74882526D01*
X177892702Y-74880345D01*
X177892704Y-74880345D01*
X178045305Y-74829433D01*
X178053946Y-74826550D01*
X178121636Y-74784662D01*
X178167682Y-74756168D01*
X178236134Y-74737330D01*
X178303904Y-74758491D01*
X178315563Y-74767286D01*
X178325035Y-74775333D01*
X178331555Y-74778662D01*
X178336602Y-74782028D01*
X178341726Y-74785193D01*
X178347467Y-74789735D01*
X178354098Y-74792834D01*
X178354101Y-74792836D01*
X178401473Y-74814976D01*
X178407906Y-74817982D01*
X178413580Y-74820634D01*
X178417526Y-74822562D01*
X178482558Y-74855769D01*
X178489664Y-74857508D01*
X178495314Y-74859609D01*
X178501071Y-74861524D01*
X178507700Y-74864622D01*
X178579185Y-74879491D01*
X178583451Y-74880457D01*
X178654360Y-74897808D01*
X178659962Y-74898156D01*
X178659965Y-74898156D01*
X178665514Y-74898500D01*
X178665512Y-74898535D01*
X178669484Y-74898775D01*
X178673705Y-74899152D01*
X178680865Y-74900641D01*
X178758292Y-74898546D01*
X178761700Y-74898500D01*
X178900246Y-74898500D01*
X178968367Y-74918502D01*
X179014860Y-74972158D01*
X179018228Y-74980270D01*
X179039385Y-75036705D01*
X179126739Y-75153261D01*
X179243295Y-75240615D01*
X179379684Y-75291745D01*
X179441866Y-75298500D01*
X179455500Y-75298500D01*
X179523621Y-75318502D01*
X179570114Y-75372158D01*
X179581500Y-75424500D01*
X179581500Y-76645405D01*
X179561498Y-76713526D01*
X179544595Y-76734500D01*
X179352747Y-76926348D01*
X179344461Y-76933888D01*
X179337982Y-76938000D01*
X179332557Y-76943777D01*
X179291357Y-76987651D01*
X179288602Y-76990493D01*
X179268865Y-77010230D01*
X179266385Y-77013427D01*
X179258682Y-77022447D01*
X179228414Y-77054679D01*
X179224595Y-77061625D01*
X179224593Y-77061628D01*
X179218652Y-77072434D01*
X179207801Y-77088953D01*
X179195386Y-77104959D01*
X179192241Y-77112228D01*
X179192238Y-77112232D01*
X179177826Y-77145537D01*
X179172609Y-77156187D01*
X179151305Y-77194940D01*
X179149334Y-77202615D01*
X179149334Y-77202616D01*
X179146267Y-77214562D01*
X179139863Y-77233266D01*
X179131819Y-77251855D01*
X179130580Y-77259678D01*
X179130577Y-77259688D01*
X179124901Y-77295524D01*
X179122495Y-77307144D01*
X179113472Y-77342289D01*
X179111500Y-77349970D01*
X179111500Y-77370224D01*
X179109949Y-77389934D01*
X179108010Y-77402177D01*
X179077598Y-77466330D01*
X179017330Y-77503857D01*
X179000014Y-77507388D01*
X178892676Y-77521519D01*
X178885049Y-77524678D01*
X178885046Y-77524679D01*
X178851600Y-77538533D01*
X178750732Y-77580314D01*
X178628843Y-77673843D01*
X178623817Y-77680393D01*
X178623816Y-77680394D01*
X178606134Y-77703438D01*
X178535314Y-77795733D01*
X178476519Y-77937676D01*
X178461500Y-78051756D01*
X178461500Y-78278244D01*
X178462038Y-78282330D01*
X178462038Y-78282331D01*
X178476519Y-78392324D01*
X178474974Y-78392527D01*
X178474974Y-78437473D01*
X178476519Y-78437676D01*
X178468130Y-78501400D01*
X178461500Y-78551756D01*
X178461500Y-78778244D01*
X178462038Y-78782330D01*
X178462038Y-78782331D01*
X178476519Y-78892324D01*
X178474974Y-78892527D01*
X178474974Y-78937473D01*
X178476519Y-78937676D01*
X178461500Y-79051756D01*
X178461500Y-79278244D01*
X178462038Y-79282330D01*
X178462038Y-79282331D01*
X178476088Y-79389054D01*
X178465148Y-79459203D01*
X178418020Y-79512301D01*
X178351166Y-79531500D01*
X178269595Y-79531500D01*
X178201474Y-79511498D01*
X178180500Y-79494595D01*
X177800405Y-79114500D01*
X177766379Y-79052188D01*
X177763500Y-79025405D01*
X177763500Y-78452100D01*
X177763163Y-78448850D01*
X177753238Y-78353192D01*
X177753237Y-78353188D01*
X177752526Y-78346334D01*
X177746238Y-78327485D01*
X177698868Y-78185502D01*
X177696550Y-78178554D01*
X177603478Y-78028152D01*
X177478303Y-77903195D01*
X177473765Y-77900398D01*
X177433176Y-77843147D01*
X177429946Y-77772224D01*
X177465572Y-77710813D01*
X177474068Y-77703438D01*
X177484207Y-77695402D01*
X177598739Y-77580671D01*
X177607751Y-77569260D01*
X177692816Y-77431257D01*
X177698963Y-77418076D01*
X177750138Y-77263790D01*
X177753005Y-77250414D01*
X177762672Y-77156062D01*
X177763000Y-77149646D01*
X177763000Y-77124615D01*
X177758525Y-77109376D01*
X177757135Y-77108171D01*
X177749452Y-77106500D01*
X175315116Y-77106500D01*
X175299877Y-77110975D01*
X175298672Y-77112365D01*
X175297001Y-77120048D01*
X175297001Y-77149595D01*
X175297338Y-77156114D01*
X175307257Y-77251706D01*
X175310149Y-77265100D01*
X175361588Y-77419284D01*
X175367761Y-77432462D01*
X175453063Y-77570307D01*
X175462099Y-77581708D01*
X175576828Y-77696238D01*
X175585762Y-77703294D01*
X175626823Y-77761212D01*
X175630053Y-77832135D01*
X175594426Y-77893546D01*
X175586593Y-77900346D01*
X175580652Y-77904022D01*
X175455695Y-78029197D01*
X175444958Y-78046616D01*
X175392187Y-78094109D01*
X175337698Y-78106500D01*
X173878354Y-78106500D01*
X173810233Y-78086498D01*
X173775141Y-78052771D01*
X173774431Y-78051756D01*
X173704067Y-77951266D01*
X173690908Y-77932473D01*
X173690906Y-77932470D01*
X173687749Y-77927962D01*
X173532038Y-77772251D01*
X173351654Y-77645944D01*
X173152076Y-77552880D01*
X172939371Y-77495885D01*
X172720000Y-77476693D01*
X172500629Y-77495885D01*
X172287924Y-77552880D01*
X172228326Y-77580671D01*
X172093334Y-77643618D01*
X172093329Y-77643621D01*
X172088347Y-77645944D01*
X172083840Y-77649100D01*
X172083838Y-77649101D01*
X171912473Y-77769092D01*
X171912470Y-77769094D01*
X171907962Y-77772251D01*
X171752251Y-77927962D01*
X171749094Y-77932470D01*
X171749092Y-77932473D01*
X171635173Y-78095166D01*
X171625944Y-78108347D01*
X171623621Y-78113329D01*
X171623618Y-78113334D01*
X171596111Y-78172324D01*
X171532880Y-78307924D01*
X171475885Y-78520629D01*
X171456693Y-78740000D01*
X171475885Y-78959371D01*
X171532880Y-79172076D01*
X171560077Y-79230401D01*
X171623618Y-79366666D01*
X171623621Y-79366671D01*
X171625944Y-79371653D01*
X171629100Y-79376160D01*
X171629101Y-79376162D01*
X171743470Y-79539497D01*
X171752251Y-79552038D01*
X171907962Y-79707749D01*
X171912471Y-79710906D01*
X171912473Y-79710908D01*
X171978673Y-79757262D01*
X172088346Y-79834056D01*
X172287924Y-79927120D01*
X172500629Y-79984115D01*
X172720000Y-80003307D01*
X172939371Y-79984115D01*
X173152076Y-79927120D01*
X173351654Y-79834056D01*
X173461327Y-79757262D01*
X173527527Y-79710908D01*
X173527529Y-79710906D01*
X173532038Y-79707749D01*
X173687749Y-79552038D01*
X173696531Y-79539497D01*
X173767826Y-79437676D01*
X173775142Y-79427228D01*
X173830598Y-79382901D01*
X173878354Y-79373500D01*
X175322366Y-79373500D01*
X175390487Y-79393502D01*
X175429510Y-79433197D01*
X175455256Y-79474802D01*
X175474094Y-79543254D01*
X175455372Y-79607221D01*
X175395808Y-79703852D01*
X175362885Y-79757262D01*
X175360581Y-79764209D01*
X175316211Y-79897982D01*
X175307203Y-79925139D01*
X175296500Y-80029600D01*
X175296500Y-80095406D01*
X175276498Y-80163527D01*
X175259595Y-80184501D01*
X173092423Y-82351672D01*
X173030111Y-82385698D01*
X172970717Y-82384284D01*
X172944685Y-82377309D01*
X172944686Y-82377309D01*
X172939371Y-82375885D01*
X172720000Y-82356693D01*
X172500629Y-82375885D01*
X172287924Y-82432880D01*
X172235718Y-82457224D01*
X172093334Y-82523618D01*
X172093329Y-82523621D01*
X172088347Y-82525944D01*
X172083840Y-82529100D01*
X172083838Y-82529101D01*
X171912473Y-82649092D01*
X171912470Y-82649094D01*
X171907962Y-82652251D01*
X171752251Y-82807962D01*
X171749094Y-82812470D01*
X171749092Y-82812473D01*
X171650848Y-82952780D01*
X171625944Y-82988347D01*
X171623621Y-82993329D01*
X171623618Y-82993334D01*
X171609344Y-83023946D01*
X171532880Y-83187924D01*
X171475885Y-83400629D01*
X171456693Y-83620000D01*
X171475885Y-83839371D01*
X171532880Y-84052076D01*
X171543592Y-84075048D01*
X171623618Y-84246666D01*
X171623621Y-84246671D01*
X171625944Y-84251653D01*
X171629100Y-84256160D01*
X171629101Y-84256162D01*
X171721039Y-84387462D01*
X171752251Y-84432038D01*
X171907962Y-84587749D01*
X171912471Y-84590906D01*
X171912473Y-84590908D01*
X171949985Y-84617174D01*
X172088346Y-84714056D01*
X172287924Y-84807120D01*
X172500629Y-84864115D01*
X172720000Y-84883307D01*
X172939371Y-84864115D01*
X173152076Y-84807120D01*
X173351654Y-84714056D01*
X173490015Y-84617174D01*
X173527527Y-84590908D01*
X173527529Y-84590906D01*
X173532038Y-84587749D01*
X173687749Y-84432038D01*
X173718962Y-84387462D01*
X173810899Y-84256162D01*
X173810900Y-84256160D01*
X173814056Y-84251653D01*
X173816379Y-84246671D01*
X173816382Y-84246666D01*
X173896408Y-84075048D01*
X173907120Y-84052076D01*
X173964115Y-83839371D01*
X173983307Y-83620000D01*
X173975904Y-83535385D01*
X175297000Y-83535385D01*
X175301475Y-83550624D01*
X175302865Y-83551829D01*
X175310548Y-83553500D01*
X176257885Y-83553500D01*
X176273124Y-83549025D01*
X176274329Y-83547635D01*
X176276000Y-83539952D01*
X176276000Y-82502115D01*
X176271525Y-82486876D01*
X176270135Y-82485671D01*
X176262452Y-82484000D01*
X175315116Y-82484000D01*
X175299877Y-82488475D01*
X175298672Y-82489865D01*
X175297001Y-82497548D01*
X175297001Y-82527095D01*
X175297338Y-82533614D01*
X175307257Y-82629206D01*
X175310149Y-82642600D01*
X175361588Y-82796784D01*
X175367761Y-82809962D01*
X175455844Y-82952301D01*
X175474682Y-83020753D01*
X175455960Y-83084720D01*
X175367184Y-83228743D01*
X175361037Y-83241924D01*
X175309862Y-83396210D01*
X175306995Y-83409586D01*
X175297328Y-83503938D01*
X175297000Y-83510355D01*
X175297000Y-83535385D01*
X173975904Y-83535385D01*
X173964115Y-83400629D01*
X173955716Y-83369283D01*
X173957406Y-83298306D01*
X173988328Y-83247577D01*
X175223000Y-82012905D01*
X175285312Y-81978879D01*
X175312095Y-81976000D01*
X177744884Y-81976000D01*
X177760123Y-81971525D01*
X177761328Y-81970135D01*
X177762999Y-81962452D01*
X177762999Y-81932905D01*
X177762662Y-81926386D01*
X177752743Y-81830794D01*
X177749851Y-81817400D01*
X177698412Y-81663216D01*
X177692239Y-81650038D01*
X177606937Y-81512192D01*
X177599464Y-81502764D01*
X177572827Y-81436953D01*
X177585998Y-81367189D01*
X177634796Y-81315621D01*
X177698210Y-81298500D01*
X178351166Y-81298500D01*
X178419287Y-81318502D01*
X178465780Y-81372158D01*
X178476088Y-81440946D01*
X178464167Y-81531500D01*
X178461500Y-81551756D01*
X178461500Y-81778244D01*
X178462038Y-81782330D01*
X178462038Y-81782331D01*
X178476519Y-81892324D01*
X178474974Y-81892527D01*
X178474974Y-81937473D01*
X178476519Y-81937676D01*
X178471474Y-81976000D01*
X178461500Y-82051756D01*
X178461500Y-82278244D01*
X178462038Y-82282330D01*
X178462038Y-82282331D01*
X178476519Y-82392324D01*
X178474974Y-82392527D01*
X178474974Y-82437473D01*
X178476519Y-82437676D01*
X178463465Y-82536834D01*
X178461500Y-82551756D01*
X178461500Y-82778244D01*
X178462038Y-82782330D01*
X178462038Y-82782331D01*
X178476519Y-82892324D01*
X178474974Y-82892527D01*
X178474974Y-82937473D01*
X178476519Y-82937676D01*
X178461500Y-83051756D01*
X178461500Y-83278244D01*
X178462038Y-83282330D01*
X178462038Y-83282331D01*
X178476088Y-83389054D01*
X178465148Y-83459203D01*
X178418020Y-83512301D01*
X178351166Y-83531500D01*
X178138768Y-83531500D01*
X178127585Y-83530973D01*
X178120092Y-83529298D01*
X178112166Y-83529547D01*
X178112165Y-83529547D01*
X178052002Y-83531438D01*
X178048044Y-83531500D01*
X178020144Y-83531500D01*
X178016154Y-83532004D01*
X178004320Y-83532936D01*
X177960111Y-83534326D01*
X177952497Y-83536538D01*
X177952492Y-83536539D01*
X177940659Y-83539977D01*
X177921296Y-83543988D01*
X177901203Y-83546526D01*
X177900925Y-83544326D01*
X177841307Y-83542289D01*
X177782926Y-83501888D01*
X177755585Y-83435680D01*
X177752743Y-83408293D01*
X177749851Y-83394900D01*
X177698412Y-83240716D01*
X177692239Y-83227538D01*
X177604156Y-83085199D01*
X177585318Y-83016747D01*
X177604040Y-82952780D01*
X177692816Y-82808757D01*
X177698963Y-82795576D01*
X177750138Y-82641290D01*
X177753005Y-82627914D01*
X177762672Y-82533562D01*
X177763000Y-82527146D01*
X177763000Y-82502115D01*
X177758525Y-82486876D01*
X177757135Y-82485671D01*
X177749452Y-82484000D01*
X176802115Y-82484000D01*
X176786876Y-82488475D01*
X176785671Y-82489865D01*
X176784000Y-82497548D01*
X176784000Y-83935500D01*
X176763998Y-84003621D01*
X176710342Y-84050114D01*
X176658000Y-84061500D01*
X175315116Y-84061500D01*
X175299877Y-84065975D01*
X175298672Y-84067365D01*
X175297001Y-84075048D01*
X175297001Y-84104595D01*
X175297338Y-84111114D01*
X175307257Y-84206706D01*
X175310149Y-84220100D01*
X175361588Y-84374284D01*
X175367761Y-84387462D01*
X175453063Y-84525307D01*
X175462099Y-84536708D01*
X175576828Y-84651238D01*
X175585762Y-84658294D01*
X175626823Y-84716212D01*
X175630053Y-84787135D01*
X175594426Y-84848546D01*
X175586593Y-84855346D01*
X175580652Y-84859022D01*
X175455695Y-84984197D01*
X175451855Y-84990427D01*
X175451854Y-84990428D01*
X175394392Y-85083649D01*
X175362885Y-85134762D01*
X175346522Y-85184094D01*
X175312574Y-85286447D01*
X175307203Y-85302639D01*
X175296500Y-85407100D01*
X175296500Y-85918000D01*
X175276498Y-85986121D01*
X175222842Y-86032614D01*
X175170500Y-86044000D01*
X174918513Y-86044000D01*
X174907329Y-86043473D01*
X174899841Y-86041799D01*
X174891918Y-86042048D01*
X174831783Y-86043938D01*
X174827825Y-86044000D01*
X174799894Y-86044000D01*
X174795979Y-86044495D01*
X174795975Y-86044495D01*
X174795917Y-86044503D01*
X174795888Y-86044506D01*
X174784046Y-86045439D01*
X174739860Y-86046827D01*
X174722494Y-86051872D01*
X174720408Y-86052478D01*
X174701056Y-86056486D01*
X174688818Y-86058032D01*
X174688816Y-86058033D01*
X174680953Y-86059026D01*
X174639836Y-86075306D01*
X174628635Y-86079141D01*
X174586156Y-86091482D01*
X174579337Y-86095515D01*
X174579332Y-86095517D01*
X174568721Y-86101793D01*
X174550971Y-86110490D01*
X174532133Y-86117948D01*
X174525717Y-86122609D01*
X174525716Y-86122610D01*
X174496375Y-86143928D01*
X174486451Y-86150447D01*
X174455210Y-86168922D01*
X174455205Y-86168926D01*
X174448387Y-86172958D01*
X174434063Y-86187282D01*
X174419031Y-86200121D01*
X174402643Y-86212028D01*
X174391303Y-86225736D01*
X174374462Y-86246093D01*
X174366472Y-86254873D01*
X173661750Y-86959595D01*
X173599438Y-86993621D01*
X173572655Y-86996500D01*
X172163768Y-86996500D01*
X172152585Y-86995973D01*
X172145092Y-86994298D01*
X172137166Y-86994547D01*
X172137165Y-86994547D01*
X172077002Y-86996438D01*
X172073044Y-86996500D01*
X172045144Y-86996500D01*
X172041154Y-86997004D01*
X172029320Y-86997936D01*
X171985111Y-86999326D01*
X171977495Y-87001539D01*
X171977493Y-87001539D01*
X171965652Y-87004979D01*
X171946293Y-87008988D01*
X171944983Y-87009154D01*
X171926203Y-87011526D01*
X171918837Y-87014442D01*
X171918831Y-87014444D01*
X171885098Y-87027800D01*
X171873868Y-87031645D01*
X171839017Y-87041770D01*
X171831407Y-87043981D01*
X171824584Y-87048016D01*
X171813966Y-87054295D01*
X171796213Y-87062992D01*
X171788568Y-87066019D01*
X171777383Y-87070448D01*
X171770968Y-87075109D01*
X171741612Y-87096437D01*
X171731695Y-87102951D01*
X171693638Y-87125458D01*
X171679317Y-87139779D01*
X171664284Y-87152619D01*
X171647893Y-87164528D01*
X171621516Y-87196413D01*
X171619712Y-87198593D01*
X171611722Y-87207374D01*
X171131507Y-87687588D01*
X171069195Y-87721613D01*
X171002746Y-87718085D01*
X170961392Y-87704369D01*
X170961390Y-87704369D01*
X170954861Y-87702203D01*
X170948025Y-87701503D01*
X170948022Y-87701502D01*
X170904969Y-87697091D01*
X170850400Y-87691500D01*
X170224600Y-87691500D01*
X170221354Y-87691837D01*
X170221350Y-87691837D01*
X170125692Y-87701762D01*
X170125688Y-87701763D01*
X170118834Y-87702474D01*
X170112298Y-87704655D01*
X170112296Y-87704655D01*
X169998682Y-87742560D01*
X169951054Y-87758450D01*
X169800652Y-87851522D01*
X169675695Y-87976697D01*
X169671855Y-87982927D01*
X169671854Y-87982928D01*
X169631434Y-88048502D01*
X169582885Y-88127262D01*
X169565337Y-88180168D01*
X169524906Y-88238527D01*
X169459342Y-88265764D01*
X169445744Y-88266500D01*
X168568477Y-88266500D01*
X168500356Y-88246498D01*
X168479382Y-88229595D01*
X168452038Y-88202251D01*
X168440181Y-88193948D01*
X168305172Y-88099414D01*
X168271654Y-88075944D01*
X168266666Y-88073618D01*
X168266663Y-88073616D01*
X168182123Y-88034195D01*
X168128837Y-87987278D01*
X168109376Y-87919001D01*
X168129918Y-87851041D01*
X168182123Y-87805805D01*
X168266663Y-87766384D01*
X168266669Y-87766380D01*
X168271654Y-87764056D01*
X168452038Y-87637749D01*
X168607749Y-87482038D01*
X168636466Y-87441027D01*
X168730899Y-87306162D01*
X168730900Y-87306160D01*
X168734056Y-87301653D01*
X168736379Y-87296671D01*
X168736382Y-87296666D01*
X168783585Y-87195438D01*
X168827120Y-87102076D01*
X168884115Y-86889371D01*
X168903307Y-86670000D01*
X168884115Y-86450629D01*
X168827120Y-86237924D01*
X168773348Y-86122610D01*
X168736382Y-86043334D01*
X168736379Y-86043329D01*
X168734056Y-86038347D01*
X168649788Y-85918000D01*
X168610908Y-85862473D01*
X168610906Y-85862470D01*
X168607749Y-85857962D01*
X168452038Y-85702251D01*
X168271654Y-85575944D01*
X168072076Y-85482880D01*
X167859371Y-85425885D01*
X167640000Y-85406693D01*
X167499777Y-85418961D01*
X167430174Y-85404972D01*
X167379182Y-85355572D01*
X167362991Y-85286447D01*
X167386743Y-85219541D01*
X167400142Y-85205620D01*
X167413125Y-85187442D01*
X167406608Y-85175818D01*
X165919885Y-83689095D01*
X165885859Y-83626783D01*
X165887694Y-83601132D01*
X166554408Y-83601132D01*
X166554539Y-83602965D01*
X166558790Y-83609580D01*
X167765730Y-84816520D01*
X167777939Y-84823187D01*
X167789439Y-84814497D01*
X167886831Y-84681913D01*
X167891418Y-84674685D01*
X168017962Y-84441621D01*
X168021530Y-84433827D01*
X168115271Y-84185750D01*
X168117748Y-84177544D01*
X168176954Y-83919038D01*
X168178294Y-83910577D01*
X168202031Y-83644616D01*
X168202277Y-83639677D01*
X168202666Y-83602485D01*
X168202523Y-83597519D01*
X168184362Y-83331123D01*
X168183201Y-83322649D01*
X168129419Y-83062944D01*
X168127120Y-83054709D01*
X168038588Y-82804705D01*
X168035191Y-82796854D01*
X167913550Y-82561178D01*
X167909122Y-82553866D01*
X167790031Y-82384417D01*
X167779509Y-82376037D01*
X167766121Y-82383089D01*
X166562022Y-83587188D01*
X166554408Y-83601132D01*
X165887694Y-83601132D01*
X165890924Y-83555968D01*
X165919885Y-83510905D01*
X167406604Y-82024186D01*
X167413795Y-82011017D01*
X167406473Y-82000780D01*
X167359233Y-81962115D01*
X167352261Y-81957160D01*
X167126122Y-81818582D01*
X167118552Y-81814624D01*
X166875704Y-81708022D01*
X166867644Y-81705120D01*
X166612592Y-81632467D01*
X166604214Y-81630685D01*
X166341656Y-81593318D01*
X166333111Y-81592691D01*
X166067908Y-81591302D01*
X166059374Y-81591839D01*
X165796433Y-81626456D01*
X165788035Y-81628149D01*
X165532238Y-81698127D01*
X165524143Y-81700946D01*
X165280199Y-81804997D01*
X165272576Y-81808881D01*
X165164206Y-81873739D01*
X165095482Y-81891559D01*
X165028034Y-81869395D01*
X164983276Y-81814284D01*
X164973500Y-81765623D01*
X164973500Y-80160086D01*
X164993502Y-80091965D01*
X165047158Y-80045472D01*
X165117432Y-80035368D01*
X165166456Y-80053348D01*
X165235271Y-80096515D01*
X165242807Y-80100556D01*
X165484520Y-80209694D01*
X165492551Y-80212680D01*
X165746832Y-80288002D01*
X165755184Y-80289869D01*
X166017340Y-80329984D01*
X166025874Y-80330700D01*
X166291045Y-80334867D01*
X166299596Y-80334418D01*
X166562883Y-80302557D01*
X166571284Y-80300955D01*
X166827824Y-80233653D01*
X166835926Y-80230926D01*
X167080949Y-80129434D01*
X167088617Y-80125628D01*
X167317598Y-79991822D01*
X167324679Y-79987009D01*
X167404655Y-79924301D01*
X167413125Y-79912442D01*
X167406608Y-79900818D01*
X165919885Y-78414095D01*
X165885859Y-78351783D01*
X165887694Y-78326132D01*
X166554408Y-78326132D01*
X166554539Y-78327965D01*
X166558790Y-78334580D01*
X167765730Y-79541520D01*
X167777939Y-79548187D01*
X167789439Y-79539497D01*
X167886831Y-79406913D01*
X167891418Y-79399685D01*
X168017962Y-79166621D01*
X168021530Y-79158827D01*
X168115271Y-78910750D01*
X168117748Y-78902544D01*
X168176954Y-78644038D01*
X168178294Y-78635577D01*
X168202031Y-78369616D01*
X168202277Y-78364677D01*
X168202666Y-78327485D01*
X168202523Y-78322519D01*
X168184362Y-78056123D01*
X168183201Y-78047649D01*
X168129419Y-77787944D01*
X168127120Y-77779709D01*
X168038588Y-77529705D01*
X168035191Y-77521854D01*
X167913550Y-77286178D01*
X167909122Y-77278866D01*
X167790031Y-77109417D01*
X167779509Y-77101037D01*
X167766121Y-77108089D01*
X166562022Y-78312188D01*
X166554408Y-78326132D01*
X165887694Y-78326132D01*
X165890924Y-78280968D01*
X165919885Y-78235905D01*
X167406604Y-76749186D01*
X167413795Y-76736017D01*
X167396742Y-76712177D01*
X167398074Y-76711224D01*
X167369931Y-76670021D01*
X167367938Y-76599052D01*
X167379207Y-76580385D01*
X175297000Y-76580385D01*
X175301475Y-76595624D01*
X175302865Y-76596829D01*
X175310548Y-76598500D01*
X176257885Y-76598500D01*
X176273124Y-76594025D01*
X176274329Y-76592635D01*
X176276000Y-76584952D01*
X176276000Y-76580385D01*
X176784000Y-76580385D01*
X176788475Y-76595624D01*
X176789865Y-76596829D01*
X176797548Y-76598500D01*
X177744884Y-76598500D01*
X177760123Y-76594025D01*
X177761328Y-76592635D01*
X177762999Y-76584952D01*
X177762999Y-76555405D01*
X177762662Y-76548886D01*
X177752743Y-76453294D01*
X177749851Y-76439900D01*
X177698412Y-76285716D01*
X177692239Y-76272538D01*
X177606937Y-76134693D01*
X177597901Y-76123292D01*
X177483171Y-76008761D01*
X177471760Y-75999749D01*
X177333757Y-75914684D01*
X177320576Y-75908537D01*
X177166290Y-75857362D01*
X177152914Y-75854495D01*
X177058562Y-75844828D01*
X177052145Y-75844500D01*
X176802115Y-75844500D01*
X176786876Y-75848975D01*
X176785671Y-75850365D01*
X176784000Y-75858048D01*
X176784000Y-76580385D01*
X176276000Y-76580385D01*
X176276000Y-75862616D01*
X176271525Y-75847377D01*
X176270135Y-75846172D01*
X176262452Y-75844501D01*
X176007905Y-75844501D01*
X176001386Y-75844838D01*
X175905794Y-75854757D01*
X175892400Y-75857649D01*
X175738216Y-75909088D01*
X175725038Y-75915261D01*
X175587193Y-76000563D01*
X175575792Y-76009599D01*
X175461261Y-76124329D01*
X175452249Y-76135740D01*
X175367184Y-76273743D01*
X175361037Y-76286924D01*
X175309862Y-76441210D01*
X175306995Y-76454586D01*
X175297328Y-76548938D01*
X175297000Y-76555355D01*
X175297000Y-76580385D01*
X167379207Y-76580385D01*
X167404631Y-76538273D01*
X167468358Y-76506979D01*
X167500765Y-76505624D01*
X167634514Y-76517326D01*
X167645475Y-76517326D01*
X167853804Y-76499099D01*
X167864599Y-76497196D01*
X168066595Y-76443072D01*
X168076887Y-76439326D01*
X168266416Y-76350947D01*
X168275912Y-76345464D01*
X168317148Y-76316590D01*
X168325523Y-76306112D01*
X168318457Y-76292668D01*
X167652811Y-75627021D01*
X167638868Y-75619408D01*
X167637034Y-75619539D01*
X167630420Y-75623790D01*
X166960820Y-76293391D01*
X166939167Y-76333045D01*
X166936031Y-76347465D01*
X166885832Y-76397670D01*
X166816458Y-76412765D01*
X166790921Y-76408265D01*
X166612592Y-76357467D01*
X166604214Y-76355685D01*
X166341656Y-76318318D01*
X166333111Y-76317691D01*
X166067908Y-76316302D01*
X166059374Y-76316839D01*
X165796433Y-76351456D01*
X165788035Y-76353149D01*
X165532238Y-76423127D01*
X165524143Y-76425946D01*
X165280199Y-76529997D01*
X165272576Y-76533881D01*
X165164206Y-76598739D01*
X165095482Y-76616559D01*
X165028034Y-76594395D01*
X164983276Y-76539284D01*
X164973500Y-76490623D01*
X164973500Y-75260475D01*
X166377674Y-75260475D01*
X166395901Y-75468804D01*
X166397804Y-75479599D01*
X166451928Y-75681595D01*
X166455674Y-75691887D01*
X166544054Y-75881417D01*
X166549534Y-75890907D01*
X166578411Y-75932149D01*
X166588887Y-75940523D01*
X166602334Y-75933455D01*
X167267979Y-75267811D01*
X167275592Y-75253868D01*
X167275461Y-75252034D01*
X167271210Y-75245420D01*
X166601609Y-74575820D01*
X166589839Y-74569393D01*
X166577824Y-74578689D01*
X166549534Y-74619093D01*
X166544054Y-74628583D01*
X166455674Y-74818113D01*
X166451928Y-74828405D01*
X166397804Y-75030401D01*
X166395901Y-75041196D01*
X166377674Y-75249525D01*
X166377674Y-75260475D01*
X164973500Y-75260475D01*
X164973500Y-67020086D01*
X164993502Y-66951965D01*
X165047158Y-66905472D01*
X165117432Y-66895368D01*
X165166456Y-66913348D01*
G37*
G04 #@! TD.AperFunction*
G04 #@! TA.AperFunction,Conductor*
G36*
X181216090Y-81082567D02*
G01*
X181217179Y-81080586D01*
X181234931Y-81090345D01*
X181251458Y-81101201D01*
X181261197Y-81108756D01*
X181261199Y-81108757D01*
X181267459Y-81113613D01*
X181308039Y-81131173D01*
X181318687Y-81136390D01*
X181357439Y-81157694D01*
X181365115Y-81159665D01*
X181365118Y-81159666D01*
X181377061Y-81162732D01*
X181395766Y-81169136D01*
X181414354Y-81177180D01*
X181422177Y-81178419D01*
X181422187Y-81178422D01*
X181458023Y-81184098D01*
X181469643Y-81186504D01*
X181504788Y-81195527D01*
X181512469Y-81197499D01*
X181532723Y-81197499D01*
X181552433Y-81199050D01*
X181572442Y-81202219D01*
X181580334Y-81201473D01*
X181616460Y-81198058D01*
X181628318Y-81197499D01*
X187660237Y-81197499D01*
X187728358Y-81217501D01*
X187774851Y-81271157D01*
X187785636Y-81311203D01*
X187799163Y-81449160D01*
X187856418Y-81621273D01*
X187860065Y-81627295D01*
X187860066Y-81627297D01*
X187943839Y-81765623D01*
X187950380Y-81776424D01*
X187955269Y-81781487D01*
X187955270Y-81781488D01*
X187989950Y-81817400D01*
X188076382Y-81906902D01*
X188123410Y-81937676D01*
X188219843Y-82000780D01*
X188228159Y-82006222D01*
X188234763Y-82008678D01*
X188234765Y-82008679D01*
X188391558Y-82066990D01*
X188391560Y-82066990D01*
X188398168Y-82069448D01*
X188481995Y-82080633D01*
X188570980Y-82092507D01*
X188570984Y-82092507D01*
X188577961Y-82093438D01*
X188584972Y-82092800D01*
X188584976Y-82092800D01*
X188668281Y-82085218D01*
X188758600Y-82076998D01*
X188760796Y-82076285D01*
X188829681Y-82082027D01*
X188886012Y-82125240D01*
X188903820Y-82159784D01*
X188935918Y-82256273D01*
X188939565Y-82262295D01*
X188939566Y-82262297D01*
X189018436Y-82392527D01*
X189029880Y-82411424D01*
X189155882Y-82541902D01*
X189215419Y-82580862D01*
X189289297Y-82629206D01*
X189307659Y-82641222D01*
X189314263Y-82643678D01*
X189314265Y-82643679D01*
X189471058Y-82701990D01*
X189471060Y-82701990D01*
X189477668Y-82704448D01*
X189552396Y-82714419D01*
X189650480Y-82727507D01*
X189650484Y-82727507D01*
X189657461Y-82728438D01*
X189664472Y-82727800D01*
X189664475Y-82727800D01*
X189674275Y-82726908D01*
X189682654Y-82726145D01*
X189752306Y-82739890D01*
X189803471Y-82789110D01*
X189818996Y-82835179D01*
X189824383Y-82876096D01*
X189826519Y-82892324D01*
X189824974Y-82892527D01*
X189824974Y-82937473D01*
X189826519Y-82937676D01*
X189811500Y-83051756D01*
X189811500Y-83278244D01*
X189812038Y-83282330D01*
X189812038Y-83282331D01*
X189826088Y-83389054D01*
X189815148Y-83459203D01*
X189768020Y-83512301D01*
X189701166Y-83531500D01*
X183663859Y-83531500D01*
X183595738Y-83511498D01*
X183549245Y-83457842D01*
X183538653Y-83398220D01*
X183538296Y-83398215D01*
X183538322Y-83396357D01*
X183538613Y-83375498D01*
X183518394Y-83195243D01*
X183479906Y-83084720D01*
X183461061Y-83030604D01*
X183461059Y-83030601D01*
X183458742Y-83023946D01*
X183439614Y-82993334D01*
X183366356Y-82876096D01*
X183362623Y-82870122D01*
X183327924Y-82835180D01*
X183239775Y-82746413D01*
X183239771Y-82746410D01*
X183234812Y-82741416D01*
X183223694Y-82734360D01*
X183160414Y-82694202D01*
X183081663Y-82644225D01*
X183022792Y-82623262D01*
X182917422Y-82585741D01*
X182917417Y-82585740D01*
X182910787Y-82583379D01*
X182903799Y-82582546D01*
X182903796Y-82582545D01*
X182770025Y-82566594D01*
X182730677Y-82561902D01*
X182723674Y-82562638D01*
X182723673Y-82562638D01*
X182557285Y-82580126D01*
X182557283Y-82580127D01*
X182550285Y-82580862D01*
X182378576Y-82639316D01*
X182243767Y-82722252D01*
X182175287Y-82740905D01*
X182170326Y-82739796D01*
X182134881Y-82740910D01*
X182102236Y-82741936D01*
X182098278Y-82741998D01*
X182070379Y-82741998D01*
X182066389Y-82742502D01*
X182054555Y-82743434D01*
X182010346Y-82744824D01*
X182002732Y-82747036D01*
X182002727Y-82747037D01*
X181990894Y-82750475D01*
X181971531Y-82754486D01*
X181951438Y-82757024D01*
X181944071Y-82759941D01*
X181944066Y-82759942D01*
X181910327Y-82773300D01*
X181899100Y-82777144D01*
X181856642Y-82789480D01*
X181849816Y-82793517D01*
X181839207Y-82799791D01*
X181821459Y-82808486D01*
X181802618Y-82815946D01*
X181796202Y-82820608D01*
X181796201Y-82820608D01*
X181766848Y-82841934D01*
X181756928Y-82848450D01*
X181725700Y-82866918D01*
X181725697Y-82866920D01*
X181718873Y-82870956D01*
X181704552Y-82885277D01*
X181689519Y-82898117D01*
X181673128Y-82910026D01*
X181668077Y-82916131D01*
X181668072Y-82916136D01*
X181644936Y-82944102D01*
X181636948Y-82952880D01*
X181243595Y-83346233D01*
X181181283Y-83380259D01*
X181110468Y-83375194D01*
X181053632Y-83332647D01*
X181028821Y-83266127D01*
X181028500Y-83257138D01*
X181028500Y-83051756D01*
X181013481Y-82937676D01*
X181015026Y-82937473D01*
X181015026Y-82892527D01*
X181013481Y-82892324D01*
X181027962Y-82782331D01*
X181027962Y-82782330D01*
X181028500Y-82778244D01*
X181028500Y-82551756D01*
X181026536Y-82536834D01*
X181013481Y-82437676D01*
X181015026Y-82437473D01*
X181015026Y-82392527D01*
X181013481Y-82392324D01*
X181027962Y-82282331D01*
X181027962Y-82282330D01*
X181028500Y-82278244D01*
X181028500Y-82051756D01*
X181018527Y-81976000D01*
X181013481Y-81937676D01*
X181015026Y-81937473D01*
X181015026Y-81892527D01*
X181013481Y-81892324D01*
X181027962Y-81782331D01*
X181027962Y-81782330D01*
X181028500Y-81778244D01*
X181028500Y-81551756D01*
X181022752Y-81508092D01*
X181013481Y-81437676D01*
X181015026Y-81437473D01*
X181015026Y-81392527D01*
X181013481Y-81392324D01*
X181027962Y-81282331D01*
X181027962Y-81282329D01*
X181028500Y-81278244D01*
X181028500Y-81189563D01*
X181048502Y-81121442D01*
X181102158Y-81074949D01*
X181172432Y-81064845D01*
X181216090Y-81082567D01*
G37*
G04 #@! TD.AperFunction*
G04 #@! TA.AperFunction,Conductor*
G36*
X169541396Y-63393502D02*
G01*
X169587889Y-63447158D01*
X169597993Y-63517432D01*
X169587564Y-63552547D01*
X169535688Y-63664305D01*
X169475989Y-63879570D01*
X169452251Y-64101695D01*
X169465110Y-64324715D01*
X169466247Y-64329761D01*
X169466248Y-64329767D01*
X169477987Y-64381854D01*
X169514222Y-64542639D01*
X169598266Y-64749616D01*
X169635685Y-64810678D01*
X169712291Y-64935688D01*
X169714987Y-64940088D01*
X169861250Y-65108938D01*
X170033126Y-65251632D01*
X170119070Y-65301853D01*
X170167794Y-65353491D01*
X170181500Y-65410641D01*
X170181500Y-66000776D01*
X170161498Y-66068897D01*
X170107842Y-66115390D01*
X170095376Y-66120299D01*
X169958009Y-66166128D01*
X169957997Y-66166134D01*
X169951054Y-66168450D01*
X169800652Y-66261522D01*
X169795479Y-66266704D01*
X169780821Y-66281388D01*
X169675695Y-66386697D01*
X169671855Y-66392927D01*
X169671854Y-66392928D01*
X169593881Y-66519424D01*
X169582885Y-66537262D01*
X169527203Y-66705139D01*
X169526503Y-66711975D01*
X169526502Y-66711978D01*
X169523554Y-66740757D01*
X169516500Y-66809600D01*
X169516500Y-67810400D01*
X169516836Y-67813638D01*
X169516837Y-67813650D01*
X169526618Y-67907914D01*
X169527474Y-67916166D01*
X169529655Y-67922702D01*
X169529655Y-67922704D01*
X169551735Y-67988886D01*
X169583450Y-68083946D01*
X169676522Y-68234348D01*
X169801697Y-68359305D01*
X169807927Y-68363145D01*
X169807928Y-68363146D01*
X169945288Y-68447816D01*
X169952262Y-68452115D01*
X170019362Y-68474371D01*
X170113611Y-68505632D01*
X170113613Y-68505632D01*
X170120139Y-68507797D01*
X170126975Y-68508497D01*
X170126978Y-68508498D01*
X170170031Y-68512909D01*
X170224600Y-68518500D01*
X170850400Y-68518500D01*
X170853646Y-68518163D01*
X170853650Y-68518163D01*
X170949308Y-68508238D01*
X170949312Y-68508237D01*
X170956166Y-68507526D01*
X170962702Y-68505345D01*
X170962704Y-68505345D01*
X171110467Y-68456047D01*
X171123946Y-68451550D01*
X171274348Y-68358478D01*
X171284506Y-68348302D01*
X171361138Y-68271537D01*
X171423421Y-68237458D01*
X171494241Y-68242461D01*
X171539329Y-68271382D01*
X171621829Y-68353739D01*
X171633240Y-68362751D01*
X171771243Y-68447816D01*
X171784424Y-68453963D01*
X171938710Y-68505138D01*
X171952086Y-68508005D01*
X172046438Y-68517672D01*
X172052854Y-68518000D01*
X172090385Y-68518000D01*
X172105624Y-68513525D01*
X172106829Y-68512135D01*
X172108500Y-68504452D01*
X172108500Y-68499884D01*
X172616500Y-68499884D01*
X172620975Y-68515123D01*
X172622365Y-68516328D01*
X172630048Y-68517999D01*
X172672095Y-68517999D01*
X172678614Y-68517662D01*
X172774206Y-68507743D01*
X172787600Y-68504851D01*
X172941784Y-68453412D01*
X172954962Y-68447239D01*
X173092807Y-68361937D01*
X173104208Y-68352901D01*
X173218739Y-68238171D01*
X173227751Y-68226760D01*
X173312816Y-68088757D01*
X173318963Y-68075576D01*
X173370138Y-67921290D01*
X173373005Y-67907914D01*
X173382672Y-67813562D01*
X173383000Y-67807146D01*
X173383000Y-67582115D01*
X173378525Y-67566876D01*
X173377135Y-67565671D01*
X173369452Y-67564000D01*
X172634615Y-67564000D01*
X172619376Y-67568475D01*
X172618171Y-67569865D01*
X172616500Y-67577548D01*
X172616500Y-68499884D01*
X172108500Y-68499884D01*
X172108500Y-67037885D01*
X172616500Y-67037885D01*
X172620975Y-67053124D01*
X172622365Y-67054329D01*
X172630048Y-67056000D01*
X173364884Y-67056000D01*
X173380123Y-67051525D01*
X173381328Y-67050135D01*
X173382999Y-67042452D01*
X173382999Y-67037885D01*
X173937000Y-67037885D01*
X173941475Y-67053124D01*
X173942865Y-67054329D01*
X173950548Y-67056000D01*
X174672885Y-67056000D01*
X174688124Y-67051525D01*
X174689329Y-67050135D01*
X174691000Y-67042452D01*
X174691000Y-66095116D01*
X174686525Y-66079877D01*
X174685135Y-66078672D01*
X174677452Y-66077001D01*
X174647905Y-66077001D01*
X174641386Y-66077338D01*
X174545794Y-66087257D01*
X174532400Y-66090149D01*
X174378216Y-66141588D01*
X174365038Y-66147761D01*
X174227193Y-66233063D01*
X174215792Y-66242099D01*
X174101261Y-66356829D01*
X174092249Y-66368240D01*
X174007184Y-66506243D01*
X174001037Y-66519424D01*
X173949862Y-66673710D01*
X173946995Y-66687086D01*
X173937328Y-66781438D01*
X173937000Y-66787855D01*
X173937000Y-67037885D01*
X173382999Y-67037885D01*
X173382999Y-66812905D01*
X173382662Y-66806386D01*
X173372743Y-66710794D01*
X173369851Y-66697400D01*
X173318412Y-66543216D01*
X173312239Y-66530038D01*
X173226937Y-66392193D01*
X173217901Y-66380792D01*
X173103171Y-66266261D01*
X173091760Y-66257249D01*
X172953757Y-66172184D01*
X172940576Y-66166037D01*
X172786290Y-66114862D01*
X172772914Y-66111995D01*
X172678562Y-66102328D01*
X172672145Y-66102000D01*
X172634615Y-66102000D01*
X172619376Y-66106475D01*
X172618171Y-66107865D01*
X172616500Y-66115548D01*
X172616500Y-67037885D01*
X172108500Y-67037885D01*
X172108500Y-66120116D01*
X172104025Y-66104877D01*
X172102635Y-66103672D01*
X172094952Y-66102001D01*
X172052905Y-66102001D01*
X172046386Y-66102338D01*
X171950794Y-66112257D01*
X171937400Y-66115149D01*
X171783216Y-66166588D01*
X171770038Y-66172761D01*
X171640803Y-66252735D01*
X171572351Y-66271573D01*
X171504582Y-66250412D01*
X171459010Y-66195971D01*
X171448500Y-66145591D01*
X171448500Y-65415427D01*
X171468502Y-65347306D01*
X171509618Y-65307550D01*
X171512994Y-65305896D01*
X171694860Y-65176173D01*
X171853096Y-65018489D01*
X171912594Y-64935689D01*
X171983453Y-64837077D01*
X171984776Y-64838028D01*
X172031645Y-64794857D01*
X172101580Y-64782625D01*
X172167026Y-64810144D01*
X172194875Y-64841994D01*
X172254987Y-64940088D01*
X172401250Y-65108938D01*
X172573126Y-65251632D01*
X172766000Y-65364338D01*
X172974692Y-65444030D01*
X172979760Y-65445061D01*
X172979763Y-65445062D01*
X173074862Y-65464410D01*
X173193597Y-65488567D01*
X173198772Y-65488757D01*
X173198774Y-65488757D01*
X173411673Y-65496564D01*
X173411677Y-65496564D01*
X173416837Y-65496753D01*
X173421957Y-65496097D01*
X173421959Y-65496097D01*
X173633288Y-65469025D01*
X173633289Y-65469025D01*
X173638416Y-65468368D01*
X173643366Y-65466883D01*
X173847429Y-65405661D01*
X173847434Y-65405659D01*
X173852384Y-65404174D01*
X174052994Y-65305896D01*
X174234860Y-65176173D01*
X174393096Y-65018489D01*
X174452594Y-64935689D01*
X174523453Y-64837077D01*
X174524640Y-64837930D01*
X174571960Y-64794362D01*
X174641897Y-64782145D01*
X174707338Y-64809678D01*
X174735166Y-64841511D01*
X174792694Y-64935388D01*
X174798777Y-64943699D01*
X174938213Y-65104667D01*
X174945580Y-65111883D01*
X175109434Y-65247916D01*
X175117881Y-65253831D01*
X175301756Y-65361279D01*
X175311042Y-65365729D01*
X175510001Y-65441703D01*
X175519899Y-65444579D01*
X175623250Y-65465606D01*
X175637299Y-65464410D01*
X175641000Y-65454065D01*
X175641000Y-64007000D01*
X175661002Y-63938879D01*
X175714658Y-63892386D01*
X175767000Y-63881000D01*
X176023000Y-63881000D01*
X176091121Y-63901002D01*
X176137614Y-63954658D01*
X176149000Y-64007000D01*
X176149000Y-65453517D01*
X176153064Y-65467359D01*
X176166478Y-65469393D01*
X176173184Y-65468534D01*
X176183262Y-65466392D01*
X176387255Y-65405191D01*
X176396842Y-65401433D01*
X176588095Y-65307739D01*
X176596945Y-65302464D01*
X176770328Y-65178792D01*
X176778200Y-65172139D01*
X176929052Y-65021812D01*
X176935730Y-65013965D01*
X177063022Y-64836819D01*
X177064279Y-64837722D01*
X177111373Y-64794362D01*
X177181311Y-64782145D01*
X177246751Y-64809678D01*
X177274579Y-64841511D01*
X177334987Y-64940088D01*
X177481250Y-65108938D01*
X177653126Y-65251632D01*
X177846000Y-65364338D01*
X178054692Y-65444030D01*
X178059760Y-65445061D01*
X178059763Y-65445062D01*
X178154862Y-65464410D01*
X178273597Y-65488567D01*
X178278772Y-65488757D01*
X178278774Y-65488757D01*
X178491673Y-65496564D01*
X178491677Y-65496564D01*
X178496837Y-65496753D01*
X178501957Y-65496097D01*
X178501959Y-65496097D01*
X178713288Y-65469025D01*
X178713289Y-65469025D01*
X178718416Y-65468368D01*
X178723366Y-65466883D01*
X178927429Y-65405661D01*
X178927434Y-65405659D01*
X178932384Y-65404174D01*
X179132994Y-65305896D01*
X179314860Y-65176173D01*
X179473096Y-65018489D01*
X179532594Y-64935689D01*
X179603453Y-64837077D01*
X179604776Y-64838028D01*
X179651645Y-64794857D01*
X179721580Y-64782625D01*
X179787026Y-64810144D01*
X179814875Y-64841994D01*
X179874987Y-64940088D01*
X180021250Y-65108938D01*
X180193126Y-65251632D01*
X180386000Y-65364338D01*
X180594692Y-65444030D01*
X180599760Y-65445061D01*
X180599763Y-65445062D01*
X180694862Y-65464410D01*
X180813597Y-65488567D01*
X180818772Y-65488757D01*
X180818774Y-65488757D01*
X181031673Y-65496564D01*
X181031677Y-65496564D01*
X181036837Y-65496753D01*
X181041957Y-65496097D01*
X181041959Y-65496097D01*
X181253288Y-65469025D01*
X181253289Y-65469025D01*
X181258416Y-65468368D01*
X181263366Y-65466883D01*
X181467429Y-65405661D01*
X181467434Y-65405659D01*
X181472384Y-65404174D01*
X181672994Y-65305896D01*
X181854860Y-65176173D01*
X182013096Y-65018489D01*
X182072594Y-64935689D01*
X182143453Y-64837077D01*
X182144776Y-64838028D01*
X182191645Y-64794857D01*
X182261580Y-64782625D01*
X182327026Y-64810144D01*
X182354875Y-64841994D01*
X182414987Y-64940088D01*
X182561250Y-65108938D01*
X182733126Y-65251632D01*
X182926000Y-65364338D01*
X183134692Y-65444030D01*
X183139760Y-65445061D01*
X183139763Y-65445062D01*
X183234862Y-65464410D01*
X183353597Y-65488567D01*
X183358772Y-65488757D01*
X183358774Y-65488757D01*
X183571673Y-65496564D01*
X183571677Y-65496564D01*
X183576837Y-65496753D01*
X183581957Y-65496097D01*
X183581959Y-65496097D01*
X183793288Y-65469025D01*
X183793289Y-65469025D01*
X183798416Y-65468368D01*
X183803366Y-65466883D01*
X184007429Y-65405661D01*
X184007434Y-65405659D01*
X184012384Y-65404174D01*
X184212994Y-65305896D01*
X184394860Y-65176173D01*
X184503091Y-65068319D01*
X184565462Y-65034404D01*
X184636268Y-65039592D01*
X184693030Y-65082238D01*
X184710012Y-65113341D01*
X184754385Y-65231705D01*
X184841739Y-65348261D01*
X184958295Y-65435615D01*
X185094684Y-65486745D01*
X185156866Y-65493500D01*
X186953134Y-65493500D01*
X187015316Y-65486745D01*
X187151705Y-65435615D01*
X187268261Y-65348261D01*
X187355615Y-65231705D01*
X187406745Y-65095316D01*
X187412815Y-65039440D01*
X187413131Y-65036531D01*
X187413500Y-65033134D01*
X187413500Y-63499500D01*
X187433502Y-63431379D01*
X187487158Y-63384886D01*
X187539500Y-63373500D01*
X192026054Y-63373500D01*
X192094175Y-63393502D01*
X192140668Y-63447158D01*
X192150772Y-63517432D01*
X192140618Y-63551951D01*
X192121701Y-63593269D01*
X192117967Y-63603815D01*
X192064853Y-63810679D01*
X192063082Y-63821234D01*
X192052207Y-63954930D01*
X192052000Y-63960036D01*
X192052000Y-64497885D01*
X192056475Y-64513124D01*
X192057865Y-64514329D01*
X192065548Y-64516000D01*
X196549884Y-64516000D01*
X196565123Y-64511525D01*
X196566328Y-64510135D01*
X196567999Y-64502452D01*
X196567999Y-63960039D01*
X196567791Y-63954929D01*
X196556918Y-63821233D01*
X196555148Y-63810680D01*
X196502033Y-63603815D01*
X196498299Y-63593269D01*
X196479382Y-63551951D01*
X196469212Y-63481687D01*
X196498643Y-63417078D01*
X196558333Y-63378638D01*
X196593946Y-63373500D01*
X198755500Y-63373500D01*
X198823621Y-63393502D01*
X198870114Y-63447158D01*
X198881500Y-63499500D01*
X198881500Y-74182167D01*
X198861498Y-74250288D01*
X198807842Y-74296781D01*
X198755500Y-74308167D01*
X195696866Y-74308167D01*
X195634684Y-74314922D01*
X195498295Y-74366052D01*
X195381739Y-74453406D01*
X195294385Y-74569962D01*
X195243255Y-74706351D01*
X195241418Y-74705662D01*
X195211366Y-74758267D01*
X195148411Y-74791088D01*
X195077705Y-74784662D01*
X195021698Y-74741030D01*
X194998000Y-74667475D01*
X194998000Y-74567115D01*
X194993525Y-74551876D01*
X194992135Y-74550671D01*
X194984452Y-74549000D01*
X194262115Y-74549000D01*
X194246876Y-74553475D01*
X194245671Y-74554865D01*
X194244000Y-74562548D01*
X194244000Y-75442000D01*
X194223998Y-75510121D01*
X194170342Y-75556614D01*
X194118000Y-75568000D01*
X194100815Y-75568000D01*
X194085576Y-75572475D01*
X194084371Y-75573865D01*
X194082700Y-75581548D01*
X194082700Y-77389885D01*
X194087175Y-77405124D01*
X194088565Y-77406329D01*
X194096248Y-77408000D01*
X194216150Y-77408000D01*
X194220445Y-77407854D01*
X194254083Y-77405560D01*
X194265029Y-77403836D01*
X194427178Y-77363408D01*
X194439911Y-77358724D01*
X194588471Y-77284979D01*
X194599896Y-77277672D01*
X194729159Y-77173742D01*
X194738742Y-77164159D01*
X194842670Y-77034898D01*
X194852612Y-77019352D01*
X194906164Y-76972740D01*
X194976415Y-76962479D01*
X195002674Y-76969136D01*
X195048192Y-76986064D01*
X195132019Y-76997249D01*
X195221004Y-77009123D01*
X195221008Y-77009123D01*
X195227985Y-77010054D01*
X195234996Y-77009416D01*
X195235000Y-77009416D01*
X195287187Y-77004666D01*
X195356840Y-77018411D01*
X195408005Y-77067632D01*
X195424436Y-77136701D01*
X195400918Y-77203689D01*
X195388416Y-77218402D01*
X195381739Y-77223406D01*
X195294385Y-77339962D01*
X195243255Y-77476351D01*
X195236500Y-77538533D01*
X195236500Y-77818569D01*
X195216498Y-77886690D01*
X195162842Y-77933183D01*
X195095583Y-77943683D01*
X194950680Y-77926404D01*
X194943677Y-77927140D01*
X194943676Y-77927140D01*
X194777288Y-77944628D01*
X194777286Y-77944629D01*
X194770288Y-77945364D01*
X194598579Y-78003818D01*
X194547203Y-78035425D01*
X194450095Y-78095166D01*
X194450092Y-78095168D01*
X194444088Y-78098862D01*
X194439053Y-78103793D01*
X194439050Y-78103795D01*
X194369071Y-78172324D01*
X194314493Y-78225771D01*
X194216235Y-78378238D01*
X194213826Y-78384858D01*
X194213824Y-78384861D01*
X194159243Y-78534822D01*
X194154197Y-78548685D01*
X194131463Y-78728640D01*
X194149163Y-78909160D01*
X194206418Y-79081273D01*
X194210065Y-79087295D01*
X194210066Y-79087297D01*
X194275139Y-79194745D01*
X194300380Y-79236424D01*
X194334564Y-79271822D01*
X194349042Y-79286815D01*
X194381974Y-79349712D01*
X194375674Y-79420428D01*
X194346565Y-79464364D01*
X194314493Y-79495771D01*
X194216235Y-79648238D01*
X194213826Y-79654858D01*
X194213824Y-79654861D01*
X194193425Y-79710908D01*
X194154197Y-79818685D01*
X194147137Y-79874568D01*
X194118757Y-79939641D01*
X194111227Y-79947868D01*
X192579964Y-81479131D01*
X192517652Y-81513157D01*
X192446837Y-81508092D01*
X192390001Y-81465545D01*
X192365190Y-81399025D01*
X192365947Y-81373594D01*
X192378500Y-81278244D01*
X192378500Y-81051756D01*
X192363481Y-80937676D01*
X192365026Y-80937473D01*
X192365026Y-80892527D01*
X192363481Y-80892324D01*
X192377962Y-80782331D01*
X192377962Y-80782330D01*
X192378500Y-80778244D01*
X192378500Y-80551756D01*
X192363481Y-80437676D01*
X192365026Y-80437473D01*
X192365026Y-80392527D01*
X192363481Y-80392324D01*
X192371045Y-80334867D01*
X192377200Y-80288122D01*
X192405921Y-80223196D01*
X192465186Y-80184104D01*
X192490700Y-80179088D01*
X192561579Y-80172637D01*
X192568600Y-80171998D01*
X192575302Y-80169820D01*
X192575304Y-80169820D01*
X192734409Y-80118124D01*
X192734412Y-80118123D01*
X192741108Y-80115947D01*
X192859331Y-80045472D01*
X192890860Y-80026677D01*
X192890862Y-80026676D01*
X192896912Y-80023069D01*
X193028266Y-79897982D01*
X193128643Y-79746902D01*
X193170423Y-79636917D01*
X193190555Y-79583920D01*
X193190556Y-79583918D01*
X193193055Y-79577338D01*
X193198089Y-79541520D01*
X193217748Y-79401639D01*
X193217748Y-79401636D01*
X193218299Y-79397717D01*
X193218616Y-79375000D01*
X193198397Y-79194745D01*
X193190503Y-79172076D01*
X193141064Y-79030106D01*
X193141062Y-79030103D01*
X193138745Y-79023448D01*
X193042626Y-78869624D01*
X193037664Y-78864627D01*
X192919778Y-78745915D01*
X192919774Y-78745912D01*
X192914815Y-78740918D01*
X192896662Y-78729398D01*
X192849865Y-78676007D01*
X192839362Y-78605792D01*
X192844944Y-78584555D01*
X192844995Y-78584462D01*
X192850033Y-78564839D01*
X192856437Y-78546136D01*
X192861333Y-78534822D01*
X192861333Y-78534821D01*
X192864481Y-78527547D01*
X192865720Y-78519724D01*
X192865723Y-78519714D01*
X192871399Y-78483878D01*
X192873805Y-78472258D01*
X192882828Y-78437113D01*
X192882828Y-78437112D01*
X192884800Y-78429432D01*
X192884800Y-78409178D01*
X192886351Y-78389467D01*
X192888280Y-78377288D01*
X192889520Y-78369459D01*
X192885359Y-78325440D01*
X192884800Y-78313583D01*
X192884800Y-77426341D01*
X192904802Y-77358220D01*
X192954776Y-77313481D01*
X192984538Y-77298707D01*
X193054448Y-77286335D01*
X193096586Y-77298707D01*
X193217489Y-77358724D01*
X193230222Y-77363408D01*
X193392371Y-77403836D01*
X193403317Y-77405560D01*
X193436955Y-77407854D01*
X193441250Y-77408000D01*
X193556585Y-77408000D01*
X193571824Y-77403525D01*
X193573029Y-77402135D01*
X193574700Y-77394452D01*
X193574700Y-75078000D01*
X193594702Y-75009879D01*
X193648358Y-74963386D01*
X193700700Y-74952000D01*
X193717885Y-74952000D01*
X193733124Y-74947525D01*
X193734329Y-74946135D01*
X193736000Y-74938452D01*
X193736000Y-74167000D01*
X193756002Y-74098879D01*
X193809658Y-74052386D01*
X193862000Y-74041000D01*
X194979884Y-74041000D01*
X194995123Y-74036525D01*
X194996328Y-74035135D01*
X194997999Y-74027452D01*
X194997999Y-73772905D01*
X194997662Y-73766386D01*
X194987743Y-73670794D01*
X194984851Y-73657400D01*
X194933412Y-73503216D01*
X194927239Y-73490038D01*
X194841937Y-73352193D01*
X194832901Y-73340792D01*
X194735613Y-73243673D01*
X194701534Y-73181390D01*
X194706537Y-73110570D01*
X194749034Y-73053697D01*
X194815533Y-73028829D01*
X194824631Y-73028500D01*
X196108134Y-73028500D01*
X196170316Y-73021745D01*
X196306705Y-72970615D01*
X196423261Y-72883261D01*
X196510615Y-72766705D01*
X196561745Y-72630316D01*
X196568500Y-72568134D01*
X196568500Y-68971866D01*
X196561745Y-68909684D01*
X196510615Y-68773295D01*
X196423261Y-68656739D01*
X196306705Y-68569385D01*
X196170316Y-68518255D01*
X196108134Y-68511500D01*
X192511866Y-68511500D01*
X192449684Y-68518255D01*
X192313295Y-68569385D01*
X192196739Y-68656739D01*
X192109385Y-68773295D01*
X192106236Y-68781696D01*
X192105019Y-68783918D01*
X192054760Y-68834064D01*
X191985369Y-68849077D01*
X191918877Y-68824191D01*
X191876395Y-68767307D01*
X191868500Y-68723408D01*
X191868500Y-66802636D01*
X191867850Y-66790620D01*
X191865617Y-66749401D01*
X191865381Y-66745043D01*
X191823588Y-66531032D01*
X191821402Y-66519840D01*
X191821402Y-66519839D01*
X191820380Y-66514607D01*
X191737196Y-66295048D01*
X191646390Y-66140581D01*
X191620917Y-66097250D01*
X191620915Y-66097248D01*
X191618209Y-66092644D01*
X191466819Y-65913181D01*
X191287356Y-65761791D01*
X191084952Y-65642804D01*
X190919082Y-65579961D01*
X192052001Y-65579961D01*
X192052209Y-65585071D01*
X192063082Y-65718767D01*
X192064852Y-65729320D01*
X192117967Y-65936185D01*
X192121701Y-65946731D01*
X192210510Y-66140705D01*
X192216043Y-66150407D01*
X192337803Y-66325597D01*
X192344976Y-66334176D01*
X192495824Y-66485024D01*
X192504403Y-66492197D01*
X192679588Y-66613954D01*
X192689295Y-66619490D01*
X192883269Y-66708299D01*
X192893815Y-66712033D01*
X193100679Y-66765147D01*
X193111234Y-66766918D01*
X193244930Y-66777793D01*
X193250036Y-66778000D01*
X194037885Y-66778000D01*
X194053124Y-66773525D01*
X194054329Y-66772135D01*
X194056000Y-66764452D01*
X194056000Y-66759884D01*
X194564000Y-66759884D01*
X194568475Y-66775123D01*
X194569865Y-66776328D01*
X194577548Y-66777999D01*
X195369961Y-66777999D01*
X195375071Y-66777791D01*
X195508767Y-66766918D01*
X195519320Y-66765148D01*
X195726185Y-66712033D01*
X195736731Y-66708299D01*
X195930705Y-66619490D01*
X195940412Y-66613954D01*
X196115597Y-66492197D01*
X196124176Y-66485024D01*
X196275024Y-66334176D01*
X196282197Y-66325597D01*
X196403957Y-66150407D01*
X196409490Y-66140705D01*
X196498299Y-65946731D01*
X196502033Y-65936185D01*
X196555147Y-65729321D01*
X196556918Y-65718766D01*
X196567793Y-65585070D01*
X196568000Y-65579964D01*
X196568000Y-65042115D01*
X196563525Y-65026876D01*
X196562135Y-65025671D01*
X196554452Y-65024000D01*
X194582115Y-65024000D01*
X194566876Y-65028475D01*
X194565671Y-65029865D01*
X194564000Y-65037548D01*
X194564000Y-66759884D01*
X194056000Y-66759884D01*
X194056000Y-65042115D01*
X194051525Y-65026876D01*
X194050135Y-65025671D01*
X194042452Y-65024000D01*
X192070116Y-65024000D01*
X192054877Y-65028475D01*
X192053672Y-65029865D01*
X192052001Y-65037548D01*
X192052001Y-65579961D01*
X190919082Y-65579961D01*
X190865393Y-65559620D01*
X190634957Y-65514619D01*
X190629227Y-65514309D01*
X190579052Y-65511591D01*
X190579037Y-65511591D01*
X190577364Y-65511500D01*
X188642636Y-65511500D01*
X188640963Y-65511591D01*
X188640948Y-65511591D01*
X188590773Y-65514309D01*
X188585043Y-65514619D01*
X188354607Y-65559620D01*
X188135048Y-65642804D01*
X187932644Y-65761791D01*
X187753181Y-65913181D01*
X187601791Y-66092644D01*
X187599085Y-66097248D01*
X187599083Y-66097250D01*
X187573610Y-66140581D01*
X187482804Y-66295048D01*
X187399620Y-66514607D01*
X187398598Y-66519839D01*
X187398598Y-66519840D01*
X187396412Y-66531032D01*
X187354619Y-66745043D01*
X187354383Y-66749401D01*
X187352151Y-66790620D01*
X187351500Y-66802636D01*
X187351500Y-67562129D01*
X187331498Y-67630250D01*
X187277842Y-67676743D01*
X187207568Y-67686847D01*
X187142988Y-67657353D01*
X187136405Y-67651224D01*
X186003770Y-66518589D01*
X185991384Y-66504177D01*
X185982851Y-66492582D01*
X185982846Y-66492577D01*
X185978508Y-66486682D01*
X185972930Y-66481943D01*
X185972927Y-66481940D01*
X185938232Y-66452465D01*
X185930716Y-66445535D01*
X185925021Y-66439840D01*
X185918880Y-66434982D01*
X185902749Y-66422219D01*
X185899345Y-66419428D01*
X185849297Y-66376909D01*
X185849295Y-66376908D01*
X185843715Y-66372167D01*
X185837199Y-66368839D01*
X185832150Y-66365472D01*
X185827021Y-66362305D01*
X185821284Y-66357766D01*
X185755125Y-66326845D01*
X185751225Y-66324939D01*
X185686192Y-66291731D01*
X185679084Y-66289992D01*
X185673441Y-66287893D01*
X185667678Y-66285976D01*
X185661050Y-66282878D01*
X185589583Y-66268013D01*
X185585299Y-66267043D01*
X185584768Y-66266913D01*
X185514390Y-66249692D01*
X185508788Y-66249344D01*
X185508785Y-66249344D01*
X185503236Y-66249000D01*
X185503238Y-66248964D01*
X185499245Y-66248725D01*
X185495053Y-66248351D01*
X185487885Y-66246860D01*
X185424120Y-66248585D01*
X185410479Y-66248954D01*
X185407072Y-66249000D01*
X185326553Y-66249000D01*
X185258432Y-66228998D01*
X185250988Y-66223826D01*
X185235231Y-66212017D01*
X185211705Y-66194385D01*
X185075316Y-66143255D01*
X185013134Y-66136500D01*
X184416866Y-66136500D01*
X184354684Y-66143255D01*
X184334230Y-66150923D01*
X184263423Y-66156106D01*
X184245770Y-66150923D01*
X184225316Y-66143255D01*
X184163134Y-66136500D01*
X183666866Y-66136500D01*
X183663469Y-66136869D01*
X183612534Y-66142402D01*
X183612532Y-66142402D01*
X183604684Y-66143255D01*
X183597291Y-66146027D01*
X183597289Y-66146027D01*
X183559229Y-66160295D01*
X183488422Y-66165478D01*
X183470771Y-66160295D01*
X183432711Y-66146027D01*
X183432709Y-66146027D01*
X183425316Y-66143255D01*
X183417468Y-66142402D01*
X183417466Y-66142402D01*
X183366531Y-66136869D01*
X183363134Y-66136500D01*
X182866866Y-66136500D01*
X182804684Y-66143255D01*
X182784230Y-66150923D01*
X182713423Y-66156106D01*
X182695770Y-66150923D01*
X182675316Y-66143255D01*
X182613134Y-66136500D01*
X182016866Y-66136500D01*
X181954684Y-66143255D01*
X181818295Y-66194385D01*
X181794769Y-66212017D01*
X181779012Y-66223826D01*
X181712506Y-66248674D01*
X181703447Y-66249000D01*
X181393872Y-66249000D01*
X181325751Y-66228998D01*
X181304855Y-66212174D01*
X181269495Y-66176876D01*
X181263303Y-66170695D01*
X181255894Y-66166128D01*
X181118968Y-66081725D01*
X181118966Y-66081724D01*
X181112738Y-66077885D01*
X181032995Y-66051436D01*
X180951389Y-66024368D01*
X180951387Y-66024368D01*
X180944861Y-66022203D01*
X180938025Y-66021503D01*
X180938022Y-66021502D01*
X180894969Y-66017091D01*
X180840400Y-66011500D01*
X179839600Y-66011500D01*
X179836354Y-66011837D01*
X179836350Y-66011837D01*
X179740692Y-66021762D01*
X179740688Y-66021763D01*
X179733834Y-66022474D01*
X179727298Y-66024655D01*
X179727296Y-66024655D01*
X179595194Y-66068728D01*
X179566054Y-66078450D01*
X179415652Y-66171522D01*
X179395976Y-66191233D01*
X179375228Y-66212017D01*
X179312945Y-66246097D01*
X179286054Y-66249000D01*
X178169570Y-66249000D01*
X178150620Y-66247567D01*
X178136385Y-66245401D01*
X178136381Y-66245401D01*
X178129151Y-66244301D01*
X178121859Y-66244894D01*
X178121856Y-66244894D01*
X178076482Y-66248585D01*
X178066267Y-66249000D01*
X178058207Y-66249000D01*
X178054573Y-66249424D01*
X178054567Y-66249424D01*
X178041542Y-66250943D01*
X178029980Y-66252291D01*
X178025632Y-66252721D01*
X178003559Y-66254516D01*
X177960162Y-66258046D01*
X177960159Y-66258047D01*
X177952864Y-66258640D01*
X177945900Y-66260896D01*
X177939961Y-66262083D01*
X177934090Y-66263470D01*
X177926819Y-66264318D01*
X177919943Y-66266814D01*
X177919934Y-66266816D01*
X177858202Y-66289225D01*
X177854098Y-66290635D01*
X177784601Y-66313148D01*
X177778344Y-66316945D01*
X177771682Y-66319995D01*
X177771476Y-66319544D01*
X177761482Y-66324333D01*
X177760621Y-66324646D01*
X177759518Y-66321612D01*
X177703753Y-66331647D01*
X177638173Y-66304448D01*
X177628260Y-66295548D01*
X177627772Y-66295060D01*
X177568303Y-66235695D01*
X177530145Y-66212174D01*
X177423968Y-66146725D01*
X177423966Y-66146724D01*
X177417738Y-66142885D01*
X177324607Y-66111995D01*
X177256389Y-66089368D01*
X177256387Y-66089368D01*
X177249861Y-66087203D01*
X177243025Y-66086503D01*
X177243022Y-66086502D01*
X177196396Y-66081725D01*
X177145400Y-66076500D01*
X176544600Y-66076500D01*
X176541354Y-66076837D01*
X176541350Y-66076837D01*
X176445692Y-66086762D01*
X176445688Y-66086763D01*
X176438834Y-66087474D01*
X176432298Y-66089655D01*
X176432296Y-66089655D01*
X176354686Y-66115548D01*
X176271054Y-66143450D01*
X176120652Y-66236522D01*
X175995695Y-66361697D01*
X175992898Y-66366235D01*
X175935647Y-66406824D01*
X175864724Y-66410054D01*
X175803313Y-66374428D01*
X175795938Y-66365932D01*
X175787902Y-66355793D01*
X175673171Y-66241261D01*
X175661760Y-66232249D01*
X175523757Y-66147184D01*
X175510576Y-66141037D01*
X175356290Y-66089862D01*
X175342914Y-66086995D01*
X175248562Y-66077328D01*
X175242145Y-66077000D01*
X175217115Y-66077000D01*
X175201876Y-66081475D01*
X175200671Y-66082865D01*
X175199000Y-66090548D01*
X175199000Y-67438000D01*
X175178998Y-67506121D01*
X175125342Y-67552614D01*
X175073000Y-67564000D01*
X173955116Y-67564000D01*
X173939877Y-67568475D01*
X173938672Y-67569865D01*
X173937001Y-67577548D01*
X173937001Y-67832095D01*
X173937338Y-67838614D01*
X173947257Y-67934206D01*
X173950149Y-67947600D01*
X174001588Y-68101784D01*
X174007761Y-68114962D01*
X174067861Y-68212081D01*
X174086699Y-68280532D01*
X174065538Y-68348302D01*
X174011097Y-68393873D01*
X173973888Y-68403694D01*
X173822288Y-68419628D01*
X173822286Y-68419629D01*
X173815288Y-68420364D01*
X173643579Y-68478818D01*
X173589856Y-68511869D01*
X173495095Y-68570166D01*
X173495092Y-68570168D01*
X173489088Y-68573862D01*
X173484053Y-68578793D01*
X173484050Y-68578795D01*
X173373745Y-68686814D01*
X173359493Y-68700771D01*
X173261235Y-68853238D01*
X173258826Y-68859858D01*
X173258824Y-68859861D01*
X173216814Y-68975283D01*
X173199197Y-69023685D01*
X173176463Y-69203640D01*
X173194163Y-69384160D01*
X173251418Y-69556273D01*
X173255065Y-69562295D01*
X173255066Y-69562297D01*
X173313400Y-69658618D01*
X173345380Y-69711424D01*
X173350269Y-69716487D01*
X173350270Y-69716488D01*
X173406549Y-69774766D01*
X173471382Y-69841902D01*
X173493690Y-69856500D01*
X173604418Y-69928958D01*
X173623159Y-69941222D01*
X173629763Y-69943678D01*
X173629765Y-69943679D01*
X173786558Y-70001990D01*
X173786560Y-70001990D01*
X173793168Y-70004448D01*
X173872580Y-70015044D01*
X173965980Y-70027507D01*
X173965984Y-70027507D01*
X173972961Y-70028438D01*
X173979972Y-70027800D01*
X173979976Y-70027800D01*
X174046953Y-70021704D01*
X174049996Y-70021427D01*
X174119649Y-70035172D01*
X174170814Y-70084393D01*
X174182412Y-70111751D01*
X174185855Y-70123601D01*
X174189892Y-70130427D01*
X174266509Y-70259980D01*
X174266511Y-70259983D01*
X174270547Y-70266807D01*
X174388193Y-70384453D01*
X174392002Y-70386706D01*
X174432655Y-70442996D01*
X174436506Y-70513888D01*
X174401418Y-70575609D01*
X174393724Y-70582276D01*
X174388193Y-70585547D01*
X174270547Y-70703193D01*
X174266511Y-70710017D01*
X174266509Y-70710020D01*
X174229170Y-70773158D01*
X174185855Y-70846399D01*
X174139438Y-71006169D01*
X174136500Y-71043498D01*
X174136500Y-71723807D01*
X174116498Y-71791928D01*
X174062842Y-71838421D01*
X173992568Y-71848525D01*
X173927988Y-71819031D01*
X173921094Y-71812591D01*
X173869778Y-71760915D01*
X173869774Y-71760912D01*
X173864815Y-71755918D01*
X173840702Y-71740615D01*
X173789497Y-71708120D01*
X173711666Y-71658727D01*
X173540790Y-71597881D01*
X173500529Y-71593080D01*
X173494581Y-71592371D01*
X173429308Y-71564443D01*
X173389495Y-71505660D01*
X173383500Y-71467257D01*
X173383500Y-70619600D01*
X173379913Y-70585030D01*
X173373238Y-70520692D01*
X173373237Y-70520688D01*
X173372526Y-70513834D01*
X173356734Y-70466498D01*
X173318868Y-70353002D01*
X173316550Y-70346054D01*
X173223478Y-70195652D01*
X173200218Y-70172432D01*
X173103483Y-70075866D01*
X173098303Y-70070695D01*
X173068745Y-70052475D01*
X172953968Y-69981725D01*
X172953966Y-69981724D01*
X172947738Y-69977885D01*
X172830699Y-69939065D01*
X172786389Y-69924368D01*
X172786387Y-69924368D01*
X172779861Y-69922203D01*
X172773025Y-69921503D01*
X172773022Y-69921502D01*
X172729969Y-69917091D01*
X172675400Y-69911500D01*
X172049600Y-69911500D01*
X172046354Y-69911837D01*
X172046350Y-69911837D01*
X171950692Y-69921762D01*
X171950688Y-69921763D01*
X171943834Y-69922474D01*
X171937298Y-69924655D01*
X171937296Y-69924655D01*
X171882424Y-69942962D01*
X171776054Y-69978450D01*
X171625652Y-70071522D01*
X171556643Y-70140652D01*
X171539216Y-70158109D01*
X171476934Y-70192188D01*
X171406114Y-70187185D01*
X171361025Y-70158264D01*
X171278483Y-70075866D01*
X171273303Y-70070695D01*
X171243745Y-70052475D01*
X171128968Y-69981725D01*
X171128966Y-69981724D01*
X171122738Y-69977885D01*
X171005699Y-69939065D01*
X170961389Y-69924368D01*
X170961387Y-69924368D01*
X170954861Y-69922203D01*
X170948025Y-69921503D01*
X170948022Y-69921502D01*
X170904969Y-69917091D01*
X170850400Y-69911500D01*
X170224600Y-69911500D01*
X170221354Y-69911837D01*
X170221350Y-69911837D01*
X170125692Y-69921762D01*
X170125688Y-69921763D01*
X170118834Y-69922474D01*
X170112298Y-69924655D01*
X170112296Y-69924655D01*
X170057424Y-69942962D01*
X169951054Y-69978450D01*
X169800652Y-70071522D01*
X169675695Y-70196697D01*
X169671855Y-70202927D01*
X169671854Y-70202928D01*
X169616788Y-70292262D01*
X169582885Y-70347262D01*
X169570222Y-70385440D01*
X169565337Y-70400168D01*
X169524906Y-70458527D01*
X169459342Y-70485764D01*
X169445744Y-70486500D01*
X168967633Y-70486500D01*
X168899512Y-70466498D01*
X168853019Y-70412842D01*
X168845930Y-70393121D01*
X168827120Y-70322924D01*
X168771165Y-70202928D01*
X168736382Y-70128334D01*
X168736379Y-70128329D01*
X168734056Y-70123347D01*
X168728903Y-70115988D01*
X168610908Y-69947473D01*
X168610906Y-69947470D01*
X168607749Y-69942962D01*
X168452038Y-69787251D01*
X168271654Y-69660944D01*
X168266666Y-69658618D01*
X168266663Y-69658616D01*
X168182123Y-69619195D01*
X168128837Y-69572278D01*
X168109376Y-69504001D01*
X168129918Y-69436041D01*
X168182123Y-69390805D01*
X168266663Y-69351384D01*
X168266669Y-69351380D01*
X168271654Y-69349056D01*
X168452038Y-69222749D01*
X168607749Y-69067038D01*
X168659383Y-68993298D01*
X168730899Y-68891162D01*
X168730900Y-68891160D01*
X168734056Y-68886653D01*
X168736379Y-68881671D01*
X168736382Y-68881666D01*
X168820734Y-68700771D01*
X168827120Y-68687076D01*
X168884115Y-68474371D01*
X168903307Y-68255000D01*
X168884115Y-68035629D01*
X168827120Y-67822924D01*
X168783585Y-67729562D01*
X168736382Y-67628334D01*
X168736379Y-67628329D01*
X168734056Y-67623347D01*
X168701987Y-67577548D01*
X168610908Y-67447473D01*
X168610906Y-67447470D01*
X168607749Y-67442962D01*
X168452038Y-67287251D01*
X168271654Y-67160944D01*
X168072076Y-67067880D01*
X167859371Y-67010885D01*
X167640000Y-66991693D01*
X167499777Y-67003961D01*
X167430174Y-66989972D01*
X167379182Y-66940572D01*
X167362991Y-66871447D01*
X167386743Y-66804541D01*
X167400142Y-66790620D01*
X167413125Y-66772442D01*
X167406608Y-66760818D01*
X165919885Y-65274095D01*
X165885859Y-65211783D01*
X165887694Y-65186132D01*
X166554408Y-65186132D01*
X166554539Y-65187965D01*
X166558790Y-65194580D01*
X167765730Y-66401520D01*
X167777939Y-66408187D01*
X167789439Y-66399497D01*
X167886831Y-66266913D01*
X167891418Y-66259685D01*
X168017962Y-66026621D01*
X168021530Y-66018827D01*
X168115271Y-65770750D01*
X168117748Y-65762544D01*
X168176954Y-65504038D01*
X168178294Y-65495577D01*
X168202031Y-65229616D01*
X168202277Y-65224677D01*
X168202666Y-65187485D01*
X168202523Y-65182519D01*
X168184362Y-64916123D01*
X168183201Y-64907649D01*
X168129419Y-64647944D01*
X168127120Y-64639709D01*
X168038588Y-64389705D01*
X168035191Y-64381854D01*
X167913550Y-64146178D01*
X167909122Y-64138866D01*
X167790031Y-63969417D01*
X167779509Y-63961037D01*
X167766121Y-63968089D01*
X166562022Y-65172188D01*
X166554408Y-65186132D01*
X165887694Y-65186132D01*
X165890924Y-65140968D01*
X165919885Y-65095905D01*
X167406604Y-63609186D01*
X167413796Y-63596016D01*
X167397193Y-63572806D01*
X167373829Y-63505764D01*
X167390419Y-63436733D01*
X167441697Y-63387630D01*
X167499673Y-63373500D01*
X169473275Y-63373500D01*
X169541396Y-63393502D01*
G37*
G04 #@! TD.AperFunction*
G04 #@! TA.AperFunction,Conductor*
G36*
X175962904Y-71541182D02*
G01*
X176016535Y-71587704D01*
X176036500Y-71655767D01*
X176036500Y-72201502D01*
X176036693Y-72203950D01*
X176036693Y-72203958D01*
X176038196Y-72223047D01*
X176039438Y-72238831D01*
X176041232Y-72245007D01*
X176041233Y-72245011D01*
X176048498Y-72270018D01*
X176048295Y-72341015D01*
X176009740Y-72400631D01*
X175945075Y-72429938D01*
X175914658Y-72430514D01*
X175883560Y-72427328D01*
X175877145Y-72427000D01*
X175863710Y-72427000D01*
X175795589Y-72406998D01*
X175749096Y-72353342D01*
X175738992Y-72283068D01*
X175742713Y-72265847D01*
X175743962Y-72261550D01*
X175750562Y-72238831D01*
X175751805Y-72223047D01*
X175753307Y-72203958D01*
X175753307Y-72203950D01*
X175753500Y-72201502D01*
X175753500Y-71660207D01*
X175773502Y-71592086D01*
X175827158Y-71545593D01*
X175861636Y-71535480D01*
X175892636Y-71531040D01*
X175962904Y-71541182D01*
G37*
G04 #@! TD.AperFunction*
G04 #@! TA.AperFunction,Conductor*
G36*
X175978621Y-69113502D02*
G01*
X176025114Y-69167158D01*
X176036500Y-69219500D01*
X176036500Y-69926502D01*
X176036693Y-69928950D01*
X176036693Y-69928958D01*
X176038151Y-69947473D01*
X176039438Y-69963831D01*
X176085855Y-70123601D01*
X176089892Y-70130427D01*
X176131453Y-70200703D01*
X176149000Y-70264842D01*
X176149000Y-70432000D01*
X176128998Y-70500121D01*
X176075342Y-70546614D01*
X176023000Y-70558000D01*
X175767000Y-70558000D01*
X175698879Y-70537998D01*
X175652386Y-70484342D01*
X175641000Y-70432000D01*
X175641000Y-70264842D01*
X175658547Y-70200703D01*
X175700108Y-70130427D01*
X175704145Y-70123601D01*
X175750562Y-69963831D01*
X175751850Y-69947473D01*
X175753307Y-69928958D01*
X175753307Y-69928950D01*
X175753500Y-69926502D01*
X175753500Y-69219500D01*
X175773502Y-69151379D01*
X175827158Y-69104886D01*
X175879500Y-69093500D01*
X175910500Y-69093500D01*
X175978621Y-69113502D01*
G37*
G04 #@! TD.AperFunction*
M02*
