G04 #@! TF.GenerationSoftware,KiCad,Pcbnew,6.0.8-f2edbf62ab~116~ubuntu22.04.1*
G04 #@! TF.CreationDate,2022-10-13T12:47:22+02:00*
G04 #@! TF.ProjectId,Dual USB Controller adapter CPC,4475616c-2055-4534-9220-436f6e74726f,0.2*
G04 #@! TF.SameCoordinates,Original*
G04 #@! TF.FileFunction,Legend,Top*
G04 #@! TF.FilePolarity,Positive*
%FSLAX46Y46*%
G04 Gerber Fmt 4.6, Leading zero omitted, Abs format (unit mm)*
G04 Created by KiCad (PCBNEW 6.0.8-f2edbf62ab~116~ubuntu22.04.1) date 2022-10-13 12:47:22*
%MOMM*%
%LPD*%
G01*
G04 APERTURE LIST*
G04 Aperture macros list*
%AMRoundRect*
0 Rectangle with rounded corners*
0 $1 Rounding radius*
0 $2 $3 $4 $5 $6 $7 $8 $9 X,Y pos of 4 corners*
0 Add a 4 corners polygon primitive as box body*
4,1,4,$2,$3,$4,$5,$6,$7,$8,$9,$2,$3,0*
0 Add four circle primitives for the rounded corners*
1,1,$1+$1,$2,$3*
1,1,$1+$1,$4,$5*
1,1,$1+$1,$6,$7*
1,1,$1+$1,$8,$9*
0 Add four rect primitives between the rounded corners*
20,1,$1+$1,$2,$3,$4,$5,0*
20,1,$1+$1,$4,$5,$6,$7,0*
20,1,$1+$1,$6,$7,$8,$9,0*
20,1,$1+$1,$8,$9,$2,$3,0*%
%AMRotRect*
0 Rectangle, with rotation*
0 The origin of the aperture is its center*
0 $1 length*
0 $2 width*
0 $3 Rotation angle, in degrees counterclockwise*
0 Add horizontal line*
21,1,$1,$2,0,0,$3*%
G04 Aperture macros list end*
%ADD10C,0.150000*%
%ADD11C,0.120000*%
%ADD12RotRect,0.900000X0.800000X45.000000*%
%ADD13RoundRect,0.318150X-0.318150X-0.381850X0.318150X-0.381850X0.318150X0.381850X-0.318150X0.381850X0*%
%ADD14RoundRect,0.250000X0.250000X0.475000X-0.250000X0.475000X-0.250000X-0.475000X0.250000X-0.475000X0*%
%ADD15RoundRect,0.250000X-0.475000X0.250000X-0.475000X-0.250000X0.475000X-0.250000X0.475000X0.250000X0*%
%ADD16RoundRect,0.250000X0.475000X-0.250000X0.475000X0.250000X-0.475000X0.250000X-0.475000X-0.250000X0*%
%ADD17RoundRect,0.250000X-0.250000X-0.475000X0.250000X-0.475000X0.250000X0.475000X-0.250000X0.475000X0*%
%ADD18R,3.480000X1.846667*%
%ADD19RoundRect,0.250000X-0.262500X-0.450000X0.262500X-0.450000X0.262500X0.450000X-0.262500X0.450000X0*%
%ADD20R,0.500000X0.800000*%
%ADD21R,0.400000X0.800000*%
%ADD22RoundRect,0.150000X-0.150000X0.587500X-0.150000X-0.587500X0.150000X-0.587500X0.150000X0.587500X0*%
%ADD23RoundRect,0.250000X-1.075000X0.312500X-1.075000X-0.312500X1.075000X-0.312500X1.075000X0.312500X0*%
%ADD24RoundRect,0.250000X-0.450000X0.262500X-0.450000X-0.262500X0.450000X-0.262500X0.450000X0.262500X0*%
%ADD25R,1.846667X3.480000*%
%ADD26R,1.800000X1.800000*%
%ADD27C,1.800000*%
%ADD28C,1.200000*%
%ADD29C,1.500000*%
%ADD30R,1.500000X1.500000*%
%ADD31RoundRect,0.250000X0.450000X-0.262500X0.450000X0.262500X-0.450000X0.262500X-0.450000X-0.262500X0*%
%ADD32R,1.700000X1.300000*%
%ADD33RoundRect,0.075000X-0.700000X-0.075000X0.700000X-0.075000X0.700000X0.075000X-0.700000X0.075000X0*%
%ADD34RoundRect,0.075000X-0.075000X-0.700000X0.075000X-0.700000X0.075000X0.700000X-0.075000X0.700000X0*%
%ADD35R,1.700000X1.700000*%
%ADD36O,1.700000X1.700000*%
%ADD37R,3.500000X3.500000*%
%ADD38RoundRect,0.750000X-1.000000X0.750000X-1.000000X-0.750000X1.000000X-0.750000X1.000000X0.750000X0*%
%ADD39RoundRect,0.875000X-0.875000X0.875000X-0.875000X-0.875000X0.875000X-0.875000X0.875000X0.875000X0*%
%ADD40C,3.000000*%
%ADD41RoundRect,0.150000X-0.150000X0.512500X-0.150000X-0.512500X0.150000X-0.512500X0.150000X0.512500X0*%
G04 APERTURE END LIST*
D10*
X185820238Y-77867380D02*
X185772619Y-78010238D01*
X185772619Y-78248333D01*
X185820238Y-78343571D01*
X185867857Y-78391190D01*
X185963095Y-78438809D01*
X186058333Y-78438809D01*
X186153571Y-78391190D01*
X186201190Y-78343571D01*
X186248809Y-78248333D01*
X186296428Y-78057857D01*
X186344047Y-77962619D01*
X186391666Y-77915000D01*
X186486904Y-77867380D01*
X186582142Y-77867380D01*
X186677380Y-77915000D01*
X186725000Y-77962619D01*
X186772619Y-78057857D01*
X186772619Y-78295952D01*
X186725000Y-78438809D01*
X186772619Y-78724523D02*
X186772619Y-79295952D01*
X185772619Y-79010238D02*
X186772619Y-79010238D01*
X185772619Y-79629285D02*
X186772619Y-79629285D01*
X186058333Y-79962619D01*
X186772619Y-80295952D01*
X185772619Y-80295952D01*
X186772619Y-80676904D02*
X186772619Y-81295952D01*
X186391666Y-80962619D01*
X186391666Y-81105476D01*
X186344047Y-81200714D01*
X186296428Y-81248333D01*
X186201190Y-81295952D01*
X185963095Y-81295952D01*
X185867857Y-81248333D01*
X185820238Y-81200714D01*
X185772619Y-81105476D01*
X185772619Y-80819761D01*
X185820238Y-80724523D01*
X185867857Y-80676904D01*
X186677380Y-81676904D02*
X186725000Y-81724523D01*
X186772619Y-81819761D01*
X186772619Y-82057857D01*
X186725000Y-82153095D01*
X186677380Y-82200714D01*
X186582142Y-82248333D01*
X186486904Y-82248333D01*
X186344047Y-82200714D01*
X185772619Y-81629285D01*
X185772619Y-82248333D01*
X186296428Y-83010238D02*
X186296428Y-82676904D01*
X185772619Y-82676904D02*
X186772619Y-82676904D01*
X186772619Y-83153095D01*
X186677380Y-83486428D02*
X186725000Y-83534047D01*
X186772619Y-83629285D01*
X186772619Y-83867380D01*
X186725000Y-83962619D01*
X186677380Y-84010238D01*
X186582142Y-84057857D01*
X186486904Y-84057857D01*
X186344047Y-84010238D01*
X185772619Y-83438809D01*
X185772619Y-84057857D01*
X186772619Y-84676904D02*
X186772619Y-84772142D01*
X186725000Y-84867380D01*
X186677380Y-84915000D01*
X186582142Y-84962619D01*
X186391666Y-85010238D01*
X186153571Y-85010238D01*
X185963095Y-84962619D01*
X185867857Y-84915000D01*
X185820238Y-84867380D01*
X185772619Y-84772142D01*
X185772619Y-84676904D01*
X185820238Y-84581666D01*
X185867857Y-84534047D01*
X185963095Y-84486428D01*
X186153571Y-84438809D01*
X186391666Y-84438809D01*
X186582142Y-84486428D01*
X186677380Y-84534047D01*
X186725000Y-84581666D01*
X186772619Y-84676904D01*
X186772619Y-85915000D02*
X186772619Y-85438809D01*
X186296428Y-85391190D01*
X186344047Y-85438809D01*
X186391666Y-85534047D01*
X186391666Y-85772142D01*
X186344047Y-85867380D01*
X186296428Y-85915000D01*
X186201190Y-85962619D01*
X185963095Y-85962619D01*
X185867857Y-85915000D01*
X185820238Y-85867380D01*
X185772619Y-85772142D01*
X185772619Y-85534047D01*
X185820238Y-85438809D01*
X185867857Y-85391190D01*
X184162619Y-81081666D02*
X184638809Y-80748333D01*
X184162619Y-80510238D02*
X185162619Y-80510238D01*
X185162619Y-80891190D01*
X185115000Y-80986428D01*
X185067380Y-81034047D01*
X184972142Y-81081666D01*
X184829285Y-81081666D01*
X184734047Y-81034047D01*
X184686428Y-80986428D01*
X184638809Y-80891190D01*
X184638809Y-80510238D01*
X184067380Y-81272142D02*
X184067380Y-82034047D01*
X185162619Y-82129285D02*
X185162619Y-82700714D01*
X184162619Y-82415000D02*
X185162619Y-82415000D01*
X184067380Y-82795952D02*
X184067380Y-83557857D01*
X177419047Y-92781428D02*
X178180952Y-92781428D01*
X177800000Y-93162380D02*
X177800000Y-92400476D01*
D11*
X178928488Y-70965973D02*
X177896112Y-71998348D01*
X176694030Y-68731515D02*
X175166680Y-70258866D01*
X178928488Y-70965973D02*
X178270879Y-70308363D01*
X176694030Y-68731515D02*
X177351640Y-69389124D01*
X192781422Y-75490000D02*
X193298578Y-75490000D01*
X192781422Y-76910000D02*
X193298578Y-76910000D01*
X176156252Y-66575000D02*
X175633748Y-66575000D01*
X176156252Y-68045000D02*
X175633748Y-68045000D01*
X175795000Y-81018748D02*
X175795000Y-81541252D01*
X177265000Y-81018748D02*
X177265000Y-81541252D01*
X192781422Y-88825000D02*
X193298578Y-88825000D01*
X192781422Y-90245000D02*
X193298578Y-90245000D01*
X180440000Y-89493752D02*
X180440000Y-88971248D01*
X178970000Y-89493752D02*
X178970000Y-88971248D01*
X192778748Y-88365000D02*
X193301252Y-88365000D01*
X192778748Y-86895000D02*
X193301252Y-86895000D01*
X192778748Y-75030000D02*
X193301252Y-75030000D01*
X192778748Y-73560000D02*
X193301252Y-73560000D01*
X195485000Y-88003333D02*
X199225000Y-88003333D01*
X199225000Y-74556667D02*
X195485000Y-74556667D01*
X195485000Y-74556667D02*
X195485000Y-88003333D01*
X195245000Y-74316667D02*
X195245000Y-78510000D01*
X197485000Y-74316667D02*
X195245000Y-74316667D01*
X171222936Y-88165000D02*
X171677064Y-88165000D01*
X171222936Y-89635000D02*
X171677064Y-89635000D01*
X187550000Y-91575000D02*
X187550000Y-92575000D01*
X190910000Y-91575000D02*
X190910000Y-92575000D01*
X171222936Y-70385000D02*
X171677064Y-70385000D01*
X171222936Y-71855000D02*
X171677064Y-71855000D01*
X185075000Y-71755000D02*
X185075000Y-72405000D01*
X181955000Y-71755000D02*
X181955000Y-72405000D01*
X185075000Y-71755000D02*
X185075000Y-70080000D01*
X181955000Y-71755000D02*
X181955000Y-71105000D01*
X185970000Y-71666263D02*
X185970000Y-73113737D01*
X188680000Y-71666263D02*
X188680000Y-73113737D01*
X186790000Y-91847936D02*
X186790000Y-92302064D01*
X185320000Y-91847936D02*
X185320000Y-92302064D01*
X192778333Y-98895000D02*
X192778333Y-95155000D01*
X179091667Y-94915000D02*
X183285000Y-94915000D01*
X179331667Y-95155000D02*
X179331667Y-98895000D01*
X179091667Y-97155000D02*
X179091667Y-94915000D01*
X192778333Y-95155000D02*
X179331667Y-95155000D01*
X171222936Y-66575000D02*
X171677064Y-66575000D01*
X171222936Y-68045000D02*
X171677064Y-68045000D01*
X180440000Y-92482936D02*
X180440000Y-92937064D01*
X178970000Y-92482936D02*
X178970000Y-92937064D01*
X177131000Y-89245000D02*
X176975000Y-89245000D01*
X174815000Y-89245000D02*
X174659000Y-89245000D01*
X176974837Y-91846130D02*
G75*
G03*
X176975000Y-89764039I-1079837J1041130D01*
G01*
X174659484Y-89245000D02*
G75*
G03*
X174816392Y-92477335I1235516J-1560000D01*
G01*
X174815000Y-89764039D02*
G75*
G03*
X174815163Y-91846130I1080000J-1040961D01*
G01*
X176973608Y-92477335D02*
G75*
G03*
X177130516Y-89245000I-1078608J1672335D01*
G01*
X199315000Y-91900000D02*
X193115000Y-91900000D01*
X198955000Y-94133334D02*
X199315000Y-94133334D01*
X199315000Y-98600000D02*
X199315000Y-96366666D01*
X193115000Y-98600000D02*
X199315000Y-98600000D01*
X198955000Y-96366666D02*
X198955000Y-94133334D01*
X199315000Y-94133334D02*
X199315000Y-91900000D01*
X199315000Y-96366666D02*
X198955000Y-96366666D01*
X193115000Y-91900000D02*
X193115000Y-98600000D01*
X177265000Y-78063752D02*
X177265000Y-77541248D01*
X175795000Y-78063752D02*
X175795000Y-77541248D01*
X175245000Y-77980000D02*
X175245000Y-84380000D01*
X170195000Y-77980000D02*
X170195000Y-84380000D01*
X175245000Y-77980000D02*
G75*
G03*
X170195000Y-77980000I-2525000J0D01*
G01*
X170195000Y-84380000D02*
G75*
G03*
X175245000Y-84380000I2525000J0D01*
G01*
X177265000Y-85018752D02*
X177265000Y-84496248D01*
X175795000Y-85018752D02*
X175795000Y-84496248D01*
X177050000Y-98370000D02*
X170930000Y-98370000D01*
X177050000Y-94670000D02*
X177050000Y-98370000D01*
X170930000Y-98370000D02*
X170930000Y-94670000D01*
X170930000Y-94670000D02*
X177050000Y-94670000D01*
X179605000Y-68172064D02*
X179605000Y-67717936D01*
X181075000Y-68172064D02*
X181075000Y-67717936D01*
X181340000Y-74140000D02*
X181340000Y-69840000D01*
X179340000Y-69840000D02*
X179340000Y-74140000D01*
X181340000Y-69840000D02*
X179340000Y-69840000D01*
X181260000Y-76805000D02*
X180310000Y-76805000D01*
X189580000Y-76805000D02*
X190530000Y-76805000D01*
X190530000Y-87025000D02*
X190530000Y-86075000D01*
X189580000Y-87025000D02*
X190530000Y-87025000D01*
X181260000Y-87025000D02*
X180310000Y-87025000D01*
X180310000Y-76805000D02*
X180310000Y-77755000D01*
X190530000Y-76805000D02*
X190530000Y-77755000D01*
X180310000Y-87025000D02*
X180310000Y-86075000D01*
X180310000Y-77755000D02*
X178970000Y-77755000D01*
X176791252Y-72925000D02*
X176268748Y-72925000D01*
X176791252Y-74395000D02*
X176268748Y-74395000D01*
X181200000Y-91575000D02*
X181200000Y-92575000D01*
X184560000Y-91575000D02*
X184560000Y-92575000D01*
X171222936Y-90705000D02*
X171677064Y-90705000D01*
X171222936Y-92175000D02*
X171677064Y-92175000D01*
X184785000Y-62805000D02*
X184785000Y-65465000D01*
X184785000Y-62805000D02*
X169485000Y-62805000D01*
X187385000Y-62805000D02*
X187385000Y-64135000D01*
X169485000Y-62805000D02*
X169485000Y-65465000D01*
X186055000Y-62805000D02*
X187385000Y-62805000D01*
X184785000Y-65465000D02*
X169485000Y-65465000D01*
X171222936Y-72925000D02*
X171677064Y-72925000D01*
X171222936Y-74395000D02*
X171677064Y-74395000D01*
X181835000Y-67445000D02*
X181835000Y-68445000D01*
X185195000Y-67445000D02*
X185195000Y-68445000D01*
X198910000Y-56970000D02*
X198910000Y-71670000D01*
X189710000Y-56970000D02*
X198910000Y-56970000D01*
X189710000Y-71670000D02*
X189710000Y-69770000D01*
X192410000Y-71670000D02*
X189710000Y-71670000D01*
X198910000Y-71670000D02*
X196310000Y-71670000D01*
X189710000Y-65770000D02*
X189710000Y-56970000D01*
X198060000Y-71870000D02*
X199110000Y-71870000D01*
X199110000Y-70820000D02*
X199110000Y-71870000D01*
X168780000Y-79250000D02*
X167640000Y-79250000D01*
X168780000Y-64260000D02*
X167640000Y-64260000D01*
X168780000Y-79250000D02*
X168780000Y-64260000D01*
X168780000Y-97665000D02*
X167640000Y-97665000D01*
X168780000Y-82675000D02*
X167640000Y-82675000D01*
X168780000Y-97665000D02*
X168780000Y-82675000D01*
X174335000Y-70485000D02*
X174335000Y-69685000D01*
X174335000Y-70485000D02*
X174335000Y-71285000D01*
X177455000Y-70485000D02*
X177455000Y-68685000D01*
X177455000Y-70485000D02*
X177455000Y-71285000D01*
%LPC*%
D12*
X175895000Y-70421500D03*
X177238503Y-71765003D03*
X177980965Y-69679038D03*
D13*
X192251300Y-76200000D03*
X193828700Y-76200000D03*
D14*
X176845000Y-67310000D03*
X174945000Y-67310000D03*
D15*
X176530000Y-80330000D03*
X176530000Y-82230000D03*
D13*
X192251300Y-89535000D03*
X193828700Y-89535000D03*
D16*
X179705000Y-90182500D03*
X179705000Y-88282500D03*
D17*
X192090000Y-87630000D03*
X193990000Y-87630000D03*
X192090000Y-74295000D03*
X193990000Y-74295000D03*
D18*
X197485000Y-75740000D03*
X197485000Y-78510000D03*
X197485000Y-81280000D03*
X197485000Y-84050000D03*
X197485000Y-86820000D03*
D19*
X170537500Y-88900000D03*
X172362500Y-88900000D03*
D20*
X188030000Y-92975000D03*
D21*
X188830000Y-92975000D03*
X189630000Y-92975000D03*
D20*
X190430000Y-92975000D03*
X190430000Y-91175000D03*
D21*
X189630000Y-91175000D03*
X188830000Y-91175000D03*
D20*
X188030000Y-91175000D03*
D19*
X170537500Y-71120000D03*
X172362500Y-71120000D03*
D22*
X184465000Y-70817500D03*
X182565000Y-70817500D03*
X183515000Y-72692500D03*
D23*
X187325000Y-70927500D03*
X187325000Y-73852500D03*
D24*
X186055000Y-91162500D03*
X186055000Y-92987500D03*
D25*
X180515000Y-97155000D03*
X183285000Y-97155000D03*
X186055000Y-97155000D03*
X188825000Y-97155000D03*
X191595000Y-97155000D03*
D19*
X170537500Y-67310000D03*
X172362500Y-67310000D03*
D24*
X179705000Y-91797500D03*
X179705000Y-93622500D03*
D26*
X175895000Y-89535000D03*
D27*
X175895000Y-92075000D03*
D28*
X198215000Y-93000000D03*
X196215000Y-93000000D03*
X194215000Y-93000000D03*
X198215000Y-97500000D03*
X196215000Y-97500000D03*
X194215000Y-97500000D03*
D16*
X176530000Y-78752500D03*
X176530000Y-76852500D03*
D29*
X172720000Y-78740000D03*
X172720000Y-83620000D03*
D16*
X176530000Y-85707500D03*
X176530000Y-83807500D03*
D30*
X177890000Y-96520000D03*
X170090000Y-96520000D03*
D31*
X180340000Y-68857500D03*
X180340000Y-67032500D03*
D32*
X180340000Y-70640000D03*
X180340000Y-74140000D03*
D33*
X179745000Y-78165000D03*
X179745000Y-78665000D03*
X179745000Y-79165000D03*
X179745000Y-79665000D03*
X179745000Y-80165000D03*
X179745000Y-80665000D03*
X179745000Y-81165000D03*
X179745000Y-81665000D03*
X179745000Y-82165000D03*
X179745000Y-82665000D03*
X179745000Y-83165000D03*
X179745000Y-83665000D03*
X179745000Y-84165000D03*
X179745000Y-84665000D03*
X179745000Y-85165000D03*
X179745000Y-85665000D03*
D34*
X181670000Y-87590000D03*
X182170000Y-87590000D03*
X182670000Y-87590000D03*
X183170000Y-87590000D03*
X183670000Y-87590000D03*
X184170000Y-87590000D03*
X184670000Y-87590000D03*
X185170000Y-87590000D03*
X185670000Y-87590000D03*
X186170000Y-87590000D03*
X186670000Y-87590000D03*
X187170000Y-87590000D03*
X187670000Y-87590000D03*
X188170000Y-87590000D03*
X188670000Y-87590000D03*
X189170000Y-87590000D03*
D33*
X191095000Y-85665000D03*
X191095000Y-85165000D03*
X191095000Y-84665000D03*
X191095000Y-84165000D03*
X191095000Y-83665000D03*
X191095000Y-83165000D03*
X191095000Y-82665000D03*
X191095000Y-82165000D03*
X191095000Y-81665000D03*
X191095000Y-81165000D03*
X191095000Y-80665000D03*
X191095000Y-80165000D03*
X191095000Y-79665000D03*
X191095000Y-79165000D03*
X191095000Y-78665000D03*
X191095000Y-78165000D03*
D34*
X189170000Y-76240000D03*
X188670000Y-76240000D03*
X188170000Y-76240000D03*
X187670000Y-76240000D03*
X187170000Y-76240000D03*
X186670000Y-76240000D03*
X186170000Y-76240000D03*
X185670000Y-76240000D03*
X185170000Y-76240000D03*
X184670000Y-76240000D03*
X184170000Y-76240000D03*
X183670000Y-76240000D03*
X183170000Y-76240000D03*
X182670000Y-76240000D03*
X182170000Y-76240000D03*
X181670000Y-76240000D03*
D14*
X177480000Y-73660000D03*
X175580000Y-73660000D03*
D20*
X181680000Y-92975000D03*
D21*
X182480000Y-92975000D03*
X183280000Y-92975000D03*
D20*
X184080000Y-92975000D03*
X184080000Y-91175000D03*
D21*
X183280000Y-91175000D03*
X182480000Y-91175000D03*
D20*
X181680000Y-91175000D03*
D19*
X170537500Y-91440000D03*
X172362500Y-91440000D03*
D35*
X186055000Y-64135000D03*
D36*
X183515000Y-64135000D03*
X180975000Y-64135000D03*
X178435000Y-64135000D03*
X175895000Y-64135000D03*
X173355000Y-64135000D03*
X170815000Y-64135000D03*
D19*
X170537500Y-73660000D03*
X172362500Y-73660000D03*
D20*
X182315000Y-68845000D03*
D21*
X183115000Y-68845000D03*
X183915000Y-68845000D03*
D20*
X184715000Y-68845000D03*
X184715000Y-67045000D03*
D21*
X183915000Y-67045000D03*
X183115000Y-67045000D03*
D20*
X182315000Y-67045000D03*
D37*
X194310000Y-70770000D03*
D38*
X194310000Y-64770000D03*
D39*
X189610000Y-67770000D03*
D29*
X167640000Y-75255000D03*
X167640000Y-72755000D03*
X167640000Y-70755000D03*
X167640000Y-68255000D03*
D40*
X166190000Y-78325000D03*
X166190000Y-65185000D03*
D29*
X167640000Y-93670000D03*
X167640000Y-91170000D03*
X167640000Y-89170000D03*
X167640000Y-86670000D03*
D40*
X166190000Y-96740000D03*
X166190000Y-83600000D03*
D41*
X176845000Y-69347500D03*
X175895000Y-69347500D03*
X174945000Y-69347500D03*
X174945000Y-71622500D03*
X176845000Y-71622500D03*
M02*
