G04 #@! TF.GenerationSoftware,KiCad,Pcbnew,6.0.8-f2edbf62ab~116~ubuntu22.04.1*
G04 #@! TF.CreationDate,2022-10-13T12:47:22+02:00*
G04 #@! TF.ProjectId,Dual USB Controller adapter CPC,4475616c-2055-4534-9220-436f6e74726f,0.2*
G04 #@! TF.SameCoordinates,Original*
G04 #@! TF.FileFunction,Copper,L2,Bot*
G04 #@! TF.FilePolarity,Positive*
%FSLAX46Y46*%
G04 Gerber Fmt 4.6, Leading zero omitted, Abs format (unit mm)*
G04 Created by KiCad (PCBNEW 6.0.8-f2edbf62ab~116~ubuntu22.04.1) date 2022-10-13 12:47:22*
%MOMM*%
%LPD*%
G01*
G04 APERTURE LIST*
G04 Aperture macros list*
%AMRoundRect*
0 Rectangle with rounded corners*
0 $1 Rounding radius*
0 $2 $3 $4 $5 $6 $7 $8 $9 X,Y pos of 4 corners*
0 Add a 4 corners polygon primitive as box body*
4,1,4,$2,$3,$4,$5,$6,$7,$8,$9,$2,$3,0*
0 Add four circle primitives for the rounded corners*
1,1,$1+$1,$2,$3*
1,1,$1+$1,$4,$5*
1,1,$1+$1,$6,$7*
1,1,$1+$1,$8,$9*
0 Add four rect primitives between the rounded corners*
20,1,$1+$1,$2,$3,$4,$5,0*
20,1,$1+$1,$4,$5,$6,$7,0*
20,1,$1+$1,$6,$7,$8,$9,0*
20,1,$1+$1,$8,$9,$2,$3,0*%
G04 Aperture macros list end*
G04 #@! TA.AperFunction,SMDPad,CuDef*
%ADD10R,3.480000X1.846667*%
G04 #@! TD*
G04 #@! TA.AperFunction,SMDPad,CuDef*
%ADD11R,1.846667X3.480000*%
G04 #@! TD*
G04 #@! TA.AperFunction,ComponentPad*
%ADD12R,1.800000X1.800000*%
G04 #@! TD*
G04 #@! TA.AperFunction,ComponentPad*
%ADD13C,1.800000*%
G04 #@! TD*
G04 #@! TA.AperFunction,ComponentPad*
%ADD14C,1.200000*%
G04 #@! TD*
G04 #@! TA.AperFunction,ComponentPad*
%ADD15C,1.500000*%
G04 #@! TD*
G04 #@! TA.AperFunction,ComponentPad*
%ADD16R,1.700000X1.700000*%
G04 #@! TD*
G04 #@! TA.AperFunction,ComponentPad*
%ADD17O,1.700000X1.700000*%
G04 #@! TD*
G04 #@! TA.AperFunction,ComponentPad*
%ADD18R,3.500000X3.500000*%
G04 #@! TD*
G04 #@! TA.AperFunction,ComponentPad*
%ADD19RoundRect,0.750000X-1.000000X0.750000X-1.000000X-0.750000X1.000000X-0.750000X1.000000X0.750000X0*%
G04 #@! TD*
G04 #@! TA.AperFunction,ComponentPad*
%ADD20RoundRect,0.875000X-0.875000X0.875000X-0.875000X-0.875000X0.875000X-0.875000X0.875000X0.875000X0*%
G04 #@! TD*
G04 #@! TA.AperFunction,ComponentPad*
%ADD21C,3.000000*%
G04 #@! TD*
G04 #@! TA.AperFunction,ViaPad*
%ADD22C,0.600000*%
G04 #@! TD*
G04 #@! TA.AperFunction,Conductor*
%ADD23C,0.250000*%
G04 #@! TD*
G04 #@! TA.AperFunction,Conductor*
%ADD24C,0.500000*%
G04 #@! TD*
G04 APERTURE END LIST*
D10*
X197485000Y-77125000D03*
X197485000Y-79895000D03*
X197485000Y-82665000D03*
X197485000Y-85435000D03*
D11*
X181900000Y-97155000D03*
X184670000Y-97155000D03*
X187440000Y-97155000D03*
X190210000Y-97155000D03*
D12*
X175895000Y-89535000D03*
D13*
X175895000Y-92075000D03*
D14*
X198215000Y-93000000D03*
X196215000Y-93000000D03*
X194215000Y-93000000D03*
X198215000Y-97500000D03*
X196215000Y-97500000D03*
X194215000Y-97500000D03*
D15*
X172720000Y-78740000D03*
X172720000Y-83620000D03*
D16*
X186055000Y-64135000D03*
D17*
X183515000Y-64135000D03*
X180975000Y-64135000D03*
X178435000Y-64135000D03*
X175895000Y-64135000D03*
X173355000Y-64135000D03*
X170815000Y-64135000D03*
D18*
X194310000Y-70770000D03*
D19*
X194310000Y-64770000D03*
D20*
X189610000Y-67770000D03*
D15*
X167640000Y-75255000D03*
X167640000Y-72755000D03*
X167640000Y-70755000D03*
X167640000Y-68255000D03*
D21*
X166190000Y-78325000D03*
X166190000Y-65185000D03*
D15*
X167640000Y-93670000D03*
X167640000Y-91170000D03*
X167640000Y-89170000D03*
X167640000Y-86670000D03*
D21*
X166190000Y-96740000D03*
X166190000Y-83600000D03*
D22*
X181610000Y-81915000D03*
X196215000Y-89535000D03*
X178435000Y-76200000D03*
X185420000Y-81915000D03*
X171450000Y-93345000D03*
X180975000Y-88900000D03*
X171450000Y-76200000D03*
X182308500Y-77533500D03*
X182724997Y-83375498D03*
X181864000Y-72961500D03*
X182724997Y-79375000D03*
X182724997Y-85725000D03*
X188595000Y-81280000D03*
X189674500Y-81915000D03*
X182562500Y-74295000D03*
X187706002Y-86233000D03*
X189103000Y-89535000D03*
X181292500Y-79375000D03*
X173990012Y-74295000D03*
X181292500Y-80264000D03*
X173355000Y-72390000D03*
X178117500Y-85725000D03*
X188595000Y-94615000D03*
X188168025Y-89567620D03*
X190500000Y-86360000D03*
X191135000Y-94615000D03*
X194945000Y-78740000D03*
X188595000Y-78740000D03*
X195245024Y-76196616D03*
X189865000Y-77470000D03*
X189805000Y-94615000D03*
X189674500Y-86360000D03*
X182245000Y-94615000D03*
X184023000Y-78740000D03*
X187325000Y-89535000D03*
X186079442Y-94639442D03*
X184785000Y-89534998D03*
X183515000Y-94615000D03*
X181610000Y-93980000D03*
X183324498Y-78105000D03*
X177800000Y-67310000D03*
X173990000Y-69215000D03*
X182879996Y-90170000D03*
X185801000Y-78105000D03*
X186436000Y-78740000D03*
X189865000Y-74295000D03*
X192405000Y-79375000D03*
X194945000Y-80010000D03*
X189230000Y-78105000D03*
X187325000Y-94615000D03*
D23*
X186055000Y-82550000D02*
X186055000Y-82550000D01*
X181909999Y-81615001D02*
X181610000Y-81915000D01*
D24*
X186055000Y-93230000D02*
X186055000Y-83185000D01*
X196215000Y-89535000D02*
X190817500Y-84137500D01*
X171450000Y-75775736D02*
X171450000Y-76200000D01*
D23*
X182045000Y-81480000D02*
X181909999Y-81615001D01*
X181419500Y-74676000D02*
X182045000Y-75301500D01*
D24*
X190817500Y-84137500D02*
X187642500Y-84137500D01*
X187642500Y-84137500D02*
X186055000Y-82550000D01*
X173355000Y-70485000D02*
X171450000Y-72390000D01*
X171450000Y-72390000D02*
X171450000Y-75775736D01*
X170815000Y-92710000D02*
X170815000Y-76835000D01*
D23*
X182045000Y-75301500D02*
X182045000Y-81480000D01*
D24*
X184670000Y-94615000D02*
X186055000Y-93230000D01*
D23*
X181419500Y-74739500D02*
X181419500Y-74676000D01*
D24*
X170815000Y-76835000D02*
X171450000Y-76200000D01*
X181419500Y-74739500D02*
X177165000Y-70485000D01*
X184670000Y-97155000D02*
X184670000Y-94615000D01*
X171450000Y-93345000D02*
X170815000Y-92710000D01*
X186055000Y-82550000D02*
X184912000Y-81407000D01*
X177165000Y-70485000D02*
X173355000Y-70485000D01*
X184912000Y-81407000D02*
X184912000Y-78232000D01*
D23*
X180975000Y-82550000D02*
X181610000Y-81915000D01*
D24*
X186055000Y-83185000D02*
X186055000Y-82550000D01*
D23*
X180975000Y-88900000D02*
X180975000Y-82550000D01*
D24*
X184912000Y-78232000D02*
X181419500Y-74739500D01*
D23*
X179705000Y-66675000D02*
X179705000Y-70802500D01*
X179705000Y-70802500D02*
X181564001Y-72661501D01*
X181564001Y-72661501D02*
X181864000Y-72961500D01*
X178435000Y-65405000D02*
X179705000Y-66675000D01*
X174625000Y-65405000D02*
X178435000Y-65405000D01*
X173355000Y-64135000D02*
X174625000Y-65405000D01*
X182724997Y-79375000D02*
X182724997Y-85725000D01*
X187061001Y-79746001D02*
X188295001Y-80980001D01*
X178435000Y-64135000D02*
X180340000Y-66040000D01*
X180340000Y-70422501D02*
X187061001Y-77143502D01*
X187061001Y-77143502D02*
X187061001Y-79746001D01*
X180340000Y-66040000D02*
X180340000Y-70422501D01*
X188295001Y-80980001D02*
X188595000Y-81280000D01*
X180975000Y-64135000D02*
X180975000Y-70167500D01*
X189674500Y-81490736D02*
X189674500Y-81915000D01*
X187511012Y-76703512D02*
X187511012Y-79226401D01*
X180975000Y-70167500D02*
X187511012Y-76703512D01*
X187511012Y-79226401D02*
X189674500Y-81389889D01*
X189674500Y-81389889D02*
X189674500Y-81490736D01*
X170815000Y-64135000D02*
X172720000Y-66040000D01*
X179070000Y-67310000D02*
X179070000Y-71226764D01*
X182138236Y-74295000D02*
X182562500Y-74295000D01*
X172720000Y-66040000D02*
X177800000Y-66040000D01*
X177800000Y-66040000D02*
X179070000Y-67310000D01*
X179070000Y-71226764D02*
X182138236Y-74295000D01*
X189103000Y-87629998D02*
X187706002Y-86233000D01*
X189103000Y-89535000D02*
X189103000Y-87629998D01*
X181292500Y-79375000D02*
X179070012Y-79375000D01*
X179070012Y-79375000D02*
X173990012Y-74295000D01*
X173355000Y-74930000D02*
X173355000Y-72390000D01*
X181292500Y-80264000D02*
X178689000Y-80264000D01*
X178689000Y-80264000D02*
X173355000Y-74930000D01*
X175895000Y-87947500D02*
X177817501Y-86024999D01*
X177817501Y-86024999D02*
X178117500Y-85725000D01*
X175895000Y-89535000D02*
X175895000Y-87947500D01*
X188168025Y-89567620D02*
X188595000Y-89994595D01*
X188595000Y-89994595D02*
X188595000Y-94615000D01*
X191135000Y-94615000D02*
X190500000Y-93980000D01*
X190500000Y-86784264D02*
X190500000Y-86360000D01*
X190500000Y-93980000D02*
X190500000Y-86784264D01*
X194945000Y-78740000D02*
X188595000Y-78740000D01*
X195245024Y-76196616D02*
X193971640Y-77470000D01*
X193971640Y-77470000D02*
X190289264Y-77470000D01*
X190289264Y-77470000D02*
X189865000Y-77470000D01*
X190210000Y-95165000D02*
X189805000Y-94760000D01*
X190210000Y-97155000D02*
X190210000Y-95165000D01*
X189805000Y-86490500D02*
X189674500Y-86360000D01*
X189805000Y-94760000D02*
X189805000Y-94615000D01*
X189805000Y-94615000D02*
X189805000Y-86490500D01*
X181900000Y-97155000D02*
X181900000Y-94960000D01*
X184023000Y-79164264D02*
X184023000Y-78740000D01*
X184023000Y-92837000D02*
X184023000Y-79164264D01*
X182245000Y-94615000D02*
X184023000Y-92837000D01*
X181900000Y-94960000D02*
X182245000Y-94615000D01*
X187325000Y-89535000D02*
X187325000Y-93393884D01*
X187325000Y-93393884D02*
X186079442Y-94639442D01*
X184785000Y-93345000D02*
X184785000Y-89534998D01*
X183515000Y-94615000D02*
X184785000Y-93345000D01*
X183324498Y-78529264D02*
X183324498Y-78105000D01*
X183324498Y-78973762D02*
X183324498Y-78529264D01*
X181610000Y-93980000D02*
X183524999Y-92065001D01*
X183524999Y-79174263D02*
X183324498Y-78973762D01*
X183524999Y-92065001D02*
X183524999Y-79174263D01*
D24*
X169545000Y-84455000D02*
X169545000Y-75247500D01*
X169545000Y-93980000D02*
X169545000Y-84455000D01*
X169545000Y-73025000D02*
X169545000Y-75247500D01*
X169545000Y-84455000D02*
X169545000Y-84765000D01*
X170180000Y-69215000D02*
X168600000Y-69215000D01*
X169545000Y-74823236D02*
X169545000Y-75247500D01*
X169545000Y-69850000D02*
X169545000Y-74823236D01*
X170815000Y-95250000D02*
X169545000Y-93980000D01*
X170180000Y-69215000D02*
X169545000Y-69850000D01*
X175895000Y-69215000D02*
X170180000Y-69215000D01*
X169545000Y-73350000D02*
X169545000Y-73025000D01*
X182879996Y-90170000D02*
X177799996Y-95250000D01*
X177799996Y-95250000D02*
X170815000Y-95250000D01*
X177800000Y-67310000D02*
X175895000Y-69215000D01*
X169545000Y-84765000D02*
X167640000Y-86670000D01*
X168600000Y-69215000D02*
X167640000Y-68255000D01*
D23*
X185801000Y-78529264D02*
X185801000Y-78105000D01*
X185801000Y-80073500D02*
X185801000Y-78529264D01*
X188912500Y-83185000D02*
X185801000Y-80073500D01*
X193245000Y-83185000D02*
X188912500Y-83185000D01*
X197485000Y-85435000D02*
X195495000Y-85435000D01*
X195495000Y-85435000D02*
X193245000Y-83185000D01*
X189028910Y-82665000D02*
X186436000Y-80072090D01*
X186436000Y-79164264D02*
X186436000Y-78740000D01*
X186436000Y-80072090D02*
X186436000Y-79164264D01*
X197485000Y-82665000D02*
X189028910Y-82665000D01*
X189865000Y-74295000D02*
X186055000Y-70485000D01*
X186055000Y-70485000D02*
X186055000Y-64135000D01*
X181610000Y-66040000D02*
X183515000Y-64135000D01*
X187969999Y-76209999D02*
X181610000Y-69850000D01*
X188304998Y-79375000D02*
X187969999Y-79040001D01*
X181610000Y-69850000D02*
X181610000Y-66040000D01*
X192405000Y-79375000D02*
X188304998Y-79375000D01*
X187969999Y-79040001D02*
X187969999Y-76209999D01*
X195060000Y-79895000D02*
X194945000Y-80010000D01*
X197485000Y-79895000D02*
X195060000Y-79895000D01*
X194515000Y-78105000D02*
X189654264Y-78105000D01*
X197485000Y-77125000D02*
X195495000Y-77125000D01*
X189654264Y-78105000D02*
X189230000Y-78105000D01*
X195495000Y-77125000D02*
X194515000Y-78105000D01*
D24*
X187440000Y-97155000D02*
X187440000Y-94730000D01*
X187440000Y-94730000D02*
X187325000Y-94615000D01*
G04 #@! TA.AperFunction,Conductor*
G36*
X165166456Y-85328348D02*
G01*
X165235271Y-85371515D01*
X165242807Y-85375556D01*
X165484520Y-85484694D01*
X165492551Y-85487680D01*
X165746832Y-85563002D01*
X165755184Y-85564869D01*
X166017340Y-85604984D01*
X166025874Y-85605700D01*
X166291045Y-85609867D01*
X166299596Y-85609418D01*
X166562883Y-85577557D01*
X166571287Y-85575954D01*
X166640333Y-85557841D01*
X166711300Y-85559903D01*
X166769886Y-85600004D01*
X166797492Y-85665414D01*
X166785352Y-85735365D01*
X166761401Y-85768812D01*
X166672251Y-85857962D01*
X166669094Y-85862470D01*
X166669092Y-85862473D01*
X166561725Y-86015809D01*
X166545944Y-86038347D01*
X166543621Y-86043329D01*
X166543618Y-86043334D01*
X166518843Y-86096465D01*
X166452880Y-86237924D01*
X166395885Y-86450629D01*
X166376693Y-86670000D01*
X166395885Y-86889371D01*
X166452880Y-87102076D01*
X166455205Y-87107061D01*
X166543618Y-87296666D01*
X166543621Y-87296671D01*
X166545944Y-87301653D01*
X166672251Y-87482038D01*
X166827962Y-87637749D01*
X167008346Y-87764056D01*
X167013331Y-87766380D01*
X167013337Y-87766384D01*
X167097877Y-87805805D01*
X167151163Y-87852722D01*
X167170624Y-87920999D01*
X167150082Y-87988959D01*
X167097878Y-88034195D01*
X167013334Y-88073618D01*
X167013329Y-88073621D01*
X167008347Y-88075944D01*
X167003840Y-88079100D01*
X167003838Y-88079101D01*
X166832473Y-88199092D01*
X166832470Y-88199094D01*
X166827962Y-88202251D01*
X166672251Y-88357962D01*
X166669094Y-88362470D01*
X166669092Y-88362473D01*
X166645124Y-88396703D01*
X166545944Y-88538347D01*
X166543621Y-88543329D01*
X166543618Y-88543334D01*
X166524903Y-88583469D01*
X166452880Y-88737924D01*
X166395885Y-88950629D01*
X166376693Y-89170000D01*
X166395885Y-89389371D01*
X166452880Y-89602076D01*
X166480680Y-89661693D01*
X166543618Y-89796666D01*
X166543621Y-89796671D01*
X166545944Y-89801653D01*
X166549100Y-89806160D01*
X166549101Y-89806162D01*
X166623750Y-89912771D01*
X166672251Y-89982038D01*
X166771118Y-90080905D01*
X166805144Y-90143217D01*
X166800079Y-90214032D01*
X166771118Y-90259095D01*
X166672251Y-90357962D01*
X166669094Y-90362470D01*
X166669092Y-90362473D01*
X166582226Y-90486531D01*
X166545944Y-90538347D01*
X166543621Y-90543329D01*
X166543618Y-90543334D01*
X166542694Y-90545316D01*
X166452880Y-90737924D01*
X166395885Y-90950629D01*
X166376693Y-91170000D01*
X166395885Y-91389371D01*
X166452880Y-91602076D01*
X166463357Y-91624544D01*
X166543618Y-91796666D01*
X166543621Y-91796671D01*
X166545944Y-91801653D01*
X166549100Y-91806160D01*
X166549101Y-91806162D01*
X166653006Y-91954553D01*
X166672251Y-91982038D01*
X166827962Y-92137749D01*
X166832471Y-92140906D01*
X166832473Y-92140908D01*
X166841686Y-92147359D01*
X167008346Y-92264056D01*
X167013328Y-92266379D01*
X167013333Y-92266382D01*
X167098469Y-92306081D01*
X167151754Y-92352998D01*
X167171215Y-92421276D01*
X167150673Y-92489235D01*
X167098469Y-92534471D01*
X167013583Y-92574054D01*
X167004093Y-92579534D01*
X166962851Y-92608411D01*
X166954477Y-92618887D01*
X166961545Y-92632334D01*
X167627189Y-93297979D01*
X167641132Y-93305592D01*
X167642966Y-93305461D01*
X167649580Y-93301210D01*
X168319180Y-92631609D01*
X168325607Y-92619839D01*
X168316313Y-92607825D01*
X168275912Y-92579536D01*
X168266416Y-92574053D01*
X168181531Y-92534471D01*
X168128246Y-92487554D01*
X168108785Y-92419276D01*
X168129327Y-92351316D01*
X168181531Y-92306081D01*
X168266667Y-92266382D01*
X168266672Y-92266379D01*
X168271654Y-92264056D01*
X168438314Y-92147359D01*
X168447527Y-92140908D01*
X168447529Y-92140906D01*
X168452038Y-92137749D01*
X168571405Y-92018382D01*
X168633717Y-91984356D01*
X168704532Y-91989421D01*
X168761368Y-92031968D01*
X168786179Y-92098488D01*
X168786500Y-92107477D01*
X168786500Y-92858223D01*
X168766498Y-92926344D01*
X168719122Y-92969756D01*
X168677665Y-92991546D01*
X168012021Y-93657189D01*
X168004408Y-93671132D01*
X168004539Y-93672966D01*
X168008790Y-93679580D01*
X168678391Y-94349180D01*
X168690161Y-94355607D01*
X168711162Y-94339360D01*
X168777280Y-94313497D01*
X168846885Y-94327485D01*
X168893634Y-94369932D01*
X168902186Y-94382976D01*
X168904523Y-94386680D01*
X168942405Y-94449107D01*
X168946121Y-94453315D01*
X168946122Y-94453316D01*
X168949803Y-94457484D01*
X168949776Y-94457508D01*
X168952429Y-94460500D01*
X168955132Y-94463733D01*
X168959144Y-94469852D01*
X168964456Y-94474884D01*
X169015383Y-94523128D01*
X169017825Y-94525506D01*
X170231230Y-95738911D01*
X170243616Y-95753323D01*
X170252149Y-95764918D01*
X170252154Y-95764923D01*
X170256492Y-95770818D01*
X170262070Y-95775557D01*
X170262073Y-95775560D01*
X170296768Y-95805035D01*
X170304284Y-95811965D01*
X170309979Y-95817660D01*
X170312861Y-95819940D01*
X170332251Y-95835281D01*
X170335655Y-95838072D01*
X170385703Y-95880591D01*
X170391285Y-95885333D01*
X170397801Y-95888661D01*
X170402850Y-95892028D01*
X170407979Y-95895195D01*
X170413716Y-95899734D01*
X170479875Y-95930655D01*
X170483769Y-95932558D01*
X170548808Y-95965769D01*
X170555916Y-95967508D01*
X170561559Y-95969607D01*
X170567322Y-95971524D01*
X170573950Y-95974622D01*
X170581112Y-95976112D01*
X170581113Y-95976112D01*
X170645412Y-95989486D01*
X170649696Y-95990456D01*
X170720610Y-96007808D01*
X170726212Y-96008156D01*
X170726215Y-96008156D01*
X170731764Y-96008500D01*
X170731762Y-96008536D01*
X170735755Y-96008775D01*
X170739947Y-96009149D01*
X170747115Y-96010640D01*
X170824520Y-96008546D01*
X170827928Y-96008500D01*
X177732926Y-96008500D01*
X177751876Y-96009933D01*
X177766111Y-96012099D01*
X177766115Y-96012099D01*
X177773345Y-96013199D01*
X177780637Y-96012606D01*
X177780640Y-96012606D01*
X177826014Y-96008915D01*
X177836229Y-96008500D01*
X177844289Y-96008500D01*
X177861676Y-96006473D01*
X177872503Y-96005211D01*
X177876878Y-96004778D01*
X177942335Y-95999454D01*
X177942338Y-95999453D01*
X177949633Y-95998860D01*
X177956597Y-95996604D01*
X177962556Y-95995413D01*
X177968411Y-95994029D01*
X177975677Y-95993182D01*
X178044323Y-95968265D01*
X178048451Y-95966848D01*
X178110932Y-95946607D01*
X178110934Y-95946606D01*
X178117895Y-95944351D01*
X178124150Y-95940555D01*
X178129624Y-95938049D01*
X178135054Y-95935330D01*
X178141933Y-95932833D01*
X178148054Y-95928820D01*
X178202972Y-95892814D01*
X178206676Y-95890477D01*
X178269103Y-95852595D01*
X178277480Y-95845197D01*
X178277504Y-95845224D01*
X178280496Y-95842571D01*
X178283729Y-95839868D01*
X178289848Y-95835856D01*
X178343124Y-95779617D01*
X178345502Y-95777175D01*
X180730528Y-93392149D01*
X180792840Y-93358123D01*
X180863655Y-93363188D01*
X180920491Y-93405735D01*
X180945302Y-93472255D01*
X180930211Y-93541629D01*
X180925545Y-93549482D01*
X180881235Y-93618238D01*
X180878826Y-93624858D01*
X180878824Y-93624861D01*
X180826287Y-93769205D01*
X180819197Y-93788685D01*
X180796463Y-93968640D01*
X180814163Y-94149160D01*
X180871418Y-94321273D01*
X180875065Y-94327295D01*
X180875066Y-94327297D01*
X180956077Y-94461062D01*
X180965380Y-94476424D01*
X180970269Y-94481487D01*
X180970270Y-94481488D01*
X180979939Y-94491500D01*
X181091382Y-94606902D01*
X181144466Y-94641639D01*
X181195551Y-94675068D01*
X181241599Y-94729105D01*
X181251123Y-94799460D01*
X181221099Y-94863795D01*
X181161058Y-94901685D01*
X181126558Y-94906500D01*
X180928533Y-94906500D01*
X180866351Y-94913255D01*
X180729962Y-94964385D01*
X180613406Y-95051739D01*
X180526052Y-95168295D01*
X180474922Y-95304684D01*
X180468167Y-95366866D01*
X180468167Y-98425500D01*
X180448165Y-98493621D01*
X180394509Y-98540114D01*
X180342167Y-98551500D01*
X167497927Y-98551500D01*
X167429806Y-98531498D01*
X167383313Y-98477842D01*
X167373209Y-98407568D01*
X167395395Y-98352266D01*
X167413125Y-98327442D01*
X167406608Y-98315818D01*
X165919885Y-96829095D01*
X165885859Y-96766783D01*
X165887694Y-96741132D01*
X166554408Y-96741132D01*
X166554539Y-96742965D01*
X166558790Y-96749580D01*
X167765730Y-97956520D01*
X167777939Y-97963187D01*
X167789439Y-97954497D01*
X167886831Y-97821913D01*
X167891418Y-97814685D01*
X168017962Y-97581621D01*
X168021530Y-97573827D01*
X168115271Y-97325750D01*
X168117748Y-97317544D01*
X168176954Y-97059038D01*
X168178294Y-97050577D01*
X168202031Y-96784616D01*
X168202277Y-96779677D01*
X168202666Y-96742485D01*
X168202523Y-96737519D01*
X168184362Y-96471123D01*
X168183201Y-96462649D01*
X168129419Y-96202944D01*
X168127120Y-96194709D01*
X168038588Y-95944705D01*
X168035191Y-95936854D01*
X167913550Y-95701178D01*
X167909122Y-95693866D01*
X167790031Y-95524417D01*
X167779509Y-95516037D01*
X167766121Y-95523089D01*
X166562022Y-96727188D01*
X166554408Y-96741132D01*
X165887694Y-96741132D01*
X165890924Y-96695968D01*
X165919885Y-96650905D01*
X167406604Y-95164186D01*
X167413795Y-95151017D01*
X167396742Y-95127177D01*
X167398074Y-95126224D01*
X167369931Y-95085021D01*
X167367938Y-95014052D01*
X167404631Y-94953273D01*
X167468358Y-94921979D01*
X167500765Y-94920624D01*
X167634514Y-94932326D01*
X167645475Y-94932326D01*
X167853804Y-94914099D01*
X167864599Y-94912196D01*
X168066595Y-94858072D01*
X168076887Y-94854326D01*
X168266416Y-94765947D01*
X168275912Y-94760464D01*
X168317148Y-94731590D01*
X168325523Y-94721112D01*
X168318457Y-94707668D01*
X167652811Y-94042021D01*
X167638868Y-94034408D01*
X167637034Y-94034539D01*
X167630420Y-94038790D01*
X166960820Y-94708391D01*
X166939167Y-94748045D01*
X166936031Y-94762465D01*
X166885832Y-94812670D01*
X166816458Y-94827765D01*
X166790921Y-94823265D01*
X166612592Y-94772467D01*
X166604214Y-94770685D01*
X166341656Y-94733318D01*
X166333111Y-94732691D01*
X166067908Y-94731302D01*
X166059374Y-94731839D01*
X165796433Y-94766456D01*
X165788035Y-94768149D01*
X165532238Y-94838127D01*
X165524143Y-94840946D01*
X165280199Y-94944997D01*
X165272576Y-94948881D01*
X165164206Y-95013739D01*
X165095482Y-95031559D01*
X165028034Y-95009395D01*
X164983276Y-94954284D01*
X164973500Y-94905623D01*
X164973500Y-93675475D01*
X166377674Y-93675475D01*
X166395901Y-93883804D01*
X166397804Y-93894599D01*
X166451928Y-94096595D01*
X166455674Y-94106887D01*
X166544054Y-94296417D01*
X166549534Y-94305907D01*
X166578411Y-94347149D01*
X166588887Y-94355523D01*
X166602334Y-94348455D01*
X167267979Y-93682811D01*
X167275592Y-93668868D01*
X167275461Y-93667034D01*
X167271210Y-93660420D01*
X166601609Y-92990820D01*
X166589839Y-92984393D01*
X166577824Y-92993689D01*
X166549534Y-93034093D01*
X166544054Y-93043583D01*
X166455674Y-93233113D01*
X166451928Y-93243405D01*
X166397804Y-93445401D01*
X166395901Y-93456196D01*
X166377674Y-93664525D01*
X166377674Y-93675475D01*
X164973500Y-93675475D01*
X164973500Y-85435086D01*
X164993502Y-85366965D01*
X165047158Y-85320472D01*
X165117432Y-85310368D01*
X165166456Y-85328348D01*
G37*
G04 #@! TD.AperFunction*
G04 #@! TA.AperFunction,Conductor*
G36*
X178382147Y-67990030D02*
G01*
X178426809Y-68045219D01*
X178436500Y-68093677D01*
X178436500Y-71147997D01*
X178435973Y-71159180D01*
X178434298Y-71166673D01*
X178434547Y-71174599D01*
X178434547Y-71174600D01*
X178436438Y-71234750D01*
X178436500Y-71238709D01*
X178436500Y-71266620D01*
X178436997Y-71270554D01*
X178436997Y-71270555D01*
X178437005Y-71270620D01*
X178437938Y-71282457D01*
X178439327Y-71326653D01*
X178444978Y-71346103D01*
X178448987Y-71365464D01*
X178451526Y-71385561D01*
X178454445Y-71392932D01*
X178454445Y-71392934D01*
X178467804Y-71426676D01*
X178471649Y-71437906D01*
X178483982Y-71480357D01*
X178488015Y-71487176D01*
X178488017Y-71487181D01*
X178494293Y-71497792D01*
X178502988Y-71515540D01*
X178510448Y-71534381D01*
X178515110Y-71540797D01*
X178515110Y-71540798D01*
X178536436Y-71570151D01*
X178542952Y-71580071D01*
X178552992Y-71597047D01*
X178565458Y-71618126D01*
X178579779Y-71632447D01*
X178592619Y-71647480D01*
X178604528Y-71663871D01*
X178610634Y-71668922D01*
X178638605Y-71692062D01*
X178647384Y-71700052D01*
X181634584Y-74687253D01*
X181642124Y-74695539D01*
X181646236Y-74702018D01*
X181652013Y-74707443D01*
X181695887Y-74748643D01*
X181698729Y-74751398D01*
X181718466Y-74771135D01*
X181721663Y-74773615D01*
X181730683Y-74781318D01*
X181762915Y-74811586D01*
X181769861Y-74815405D01*
X181769864Y-74815407D01*
X181780670Y-74821348D01*
X181797189Y-74832199D01*
X181813195Y-74844614D01*
X181820464Y-74847759D01*
X181820468Y-74847762D01*
X181853773Y-74862174D01*
X181864423Y-74867391D01*
X181903176Y-74888695D01*
X181910851Y-74890666D01*
X181910852Y-74890666D01*
X181922798Y-74893733D01*
X181941503Y-74900137D01*
X181960091Y-74908181D01*
X181967914Y-74909420D01*
X181967924Y-74909423D01*
X182003760Y-74915099D01*
X182015381Y-74917505D01*
X182031023Y-74921521D01*
X182068682Y-74938131D01*
X182123177Y-74973791D01*
X182195659Y-75021222D01*
X182202263Y-75023678D01*
X182202265Y-75023679D01*
X182359058Y-75081990D01*
X182359060Y-75081990D01*
X182365668Y-75084448D01*
X182449495Y-75095633D01*
X182538480Y-75107507D01*
X182538484Y-75107507D01*
X182545461Y-75108438D01*
X182552472Y-75107800D01*
X182552476Y-75107800D01*
X182694959Y-75094832D01*
X182726100Y-75091998D01*
X182732802Y-75089820D01*
X182732804Y-75089820D01*
X182891909Y-75038124D01*
X182891912Y-75038123D01*
X182898608Y-75035947D01*
X183002766Y-74973856D01*
X183048360Y-74946677D01*
X183048362Y-74946676D01*
X183054412Y-74943069D01*
X183185766Y-74817982D01*
X183286143Y-74666902D01*
X183288646Y-74660314D01*
X183288647Y-74660312D01*
X183327745Y-74557385D01*
X183370634Y-74500806D01*
X183437302Y-74476397D01*
X183506584Y-74491907D01*
X183534628Y-74513033D01*
X186131398Y-77109804D01*
X186165424Y-77172116D01*
X186160359Y-77242932D01*
X186117812Y-77299767D01*
X186051292Y-77324578D01*
X186000034Y-77317597D01*
X185993426Y-77315244D01*
X185986790Y-77312881D01*
X185979802Y-77312048D01*
X185979799Y-77312047D01*
X185856698Y-77297368D01*
X185806680Y-77291404D01*
X185799677Y-77292140D01*
X185799676Y-77292140D01*
X185633288Y-77309628D01*
X185633286Y-77309629D01*
X185626288Y-77310364D01*
X185454579Y-77368818D01*
X185448575Y-77372512D01*
X185306095Y-77460166D01*
X185306092Y-77460168D01*
X185300088Y-77463862D01*
X185295053Y-77468793D01*
X185295050Y-77468795D01*
X185175525Y-77585843D01*
X185170493Y-77590771D01*
X185072235Y-77743238D01*
X185069826Y-77749858D01*
X185069824Y-77749861D01*
X185012606Y-77907066D01*
X185010197Y-77913685D01*
X184987463Y-78093640D01*
X185005163Y-78274160D01*
X185062418Y-78446273D01*
X185066065Y-78452295D01*
X185066066Y-78452297D01*
X185149276Y-78589694D01*
X185167500Y-78654965D01*
X185167500Y-79994733D01*
X185166973Y-80005916D01*
X185165298Y-80013409D01*
X185165547Y-80021335D01*
X185165547Y-80021336D01*
X185167438Y-80081486D01*
X185167500Y-80085445D01*
X185167500Y-80113356D01*
X185167997Y-80117290D01*
X185167997Y-80117291D01*
X185168005Y-80117356D01*
X185168938Y-80129193D01*
X185170327Y-80173389D01*
X185175978Y-80192839D01*
X185179987Y-80212200D01*
X185182526Y-80232297D01*
X185185445Y-80239668D01*
X185185445Y-80239670D01*
X185198804Y-80273412D01*
X185202649Y-80284642D01*
X185214982Y-80327093D01*
X185219015Y-80333912D01*
X185219017Y-80333917D01*
X185225293Y-80344528D01*
X185233988Y-80362276D01*
X185241448Y-80381117D01*
X185246110Y-80387533D01*
X185246110Y-80387534D01*
X185267436Y-80416887D01*
X185273952Y-80426807D01*
X185296458Y-80464862D01*
X185310779Y-80479183D01*
X185323619Y-80494216D01*
X185335528Y-80510607D01*
X185341634Y-80515658D01*
X185369605Y-80538798D01*
X185378384Y-80546788D01*
X188408843Y-83577247D01*
X188416387Y-83585537D01*
X188420500Y-83592018D01*
X188426277Y-83597443D01*
X188470167Y-83638658D01*
X188473009Y-83641413D01*
X188492730Y-83661134D01*
X188495925Y-83663612D01*
X188504947Y-83671318D01*
X188537179Y-83701586D01*
X188548358Y-83707732D01*
X188554932Y-83711346D01*
X188571456Y-83722199D01*
X188587459Y-83734613D01*
X188628043Y-83752176D01*
X188638673Y-83757383D01*
X188677440Y-83778695D01*
X188685117Y-83780666D01*
X188685122Y-83780668D01*
X188697058Y-83783732D01*
X188715766Y-83790137D01*
X188734355Y-83798181D01*
X188742180Y-83799420D01*
X188742182Y-83799421D01*
X188778019Y-83805097D01*
X188789640Y-83807504D01*
X188824789Y-83816528D01*
X188832470Y-83818500D01*
X188852731Y-83818500D01*
X188872440Y-83820051D01*
X188892443Y-83823219D01*
X188900335Y-83822473D01*
X188905562Y-83821979D01*
X188936454Y-83819059D01*
X188948311Y-83818500D01*
X192930406Y-83818500D01*
X192998527Y-83838502D01*
X193019501Y-83855405D01*
X194991343Y-85827247D01*
X194998887Y-85835537D01*
X195003000Y-85842018D01*
X195008777Y-85847443D01*
X195052667Y-85888658D01*
X195055509Y-85891413D01*
X195075231Y-85911135D01*
X195078355Y-85913558D01*
X195078359Y-85913562D01*
X195078424Y-85913612D01*
X195087445Y-85921317D01*
X195119679Y-85951586D01*
X195126627Y-85955405D01*
X195126629Y-85955407D01*
X195137432Y-85961346D01*
X195153959Y-85972202D01*
X195163698Y-85979757D01*
X195163700Y-85979758D01*
X195169960Y-85984614D01*
X195175284Y-85986918D01*
X195223092Y-86038120D01*
X195236500Y-86094680D01*
X195236500Y-86406467D01*
X195243255Y-86468649D01*
X195294385Y-86605038D01*
X195381739Y-86721594D01*
X195498295Y-86808948D01*
X195634684Y-86860078D01*
X195696866Y-86866833D01*
X198755500Y-86866833D01*
X198823621Y-86886835D01*
X198870114Y-86940491D01*
X198881500Y-86992833D01*
X198881500Y-91886432D01*
X198861498Y-91954553D01*
X198807842Y-92001046D01*
X198737568Y-92011150D01*
X198708810Y-92003462D01*
X198536549Y-91934737D01*
X198531180Y-91932595D01*
X198356663Y-91897881D01*
X198337032Y-91893976D01*
X198337031Y-91893976D01*
X198331366Y-91892849D01*
X198325592Y-91892773D01*
X198325588Y-91892773D01*
X198222452Y-91891424D01*
X198127655Y-91890183D01*
X198121958Y-91891162D01*
X198121957Y-91891162D01*
X198102671Y-91894476D01*
X197926870Y-91924684D01*
X197735734Y-91995198D01*
X197730773Y-91998150D01*
X197730772Y-91998150D01*
X197614939Y-92067064D01*
X197560649Y-92099363D01*
X197407478Y-92233690D01*
X197313395Y-92353034D01*
X197255515Y-92394146D01*
X197184595Y-92397440D01*
X197123152Y-92361869D01*
X197113488Y-92350416D01*
X197045758Y-92259715D01*
X197045758Y-92259714D01*
X197042305Y-92255091D01*
X196952646Y-92172211D01*
X196896943Y-92120719D01*
X196896940Y-92120717D01*
X196892703Y-92116800D01*
X196786947Y-92050073D01*
X196725288Y-92011169D01*
X196725283Y-92011167D01*
X196720404Y-92008088D01*
X196531180Y-91932595D01*
X196356663Y-91897881D01*
X196337032Y-91893976D01*
X196337031Y-91893976D01*
X196331366Y-91892849D01*
X196325592Y-91892773D01*
X196325588Y-91892773D01*
X196222452Y-91891424D01*
X196127655Y-91890183D01*
X196121958Y-91891162D01*
X196121957Y-91891162D01*
X196102671Y-91894476D01*
X195926870Y-91924684D01*
X195735734Y-91995198D01*
X195730773Y-91998150D01*
X195730772Y-91998150D01*
X195614939Y-92067064D01*
X195560649Y-92099363D01*
X195407478Y-92233690D01*
X195403907Y-92238220D01*
X195403906Y-92238221D01*
X195297274Y-92373482D01*
X195239392Y-92414595D01*
X195189174Y-92421143D01*
X195161457Y-92419125D01*
X195147449Y-92426762D01*
X194587021Y-92987189D01*
X194579408Y-93001132D01*
X194579539Y-93002966D01*
X194583790Y-93009580D01*
X195145239Y-93571028D01*
X195159176Y-93578639D01*
X195190419Y-93576404D01*
X195259793Y-93591495D01*
X195302305Y-93629363D01*
X195368479Y-93722997D01*
X195408154Y-93761647D01*
X195491059Y-93842409D01*
X195514410Y-93865157D01*
X195519206Y-93868362D01*
X195519209Y-93868364D01*
X195644227Y-93951898D01*
X195683803Y-93978342D01*
X195689106Y-93980620D01*
X195689109Y-93980622D01*
X195865680Y-94056483D01*
X195870987Y-94058763D01*
X195943817Y-94075243D01*
X196064055Y-94102450D01*
X196064060Y-94102451D01*
X196069692Y-94103725D01*
X196075463Y-94103952D01*
X196075465Y-94103952D01*
X196138470Y-94106427D01*
X196273263Y-94111723D01*
X196474883Y-94082490D01*
X196480347Y-94080635D01*
X196480352Y-94080634D01*
X196662327Y-94018862D01*
X196662332Y-94018860D01*
X196667799Y-94017004D01*
X196673653Y-94013726D01*
X196754159Y-93968640D01*
X196845551Y-93917458D01*
X197002186Y-93787186D01*
X197119733Y-93645851D01*
X197178670Y-93606267D01*
X197249652Y-93604831D01*
X197310143Y-93641998D01*
X197319503Y-93653699D01*
X197364661Y-93717595D01*
X197368479Y-93722997D01*
X197408154Y-93761647D01*
X197491059Y-93842409D01*
X197514410Y-93865157D01*
X197519206Y-93868362D01*
X197519209Y-93868364D01*
X197644227Y-93951898D01*
X197683803Y-93978342D01*
X197689106Y-93980620D01*
X197689109Y-93980622D01*
X197865680Y-94056483D01*
X197870987Y-94058763D01*
X197943817Y-94075243D01*
X198064055Y-94102450D01*
X198064060Y-94102451D01*
X198069692Y-94103725D01*
X198075463Y-94103952D01*
X198075465Y-94103952D01*
X198138470Y-94106427D01*
X198273263Y-94111723D01*
X198474883Y-94082490D01*
X198480347Y-94080635D01*
X198480352Y-94080634D01*
X198662327Y-94018862D01*
X198662332Y-94018860D01*
X198667799Y-94017004D01*
X198693935Y-94002367D01*
X198763143Y-93986534D01*
X198829925Y-94010632D01*
X198873078Y-94067009D01*
X198881500Y-94112302D01*
X198881500Y-96386432D01*
X198861498Y-96454553D01*
X198807842Y-96501046D01*
X198737568Y-96511150D01*
X198708810Y-96503462D01*
X198536549Y-96434737D01*
X198531180Y-96432595D01*
X198331366Y-96392849D01*
X198325592Y-96392773D01*
X198325588Y-96392773D01*
X198222452Y-96391424D01*
X198127655Y-96390183D01*
X198121958Y-96391162D01*
X198121957Y-96391162D01*
X197932567Y-96423705D01*
X197926870Y-96424684D01*
X197735734Y-96495198D01*
X197730773Y-96498150D01*
X197730772Y-96498150D01*
X197721844Y-96503462D01*
X197560649Y-96599363D01*
X197407478Y-96733690D01*
X197313395Y-96853034D01*
X197255515Y-96894146D01*
X197184595Y-96897440D01*
X197123152Y-96861869D01*
X197113488Y-96850416D01*
X197045758Y-96759715D01*
X197045758Y-96759714D01*
X197042305Y-96755091D01*
X196952646Y-96672211D01*
X196896943Y-96620719D01*
X196896940Y-96620717D01*
X196892703Y-96616800D01*
X196846675Y-96587759D01*
X196725288Y-96511169D01*
X196725283Y-96511167D01*
X196720404Y-96508088D01*
X196531180Y-96432595D01*
X196331366Y-96392849D01*
X196325592Y-96392773D01*
X196325588Y-96392773D01*
X196222452Y-96391424D01*
X196127655Y-96390183D01*
X196121958Y-96391162D01*
X196121957Y-96391162D01*
X195932567Y-96423705D01*
X195926870Y-96424684D01*
X195735734Y-96495198D01*
X195730773Y-96498150D01*
X195730772Y-96498150D01*
X195721844Y-96503462D01*
X195560649Y-96599363D01*
X195407478Y-96733690D01*
X195313395Y-96853034D01*
X195255515Y-96894146D01*
X195184595Y-96897440D01*
X195123152Y-96861869D01*
X195113488Y-96850416D01*
X195045758Y-96759715D01*
X195045758Y-96759714D01*
X195042305Y-96755091D01*
X194952646Y-96672211D01*
X194896943Y-96620719D01*
X194896940Y-96620717D01*
X194892703Y-96616800D01*
X194846675Y-96587759D01*
X194725288Y-96511169D01*
X194725283Y-96511167D01*
X194720404Y-96508088D01*
X194531180Y-96432595D01*
X194331366Y-96392849D01*
X194325592Y-96392773D01*
X194325588Y-96392773D01*
X194222452Y-96391424D01*
X194127655Y-96390183D01*
X194121958Y-96391162D01*
X194121957Y-96391162D01*
X193932567Y-96423705D01*
X193926870Y-96424684D01*
X193735734Y-96495198D01*
X193730773Y-96498150D01*
X193730772Y-96498150D01*
X193721844Y-96503462D01*
X193560649Y-96599363D01*
X193407478Y-96733690D01*
X193403911Y-96738215D01*
X193403906Y-96738220D01*
X193317331Y-96848040D01*
X193281351Y-96893681D01*
X193186492Y-97073978D01*
X193126078Y-97268543D01*
X193102132Y-97470859D01*
X193115457Y-97674151D01*
X193165605Y-97871610D01*
X193250898Y-98056624D01*
X193368479Y-98222997D01*
X193463763Y-98315818D01*
X193483706Y-98335246D01*
X193518543Y-98397107D01*
X193514406Y-98467983D01*
X193472607Y-98525371D01*
X193406417Y-98551051D01*
X193395784Y-98551500D01*
X191767833Y-98551500D01*
X191699712Y-98531498D01*
X191653219Y-98477842D01*
X191641833Y-98425500D01*
X191641833Y-95366866D01*
X191636941Y-95321831D01*
X191649469Y-95251949D01*
X191675312Y-95216978D01*
X191733980Y-95161109D01*
X191758266Y-95137982D01*
X191858643Y-94986902D01*
X191901458Y-94874192D01*
X191920555Y-94823920D01*
X191920556Y-94823918D01*
X191923055Y-94817338D01*
X191932639Y-94749146D01*
X191947748Y-94641639D01*
X191947748Y-94641636D01*
X191948299Y-94637717D01*
X191948616Y-94615000D01*
X191928397Y-94434745D01*
X191911664Y-94386695D01*
X191871064Y-94270106D01*
X191871062Y-94270103D01*
X191868745Y-94263448D01*
X191792951Y-94142151D01*
X191776359Y-94115598D01*
X191772626Y-94109624D01*
X191767664Y-94104627D01*
X191649778Y-93985915D01*
X191649774Y-93985912D01*
X191644815Y-93980918D01*
X191582377Y-93941294D01*
X193638066Y-93941294D01*
X193647948Y-93953783D01*
X193679239Y-93974691D01*
X193689349Y-93980181D01*
X193865835Y-94056005D01*
X193876778Y-94059560D01*
X194064120Y-94101952D01*
X194075530Y-94103454D01*
X194267469Y-94110995D01*
X194278951Y-94110393D01*
X194469045Y-94082832D01*
X194480240Y-94080144D01*
X194662131Y-94018400D01*
X194672628Y-94013726D01*
X194783032Y-93951898D01*
X194792895Y-93941821D01*
X194789940Y-93934151D01*
X194227811Y-93372021D01*
X194213868Y-93364408D01*
X194212034Y-93364539D01*
X194205420Y-93368790D01*
X193644259Y-93929952D01*
X193638066Y-93941294D01*
X191582377Y-93941294D01*
X191491666Y-93883727D01*
X191320790Y-93822881D01*
X191271007Y-93816945D01*
X191205734Y-93789018D01*
X191196829Y-93780925D01*
X191170403Y-93754498D01*
X191136379Y-93692185D01*
X191133500Y-93665404D01*
X191133500Y-92976638D01*
X193103012Y-92976638D01*
X193115575Y-93168304D01*
X193117376Y-93179674D01*
X193164657Y-93365843D01*
X193168498Y-93376690D01*
X193248916Y-93551130D01*
X193254664Y-93561086D01*
X193260788Y-93569751D01*
X193271377Y-93578140D01*
X193284676Y-93571113D01*
X193842979Y-93012811D01*
X193850592Y-92998868D01*
X193850461Y-92997034D01*
X193846210Y-92990420D01*
X193283538Y-92427749D01*
X193271163Y-92420992D01*
X193265197Y-92425458D01*
X193189645Y-92569058D01*
X193185242Y-92579691D01*
X193128281Y-92763132D01*
X193125891Y-92774376D01*
X193103313Y-92965137D01*
X193103012Y-92976638D01*
X191133500Y-92976638D01*
X191133500Y-92058675D01*
X193637788Y-92058675D01*
X193641275Y-92067064D01*
X194202189Y-92627979D01*
X194216132Y-92635592D01*
X194217966Y-92635461D01*
X194224580Y-92631210D01*
X194785285Y-92070504D01*
X194792042Y-92058129D01*
X194786012Y-92050073D01*
X194725061Y-92011616D01*
X194714813Y-92006395D01*
X194536401Y-91935216D01*
X194525373Y-91931949D01*
X194336982Y-91894476D01*
X194325535Y-91893273D01*
X194133477Y-91890759D01*
X194121997Y-91891662D01*
X193932697Y-91924190D01*
X193921577Y-91927170D01*
X193741365Y-91993653D01*
X193730991Y-91998601D01*
X193647385Y-92048342D01*
X193637788Y-92058675D01*
X191133500Y-92058675D01*
X191133500Y-86905620D01*
X191154552Y-86835893D01*
X191172454Y-86808948D01*
X191223643Y-86731902D01*
X191281233Y-86580297D01*
X191285555Y-86568920D01*
X191285556Y-86568918D01*
X191288055Y-86562338D01*
X191292814Y-86528475D01*
X191312748Y-86386639D01*
X191312748Y-86386636D01*
X191313299Y-86382717D01*
X191313452Y-86371738D01*
X191313561Y-86363962D01*
X191313561Y-86363957D01*
X191313616Y-86360000D01*
X191293397Y-86179745D01*
X191291080Y-86173091D01*
X191236064Y-86015106D01*
X191236062Y-86015103D01*
X191233745Y-86008448D01*
X191176759Y-85917251D01*
X191141359Y-85860598D01*
X191137626Y-85854624D01*
X191123941Y-85840843D01*
X191014778Y-85730915D01*
X191014774Y-85730912D01*
X191009815Y-85725918D01*
X191002164Y-85721062D01*
X190950538Y-85688300D01*
X190856666Y-85628727D01*
X190802440Y-85609418D01*
X190692425Y-85570243D01*
X190692420Y-85570242D01*
X190685790Y-85567881D01*
X190678802Y-85567048D01*
X190678799Y-85567047D01*
X190550462Y-85551744D01*
X190505680Y-85546404D01*
X190498677Y-85547140D01*
X190498676Y-85547140D01*
X190332288Y-85564628D01*
X190332286Y-85564629D01*
X190325288Y-85565364D01*
X190247450Y-85591862D01*
X190160249Y-85621547D01*
X190160246Y-85621548D01*
X190153579Y-85623818D01*
X190147578Y-85627510D01*
X190141205Y-85630509D01*
X190139873Y-85627678D01*
X190084717Y-85642709D01*
X190033874Y-85630445D01*
X190031166Y-85628727D01*
X189950502Y-85600004D01*
X189866925Y-85570243D01*
X189866920Y-85570242D01*
X189860290Y-85567881D01*
X189853302Y-85567048D01*
X189853299Y-85567047D01*
X189724962Y-85551744D01*
X189680180Y-85546404D01*
X189673177Y-85547140D01*
X189673176Y-85547140D01*
X189506788Y-85564628D01*
X189506786Y-85564629D01*
X189499788Y-85565364D01*
X189328079Y-85623818D01*
X189277976Y-85654642D01*
X189179595Y-85715166D01*
X189179592Y-85715168D01*
X189173588Y-85718862D01*
X189168553Y-85723793D01*
X189168550Y-85723795D01*
X189062909Y-85827247D01*
X189043993Y-85845771D01*
X188945735Y-85998238D01*
X188943326Y-86004858D01*
X188943324Y-86004861D01*
X188912222Y-86090314D01*
X188883697Y-86168685D01*
X188882814Y-86175675D01*
X188877113Y-86220802D01*
X188848731Y-86285879D01*
X188789671Y-86325280D01*
X188718685Y-86326497D01*
X188663012Y-86294105D01*
X188540423Y-86171516D01*
X188506397Y-86109204D01*
X188504303Y-86096465D01*
X188500184Y-86059746D01*
X188499399Y-86052745D01*
X188450948Y-85913612D01*
X188442066Y-85888106D01*
X188442064Y-85888103D01*
X188439747Y-85881448D01*
X188426719Y-85860598D01*
X188347361Y-85733598D01*
X188343628Y-85727624D01*
X188337112Y-85721062D01*
X188220780Y-85603915D01*
X188220776Y-85603912D01*
X188215817Y-85598918D01*
X188204699Y-85591862D01*
X188134382Y-85547238D01*
X188062668Y-85501727D01*
X188014834Y-85484694D01*
X187898427Y-85443243D01*
X187898422Y-85443242D01*
X187891792Y-85440881D01*
X187884804Y-85440048D01*
X187884801Y-85440047D01*
X187761700Y-85425368D01*
X187711682Y-85419404D01*
X187704679Y-85420140D01*
X187704678Y-85420140D01*
X187538290Y-85437628D01*
X187538288Y-85437629D01*
X187531290Y-85438364D01*
X187359581Y-85496818D01*
X187353577Y-85500512D01*
X187211097Y-85588166D01*
X187211094Y-85588168D01*
X187205090Y-85591862D01*
X187200055Y-85596793D01*
X187200052Y-85596795D01*
X187080527Y-85713843D01*
X187075495Y-85718771D01*
X186977237Y-85871238D01*
X186974828Y-85877858D01*
X186974826Y-85877861D01*
X186928722Y-86004531D01*
X186915199Y-86041685D01*
X186892465Y-86221640D01*
X186910165Y-86402160D01*
X186967420Y-86574273D01*
X186971067Y-86580295D01*
X186971068Y-86580297D01*
X187052292Y-86714414D01*
X187061382Y-86729424D01*
X187066271Y-86734487D01*
X187066272Y-86734488D01*
X187132977Y-86803562D01*
X187187384Y-86859902D01*
X187339161Y-86959222D01*
X187345765Y-86961678D01*
X187345767Y-86961679D01*
X187502560Y-87019990D01*
X187502562Y-87019990D01*
X187509170Y-87022448D01*
X187516155Y-87023380D01*
X187516159Y-87023381D01*
X187551089Y-87028041D01*
X187571189Y-87030723D01*
X187636065Y-87059558D01*
X187643619Y-87066521D01*
X188432595Y-87855497D01*
X188466621Y-87917809D01*
X188469500Y-87944592D01*
X188469500Y-88647378D01*
X188449498Y-88715499D01*
X188395842Y-88761992D01*
X188328581Y-88772492D01*
X188173705Y-88754024D01*
X188166702Y-88754760D01*
X188166701Y-88754760D01*
X188000313Y-88772248D01*
X188000311Y-88772249D01*
X187993313Y-88772984D01*
X187821604Y-88831438D01*
X187821050Y-88829812D01*
X187759644Y-88839365D01*
X187708624Y-88820835D01*
X187681666Y-88803727D01*
X187652463Y-88793328D01*
X187517425Y-88745243D01*
X187517420Y-88745242D01*
X187510790Y-88742881D01*
X187503802Y-88742048D01*
X187503799Y-88742047D01*
X187380698Y-88727368D01*
X187330680Y-88721404D01*
X187323677Y-88722140D01*
X187323676Y-88722140D01*
X187157288Y-88739628D01*
X187157286Y-88739629D01*
X187150288Y-88740364D01*
X186978579Y-88798818D01*
X186949522Y-88816694D01*
X186830095Y-88890166D01*
X186830092Y-88890168D01*
X186824088Y-88893862D01*
X186819053Y-88898793D01*
X186819050Y-88898795D01*
X186699525Y-89015843D01*
X186694493Y-89020771D01*
X186596235Y-89173238D01*
X186593826Y-89179858D01*
X186593824Y-89179861D01*
X186590096Y-89190104D01*
X186534197Y-89343685D01*
X186511463Y-89523640D01*
X186529163Y-89704160D01*
X186586418Y-89876273D01*
X186590065Y-89882295D01*
X186590066Y-89882297D01*
X186673276Y-90019694D01*
X186691500Y-90084965D01*
X186691500Y-93079289D01*
X186671498Y-93147410D01*
X186654595Y-93168385D01*
X186336296Y-93486683D01*
X186018349Y-93804630D01*
X185956037Y-93838655D01*
X185942425Y-93840844D01*
X185911730Y-93844070D01*
X185911728Y-93844070D01*
X185904730Y-93844806D01*
X185733021Y-93903260D01*
X185727017Y-93906954D01*
X185584537Y-93994608D01*
X185584534Y-93994610D01*
X185578530Y-93998304D01*
X185573495Y-94003235D01*
X185573492Y-94003237D01*
X185462119Y-94112302D01*
X185448935Y-94125213D01*
X185350677Y-94277680D01*
X185348268Y-94284300D01*
X185348266Y-94284303D01*
X185293510Y-94434745D01*
X185288639Y-94448127D01*
X185265905Y-94628082D01*
X185273779Y-94708391D01*
X185279693Y-94768705D01*
X185266433Y-94838452D01*
X185217571Y-94889959D01*
X185154294Y-94907000D01*
X184942115Y-94907000D01*
X184926876Y-94911475D01*
X184925671Y-94912865D01*
X184924000Y-94920548D01*
X184924000Y-97283000D01*
X184903998Y-97351121D01*
X184850342Y-97397614D01*
X184798000Y-97409000D01*
X184542000Y-97409000D01*
X184473879Y-97388998D01*
X184427386Y-97335342D01*
X184416000Y-97283000D01*
X184416000Y-94925116D01*
X184411525Y-94909877D01*
X184410135Y-94908672D01*
X184408042Y-94908217D01*
X184345730Y-94874192D01*
X184311705Y-94811880D01*
X184310051Y-94767561D01*
X184312639Y-94749146D01*
X184341927Y-94684471D01*
X184348318Y-94677586D01*
X185177247Y-93848657D01*
X185185537Y-93841113D01*
X185192018Y-93837000D01*
X185238659Y-93787332D01*
X185241413Y-93784491D01*
X185261134Y-93764770D01*
X185263612Y-93761575D01*
X185271318Y-93752553D01*
X185296158Y-93726101D01*
X185301586Y-93720321D01*
X185311346Y-93702568D01*
X185322199Y-93686045D01*
X185323356Y-93684553D01*
X185334613Y-93670041D01*
X185352176Y-93629457D01*
X185357383Y-93618827D01*
X185378695Y-93580060D01*
X185380666Y-93572383D01*
X185380668Y-93572378D01*
X185383732Y-93560442D01*
X185390138Y-93541730D01*
X185395033Y-93530419D01*
X185398181Y-93523145D01*
X185399421Y-93515317D01*
X185399423Y-93515310D01*
X185405099Y-93479476D01*
X185407505Y-93467856D01*
X185416528Y-93432711D01*
X185416528Y-93432710D01*
X185418500Y-93425030D01*
X185418500Y-93404776D01*
X185420051Y-93385065D01*
X185421378Y-93376690D01*
X185423220Y-93365057D01*
X185419059Y-93321038D01*
X185418500Y-93309181D01*
X185418500Y-90080618D01*
X185439552Y-90010891D01*
X185504742Y-89912771D01*
X185508643Y-89906900D01*
X185573055Y-89737336D01*
X185591364Y-89607061D01*
X185597748Y-89561637D01*
X185597748Y-89561634D01*
X185598299Y-89557715D01*
X185598616Y-89534998D01*
X185578397Y-89354743D01*
X185562977Y-89310462D01*
X185521064Y-89190104D01*
X185521062Y-89190101D01*
X185518745Y-89183446D01*
X185510343Y-89170000D01*
X185426359Y-89035596D01*
X185422626Y-89029622D01*
X185408943Y-89015843D01*
X185299778Y-88905913D01*
X185299774Y-88905910D01*
X185294815Y-88900916D01*
X185141666Y-88803725D01*
X185062404Y-88775501D01*
X184977425Y-88745241D01*
X184977420Y-88745240D01*
X184970790Y-88742879D01*
X184963802Y-88742046D01*
X184963799Y-88742045D01*
X184840698Y-88727366D01*
X184790680Y-88721402D01*
X184783674Y-88722138D01*
X184781622Y-88722124D01*
X184713642Y-88701648D01*
X184667524Y-88647669D01*
X184656500Y-88596127D01*
X184656500Y-79285620D01*
X184677552Y-79215893D01*
X184742742Y-79117773D01*
X184746643Y-79111902D01*
X184804585Y-78959371D01*
X184808555Y-78948920D01*
X184808556Y-78948918D01*
X184811055Y-78942338D01*
X184812035Y-78935366D01*
X184835748Y-78766639D01*
X184835748Y-78766636D01*
X184836299Y-78762717D01*
X184836452Y-78751738D01*
X184836561Y-78743962D01*
X184836561Y-78743957D01*
X184836616Y-78740000D01*
X184816397Y-78559745D01*
X184804683Y-78526106D01*
X184759064Y-78395106D01*
X184759062Y-78395103D01*
X184756745Y-78388448D01*
X184718951Y-78327965D01*
X184664359Y-78240598D01*
X184660626Y-78234624D01*
X184655664Y-78229627D01*
X184537778Y-78110915D01*
X184537774Y-78110912D01*
X184532815Y-78105918D01*
X184379666Y-78008727D01*
X184350463Y-77998328D01*
X184215425Y-77950243D01*
X184215420Y-77950242D01*
X184208790Y-77947881D01*
X184201801Y-77947048D01*
X184201794Y-77947046D01*
X184200535Y-77946896D01*
X184199784Y-77946575D01*
X184194934Y-77945437D01*
X184195134Y-77944585D01*
X184135263Y-77918965D01*
X184096470Y-77863221D01*
X184058243Y-77753448D01*
X183962124Y-77599624D01*
X183914292Y-77551457D01*
X183839276Y-77475915D01*
X183839272Y-77475912D01*
X183834313Y-77470918D01*
X183823195Y-77463862D01*
X183754570Y-77420312D01*
X183681164Y-77373727D01*
X183651961Y-77363328D01*
X183516923Y-77315243D01*
X183516918Y-77315242D01*
X183510288Y-77312881D01*
X183503300Y-77312048D01*
X183503297Y-77312047D01*
X183380196Y-77297368D01*
X183330178Y-77291404D01*
X183323175Y-77292140D01*
X183323174Y-77292140D01*
X183156786Y-77309628D01*
X183156784Y-77309629D01*
X183149786Y-77310364D01*
X182978077Y-77368818D01*
X182972073Y-77372512D01*
X182829593Y-77460166D01*
X182829590Y-77460168D01*
X182823586Y-77463862D01*
X182818551Y-77468793D01*
X182818548Y-77468795D01*
X182699023Y-77585843D01*
X182693991Y-77590771D01*
X182595733Y-77743238D01*
X182593324Y-77749858D01*
X182593322Y-77749861D01*
X182536104Y-77907066D01*
X182533695Y-77913685D01*
X182510961Y-78093640D01*
X182528661Y-78274160D01*
X182564691Y-78382469D01*
X182582865Y-78437101D01*
X182585388Y-78508052D01*
X182549151Y-78569105D01*
X182503914Y-78596150D01*
X182378576Y-78638818D01*
X182364454Y-78647506D01*
X182230092Y-78730166D01*
X182230089Y-78730168D01*
X182224085Y-78733862D01*
X182096100Y-78859195D01*
X182033435Y-78892564D01*
X181962677Y-78886758D01*
X181918537Y-78857954D01*
X181807278Y-78745915D01*
X181807274Y-78745912D01*
X181802315Y-78740918D01*
X181794664Y-78736062D01*
X181666874Y-78654965D01*
X181649166Y-78643727D01*
X181619963Y-78633328D01*
X181484925Y-78585243D01*
X181484920Y-78585242D01*
X181478290Y-78582881D01*
X181471302Y-78582048D01*
X181471299Y-78582047D01*
X181342962Y-78566744D01*
X181298180Y-78561404D01*
X181291177Y-78562140D01*
X181291176Y-78562140D01*
X181124788Y-78579628D01*
X181124786Y-78579629D01*
X181117788Y-78580364D01*
X180946079Y-78638818D01*
X180809539Y-78722819D01*
X180743519Y-78741500D01*
X179384606Y-78741500D01*
X179316485Y-78721498D01*
X179295511Y-78704595D01*
X174824433Y-74233516D01*
X174790407Y-74171204D01*
X174788313Y-74158465D01*
X174784194Y-74121746D01*
X174784194Y-74121744D01*
X174783409Y-74114745D01*
X174723757Y-73943448D01*
X174720021Y-73937469D01*
X174631371Y-73795598D01*
X174627638Y-73789624D01*
X174622676Y-73784627D01*
X174504790Y-73665915D01*
X174504786Y-73665912D01*
X174499827Y-73660918D01*
X174346678Y-73563727D01*
X174317475Y-73553328D01*
X174182437Y-73505243D01*
X174182432Y-73505242D01*
X174175802Y-73502881D01*
X174168814Y-73502048D01*
X174168811Y-73502047D01*
X174099581Y-73493792D01*
X174034308Y-73465864D01*
X173994495Y-73407081D01*
X173988500Y-73368678D01*
X173988500Y-72935620D01*
X174009552Y-72865893D01*
X174011069Y-72863610D01*
X174078643Y-72761902D01*
X174143055Y-72592338D01*
X174146457Y-72568134D01*
X174167748Y-72416639D01*
X174167748Y-72416636D01*
X174168299Y-72412717D01*
X174168616Y-72390000D01*
X174148397Y-72209745D01*
X174146080Y-72203091D01*
X174091064Y-72045106D01*
X174091062Y-72045103D01*
X174088745Y-72038448D01*
X173992626Y-71884624D01*
X173952379Y-71844095D01*
X173869778Y-71760915D01*
X173869774Y-71760912D01*
X173864815Y-71755918D01*
X173853697Y-71748862D01*
X173770148Y-71695841D01*
X173711666Y-71658727D01*
X173657561Y-71639461D01*
X173547425Y-71600243D01*
X173547420Y-71600242D01*
X173540790Y-71597881D01*
X173533802Y-71597048D01*
X173533799Y-71597047D01*
X173391432Y-71580071D01*
X173360680Y-71576404D01*
X173353677Y-71577140D01*
X173353676Y-71577140D01*
X173187288Y-71594628D01*
X173187286Y-71594629D01*
X173180288Y-71595364D01*
X173008579Y-71653818D01*
X172988932Y-71665905D01*
X172860095Y-71745166D01*
X172860092Y-71745168D01*
X172854088Y-71748862D01*
X172849053Y-71753793D01*
X172849050Y-71753795D01*
X172802856Y-71799032D01*
X172724493Y-71875771D01*
X172626235Y-72028238D01*
X172623826Y-72034858D01*
X172623824Y-72034861D01*
X172593259Y-72118838D01*
X172564197Y-72198685D01*
X172541463Y-72378640D01*
X172559163Y-72559160D01*
X172616418Y-72731273D01*
X172620065Y-72737295D01*
X172620066Y-72737297D01*
X172703276Y-72874694D01*
X172721500Y-72939965D01*
X172721500Y-74851233D01*
X172720973Y-74862416D01*
X172719298Y-74869909D01*
X172719547Y-74877835D01*
X172719547Y-74877836D01*
X172721438Y-74937986D01*
X172721500Y-74941945D01*
X172721500Y-74969856D01*
X172721997Y-74973790D01*
X172721997Y-74973791D01*
X172722005Y-74973856D01*
X172722938Y-74985699D01*
X172724055Y-75021222D01*
X172724327Y-75029889D01*
X172729978Y-75049339D01*
X172733987Y-75068700D01*
X172736526Y-75088797D01*
X172739445Y-75096168D01*
X172739445Y-75096170D01*
X172752804Y-75129912D01*
X172756649Y-75141142D01*
X172768982Y-75183593D01*
X172773015Y-75190412D01*
X172773017Y-75190417D01*
X172779293Y-75201028D01*
X172787988Y-75218776D01*
X172795448Y-75237617D01*
X172800110Y-75244033D01*
X172800110Y-75244034D01*
X172821436Y-75273387D01*
X172827952Y-75283307D01*
X172850458Y-75321362D01*
X172864779Y-75335683D01*
X172877619Y-75350716D01*
X172889528Y-75367107D01*
X172909653Y-75383756D01*
X172923605Y-75395298D01*
X172932384Y-75403288D01*
X178185343Y-80656247D01*
X178192887Y-80664537D01*
X178197000Y-80671018D01*
X178202777Y-80676443D01*
X178246667Y-80717658D01*
X178249509Y-80720413D01*
X178269230Y-80740134D01*
X178272425Y-80742612D01*
X178281447Y-80750318D01*
X178313679Y-80780586D01*
X178320628Y-80784406D01*
X178331432Y-80790346D01*
X178347956Y-80801199D01*
X178363959Y-80813613D01*
X178404543Y-80831176D01*
X178415173Y-80836383D01*
X178453940Y-80857695D01*
X178461617Y-80859666D01*
X178461622Y-80859668D01*
X178473558Y-80862732D01*
X178492266Y-80869137D01*
X178510855Y-80877181D01*
X178518683Y-80878421D01*
X178518690Y-80878423D01*
X178554524Y-80884099D01*
X178566144Y-80886505D01*
X178601289Y-80895528D01*
X178608970Y-80897500D01*
X178629224Y-80897500D01*
X178648934Y-80899051D01*
X178668943Y-80902220D01*
X178676835Y-80901474D01*
X178712961Y-80898059D01*
X178724819Y-80897500D01*
X180746403Y-80897500D01*
X180815396Y-80918068D01*
X180916466Y-80984206D01*
X180925659Y-80990222D01*
X180932263Y-80992678D01*
X180932265Y-80992679D01*
X181089058Y-81050990D01*
X181089060Y-81050990D01*
X181095668Y-81053448D01*
X181179495Y-81064633D01*
X181268480Y-81076507D01*
X181268484Y-81076507D01*
X181275461Y-81077438D01*
X181282472Y-81076800D01*
X181282476Y-81076800D01*
X181424959Y-81063832D01*
X181456100Y-81060998D01*
X181462802Y-81058820D01*
X181462804Y-81058820D01*
X181621909Y-81007124D01*
X181621912Y-81007123D01*
X181628608Y-81004947D01*
X181756599Y-80928649D01*
X181778360Y-80915677D01*
X181778362Y-80915676D01*
X181784412Y-80912069D01*
X181878605Y-80822370D01*
X181941730Y-80789878D01*
X182012401Y-80796671D01*
X182068180Y-80840594D01*
X182091497Y-80913616D01*
X182091497Y-82828829D01*
X182071408Y-82897084D01*
X182000051Y-83007808D01*
X182000047Y-83007817D01*
X181996232Y-83013736D01*
X181934194Y-83184183D01*
X181911460Y-83364138D01*
X181929160Y-83544658D01*
X181986415Y-83716771D01*
X181990062Y-83722793D01*
X181990063Y-83722795D01*
X182073273Y-83860192D01*
X182091497Y-83925463D01*
X182091497Y-85178331D01*
X182071408Y-85246586D01*
X182000051Y-85357310D01*
X182000047Y-85357319D01*
X181996232Y-85363238D01*
X181993823Y-85369858D01*
X181993822Y-85369859D01*
X181946268Y-85500512D01*
X181934194Y-85533685D01*
X181911460Y-85713640D01*
X181929160Y-85894160D01*
X181986415Y-86066273D01*
X181990062Y-86072295D01*
X181990063Y-86072297D01*
X182055136Y-86179745D01*
X182080377Y-86221424D01*
X182206379Y-86351902D01*
X182358156Y-86451222D01*
X182364760Y-86453678D01*
X182364762Y-86453679D01*
X182521555Y-86511990D01*
X182521557Y-86511990D01*
X182528165Y-86514448D01*
X182602301Y-86524340D01*
X182700977Y-86537507D01*
X182700981Y-86537507D01*
X182707958Y-86538438D01*
X182754081Y-86534240D01*
X182823733Y-86547987D01*
X182874897Y-86597208D01*
X182891499Y-86659722D01*
X182891499Y-89242341D01*
X182871497Y-89310462D01*
X182817841Y-89356955D01*
X182778670Y-89367651D01*
X182755254Y-89370112D01*
X182712285Y-89374628D01*
X182712284Y-89374628D01*
X182705284Y-89375364D01*
X182533575Y-89433818D01*
X182527571Y-89437512D01*
X182385091Y-89525166D01*
X182385088Y-89525168D01*
X182379084Y-89528862D01*
X182374049Y-89533793D01*
X182374046Y-89533795D01*
X182304320Y-89602076D01*
X182249489Y-89655771D01*
X182151231Y-89808238D01*
X182148821Y-89814860D01*
X182145688Y-89821170D01*
X182144017Y-89820340D01*
X182121265Y-89856050D01*
X177522720Y-94454595D01*
X177460408Y-94488621D01*
X177433625Y-94491500D01*
X171181371Y-94491500D01*
X171113250Y-94471498D01*
X171092276Y-94454595D01*
X170340405Y-93702724D01*
X170306379Y-93640412D01*
X170303500Y-93613629D01*
X170303500Y-92040469D01*
X174482095Y-92040469D01*
X174482392Y-92045622D01*
X174482392Y-92045625D01*
X174487886Y-92140908D01*
X174495427Y-92271697D01*
X174496564Y-92276743D01*
X174496565Y-92276749D01*
X174528472Y-92418329D01*
X174546346Y-92497642D01*
X174548288Y-92502424D01*
X174548289Y-92502428D01*
X174631540Y-92707450D01*
X174633484Y-92712237D01*
X174754501Y-92909719D01*
X174906147Y-93084784D01*
X175084349Y-93232730D01*
X175284322Y-93349584D01*
X175289147Y-93351426D01*
X175289148Y-93351427D01*
X175326900Y-93365843D01*
X175500694Y-93432209D01*
X175505760Y-93433240D01*
X175505761Y-93433240D01*
X175557380Y-93443742D01*
X175727656Y-93478385D01*
X175858324Y-93483176D01*
X175953949Y-93486683D01*
X175953953Y-93486683D01*
X175959113Y-93486872D01*
X175964233Y-93486216D01*
X175964235Y-93486216D01*
X176037270Y-93476860D01*
X176188847Y-93457442D01*
X176193795Y-93455957D01*
X176193802Y-93455956D01*
X176405747Y-93392369D01*
X176410690Y-93390886D01*
X176415324Y-93388616D01*
X176614049Y-93291262D01*
X176614052Y-93291260D01*
X176618684Y-93288991D01*
X176807243Y-93154494D01*
X176971303Y-92991005D01*
X177106458Y-92802917D01*
X177153641Y-92707450D01*
X177206784Y-92599922D01*
X177206785Y-92599920D01*
X177209078Y-92595280D01*
X177276408Y-92373671D01*
X177306640Y-92144041D01*
X177307381Y-92113718D01*
X177308245Y-92078365D01*
X177308245Y-92078361D01*
X177308327Y-92075000D01*
X177301291Y-91989421D01*
X177289773Y-91849318D01*
X177289772Y-91849312D01*
X177289349Y-91844167D01*
X177232925Y-91619533D01*
X177227502Y-91607061D01*
X177142630Y-91411868D01*
X177142628Y-91411865D01*
X177140570Y-91407131D01*
X177014764Y-91212665D01*
X176924848Y-91113848D01*
X176893796Y-91050002D01*
X176902192Y-90979504D01*
X176947369Y-90924736D01*
X176973812Y-90911067D01*
X177033297Y-90888767D01*
X177041705Y-90885615D01*
X177158261Y-90798261D01*
X177245615Y-90681705D01*
X177296745Y-90545316D01*
X177303500Y-90483134D01*
X177303500Y-88586866D01*
X177296745Y-88524684D01*
X177245615Y-88388295D01*
X177158261Y-88271739D01*
X177041705Y-88184385D01*
X176905316Y-88133255D01*
X176896008Y-88132244D01*
X176894953Y-88131806D01*
X176889778Y-88130575D01*
X176889977Y-88129738D01*
X176830448Y-88105005D01*
X176790019Y-88046644D01*
X176787561Y-87975690D01*
X176820519Y-87917886D01*
X178177678Y-86560727D01*
X178239990Y-86526701D01*
X178255337Y-86524343D01*
X178281100Y-86521998D01*
X178287802Y-86519820D01*
X178287804Y-86519820D01*
X178446909Y-86468124D01*
X178446912Y-86468123D01*
X178453608Y-86465947D01*
X178553386Y-86406467D01*
X178603360Y-86376677D01*
X178603362Y-86376676D01*
X178609412Y-86373069D01*
X178740766Y-86247982D01*
X178841143Y-86096902D01*
X178890822Y-85966122D01*
X178903055Y-85933920D01*
X178903056Y-85933918D01*
X178905555Y-85927338D01*
X178908226Y-85908332D01*
X178930248Y-85751639D01*
X178930248Y-85751636D01*
X178930799Y-85747717D01*
X178930996Y-85733598D01*
X178931061Y-85728962D01*
X178931061Y-85728957D01*
X178931116Y-85725000D01*
X178910897Y-85544745D01*
X178908580Y-85538091D01*
X178853564Y-85380106D01*
X178853562Y-85380103D01*
X178851245Y-85373448D01*
X178755126Y-85219624D01*
X178741441Y-85205843D01*
X178632278Y-85095915D01*
X178632274Y-85095912D01*
X178627315Y-85090918D01*
X178616197Y-85083862D01*
X178568038Y-85053300D01*
X178474166Y-84993727D01*
X178444963Y-84983328D01*
X178309925Y-84935243D01*
X178309920Y-84935242D01*
X178303290Y-84932881D01*
X178296302Y-84932048D01*
X178296299Y-84932047D01*
X178173198Y-84917368D01*
X178123180Y-84911404D01*
X178116177Y-84912140D01*
X178116176Y-84912140D01*
X177949788Y-84929628D01*
X177949786Y-84929629D01*
X177942788Y-84930364D01*
X177771079Y-84988818D01*
X177765075Y-84992512D01*
X177622595Y-85080166D01*
X177622592Y-85080168D01*
X177616588Y-85083862D01*
X177611553Y-85088793D01*
X177611550Y-85088795D01*
X177492253Y-85205620D01*
X177486993Y-85210771D01*
X177388735Y-85363238D01*
X177386326Y-85369858D01*
X177386324Y-85369861D01*
X177338771Y-85500512D01*
X177326697Y-85533685D01*
X177319637Y-85589569D01*
X177291257Y-85654642D01*
X177283727Y-85662869D01*
X176391229Y-86555366D01*
X175502747Y-87443848D01*
X175494461Y-87451388D01*
X175487982Y-87455500D01*
X175482557Y-87461277D01*
X175441357Y-87505151D01*
X175438602Y-87507993D01*
X175418865Y-87527730D01*
X175416385Y-87530927D01*
X175408682Y-87539947D01*
X175378414Y-87572179D01*
X175374595Y-87579125D01*
X175374593Y-87579128D01*
X175368652Y-87589934D01*
X175357801Y-87606453D01*
X175345386Y-87622459D01*
X175342241Y-87629728D01*
X175342238Y-87629732D01*
X175327826Y-87663037D01*
X175322609Y-87673687D01*
X175301305Y-87712440D01*
X175299334Y-87720115D01*
X175299334Y-87720116D01*
X175296267Y-87732062D01*
X175289863Y-87750766D01*
X175281819Y-87769355D01*
X175280580Y-87777178D01*
X175280577Y-87777188D01*
X175274901Y-87813024D01*
X175272495Y-87824644D01*
X175261500Y-87867470D01*
X175261500Y-87887724D01*
X175259949Y-87907434D01*
X175256780Y-87927443D01*
X175257526Y-87935335D01*
X175260941Y-87971461D01*
X175261500Y-87983319D01*
X175261500Y-88000500D01*
X175241498Y-88068621D01*
X175187842Y-88115114D01*
X175135500Y-88126500D01*
X174946866Y-88126500D01*
X174884684Y-88133255D01*
X174748295Y-88184385D01*
X174631739Y-88271739D01*
X174544385Y-88388295D01*
X174493255Y-88524684D01*
X174486500Y-88586866D01*
X174486500Y-90483134D01*
X174493255Y-90545316D01*
X174544385Y-90681705D01*
X174631739Y-90798261D01*
X174748295Y-90885615D01*
X174756704Y-90888767D01*
X174756705Y-90888768D01*
X174816164Y-90911058D01*
X174872929Y-90953699D01*
X174897629Y-91020261D01*
X174882422Y-91089609D01*
X174863029Y-91116091D01*
X174796639Y-91185564D01*
X174793725Y-91189836D01*
X174793724Y-91189837D01*
X174778152Y-91212665D01*
X174666119Y-91376899D01*
X174568602Y-91586981D01*
X174506707Y-91810169D01*
X174482095Y-92040469D01*
X170303500Y-92040469D01*
X170303500Y-84852952D01*
X170303999Y-84841752D01*
X170304151Y-84840048D01*
X170305641Y-84832885D01*
X170303546Y-84755458D01*
X170303500Y-84752050D01*
X170303500Y-83620000D01*
X171456693Y-83620000D01*
X171475885Y-83839371D01*
X171532880Y-84052076D01*
X171573458Y-84139095D01*
X171623618Y-84246666D01*
X171623621Y-84246671D01*
X171625944Y-84251653D01*
X171629100Y-84256160D01*
X171629101Y-84256162D01*
X171728858Y-84398629D01*
X171752251Y-84432038D01*
X171907962Y-84587749D01*
X172088346Y-84714056D01*
X172287924Y-84807120D01*
X172500629Y-84864115D01*
X172720000Y-84883307D01*
X172939371Y-84864115D01*
X173152076Y-84807120D01*
X173351654Y-84714056D01*
X173532038Y-84587749D01*
X173687749Y-84432038D01*
X173711143Y-84398629D01*
X173810899Y-84256162D01*
X173810900Y-84256160D01*
X173814056Y-84251653D01*
X173816379Y-84246671D01*
X173816382Y-84246666D01*
X173866542Y-84139095D01*
X173907120Y-84052076D01*
X173964115Y-83839371D01*
X173983307Y-83620000D01*
X173964115Y-83400629D01*
X173907120Y-83187924D01*
X173845001Y-83054709D01*
X173816382Y-82993334D01*
X173816379Y-82993329D01*
X173814056Y-82988347D01*
X173728327Y-82865913D01*
X173690908Y-82812473D01*
X173690906Y-82812470D01*
X173687749Y-82807962D01*
X173532038Y-82652251D01*
X173351654Y-82525944D01*
X173152076Y-82432880D01*
X172939371Y-82375885D01*
X172720000Y-82356693D01*
X172500629Y-82375885D01*
X172287924Y-82432880D01*
X172194562Y-82476415D01*
X172093334Y-82523618D01*
X172093329Y-82523621D01*
X172088347Y-82525944D01*
X172083840Y-82529100D01*
X172083838Y-82529101D01*
X171912473Y-82649092D01*
X171912470Y-82649094D01*
X171907962Y-82652251D01*
X171752251Y-82807962D01*
X171749094Y-82812470D01*
X171749092Y-82812473D01*
X171711673Y-82865913D01*
X171625944Y-82988347D01*
X171623621Y-82993329D01*
X171623618Y-82993334D01*
X171594999Y-83054709D01*
X171532880Y-83187924D01*
X171475885Y-83400629D01*
X171456693Y-83620000D01*
X170303500Y-83620000D01*
X170303500Y-78740000D01*
X171456693Y-78740000D01*
X171475885Y-78959371D01*
X171532880Y-79172076D01*
X171535205Y-79177061D01*
X171623618Y-79366666D01*
X171623621Y-79366671D01*
X171625944Y-79371653D01*
X171629100Y-79376160D01*
X171629101Y-79376162D01*
X171743470Y-79539497D01*
X171752251Y-79552038D01*
X171907962Y-79707749D01*
X171912471Y-79710906D01*
X171912473Y-79710908D01*
X171976448Y-79755704D01*
X172088346Y-79834056D01*
X172287924Y-79927120D01*
X172500629Y-79984115D01*
X172720000Y-80003307D01*
X172939371Y-79984115D01*
X173152076Y-79927120D01*
X173351654Y-79834056D01*
X173463552Y-79755704D01*
X173527527Y-79710908D01*
X173527529Y-79710906D01*
X173532038Y-79707749D01*
X173687749Y-79552038D01*
X173696531Y-79539497D01*
X173810899Y-79376162D01*
X173810900Y-79376160D01*
X173814056Y-79371653D01*
X173816379Y-79366671D01*
X173816382Y-79366666D01*
X173904795Y-79177061D01*
X173907120Y-79172076D01*
X173964115Y-78959371D01*
X173983307Y-78740000D01*
X173964115Y-78520629D01*
X173907120Y-78307924D01*
X173863585Y-78214562D01*
X173816382Y-78113334D01*
X173816379Y-78113329D01*
X173814056Y-78108347D01*
X173798861Y-78086646D01*
X173690908Y-77932473D01*
X173690906Y-77932470D01*
X173687749Y-77927962D01*
X173532038Y-77772251D01*
X173490604Y-77743238D01*
X173452759Y-77716739D01*
X173351654Y-77645944D01*
X173152076Y-77552880D01*
X172939371Y-77495885D01*
X172720000Y-77476693D01*
X172500629Y-77495885D01*
X172287924Y-77552880D01*
X172215079Y-77586848D01*
X172093334Y-77643618D01*
X172093329Y-77643621D01*
X172088347Y-77645944D01*
X172083840Y-77649100D01*
X172083838Y-77649101D01*
X171912473Y-77769092D01*
X171912470Y-77769094D01*
X171907962Y-77772251D01*
X171752251Y-77927962D01*
X171749094Y-77932470D01*
X171749092Y-77932473D01*
X171641139Y-78086646D01*
X171625944Y-78108347D01*
X171623621Y-78113329D01*
X171623618Y-78113334D01*
X171576415Y-78214562D01*
X171532880Y-78307924D01*
X171475885Y-78520629D01*
X171456693Y-78740000D01*
X170303500Y-78740000D01*
X170303500Y-70216371D01*
X170323502Y-70148250D01*
X170340405Y-70127276D01*
X170457276Y-70010405D01*
X170519588Y-69976379D01*
X170546371Y-69973500D01*
X173687282Y-69973500D01*
X173731202Y-69981403D01*
X173786558Y-70001990D01*
X173786560Y-70001991D01*
X173793168Y-70004448D01*
X173876995Y-70015633D01*
X173965980Y-70027507D01*
X173965984Y-70027507D01*
X173972961Y-70028438D01*
X173979972Y-70027800D01*
X173979976Y-70027800D01*
X174122459Y-70014832D01*
X174153600Y-70011998D01*
X174160302Y-70009820D01*
X174160304Y-70009820D01*
X174253105Y-69979667D01*
X174292041Y-69973500D01*
X175827930Y-69973500D01*
X175846880Y-69974933D01*
X175861115Y-69977099D01*
X175861119Y-69977099D01*
X175868349Y-69978199D01*
X175875641Y-69977606D01*
X175875644Y-69977606D01*
X175921018Y-69973915D01*
X175931233Y-69973500D01*
X175939293Y-69973500D01*
X175952583Y-69971951D01*
X175967507Y-69970211D01*
X175971882Y-69969778D01*
X176037339Y-69964454D01*
X176037342Y-69964453D01*
X176044637Y-69963860D01*
X176051601Y-69961604D01*
X176057560Y-69960413D01*
X176063415Y-69959029D01*
X176070681Y-69958182D01*
X176139327Y-69933265D01*
X176143455Y-69931848D01*
X176205936Y-69911607D01*
X176205938Y-69911606D01*
X176212899Y-69909351D01*
X176219154Y-69905555D01*
X176224628Y-69903049D01*
X176230058Y-69900330D01*
X176236937Y-69897833D01*
X176297976Y-69857814D01*
X176301680Y-69855477D01*
X176364107Y-69817595D01*
X176372484Y-69810197D01*
X176372508Y-69810224D01*
X176375499Y-69807572D01*
X176378733Y-69804868D01*
X176384852Y-69800856D01*
X176438111Y-69744635D01*
X176440488Y-69742193D01*
X177272997Y-68909684D01*
X178114177Y-68068503D01*
X178138750Y-68049372D01*
X178245984Y-67985447D01*
X178314737Y-67967748D01*
X178382147Y-67990030D01*
G37*
G04 #@! TD.AperFunction*
G04 #@! TA.AperFunction,Conductor*
G36*
X165166456Y-66913348D02*
G01*
X165235271Y-66956515D01*
X165242807Y-66960556D01*
X165484520Y-67069694D01*
X165492551Y-67072680D01*
X165746832Y-67148002D01*
X165755184Y-67149869D01*
X166017340Y-67189984D01*
X166025874Y-67190700D01*
X166291045Y-67194867D01*
X166299596Y-67194418D01*
X166562883Y-67162557D01*
X166571287Y-67160954D01*
X166640333Y-67142841D01*
X166711300Y-67144903D01*
X166769886Y-67185004D01*
X166797492Y-67250414D01*
X166785352Y-67320365D01*
X166761401Y-67353812D01*
X166672251Y-67442962D01*
X166545944Y-67623347D01*
X166543621Y-67628329D01*
X166543618Y-67628334D01*
X166496415Y-67729562D01*
X166452880Y-67822924D01*
X166395885Y-68035629D01*
X166376693Y-68255000D01*
X166395885Y-68474371D01*
X166452880Y-68687076D01*
X166476330Y-68737364D01*
X166543618Y-68881666D01*
X166543621Y-68881671D01*
X166545944Y-68886653D01*
X166549100Y-68891160D01*
X166549101Y-68891162D01*
X166639427Y-69020160D01*
X166672251Y-69067038D01*
X166827962Y-69222749D01*
X167008346Y-69349056D01*
X167013331Y-69351380D01*
X167013337Y-69351384D01*
X167097877Y-69390805D01*
X167151163Y-69437722D01*
X167170624Y-69505999D01*
X167150082Y-69573959D01*
X167097878Y-69619195D01*
X167013334Y-69658618D01*
X167013329Y-69658621D01*
X167008347Y-69660944D01*
X167003840Y-69664100D01*
X167003838Y-69664101D01*
X166832473Y-69784092D01*
X166832470Y-69784094D01*
X166827962Y-69787251D01*
X166672251Y-69942962D01*
X166669094Y-69947470D01*
X166669092Y-69947473D01*
X166549101Y-70118838D01*
X166545944Y-70123347D01*
X166543621Y-70128329D01*
X166543618Y-70128334D01*
X166511511Y-70197188D01*
X166452880Y-70322924D01*
X166395885Y-70535629D01*
X166376693Y-70755000D01*
X166395885Y-70974371D01*
X166452880Y-71187076D01*
X166489972Y-71266620D01*
X166543618Y-71381666D01*
X166543621Y-71381671D01*
X166545944Y-71386653D01*
X166549100Y-71391160D01*
X166549101Y-71391162D01*
X166653878Y-71540798D01*
X166672251Y-71567038D01*
X166771118Y-71665905D01*
X166805144Y-71728217D01*
X166800079Y-71799032D01*
X166771118Y-71844095D01*
X166672251Y-71942962D01*
X166669094Y-71947470D01*
X166669092Y-71947473D01*
X166605391Y-72038448D01*
X166545944Y-72123347D01*
X166543621Y-72128329D01*
X166543618Y-72128334D01*
X166513900Y-72192066D01*
X166452880Y-72322924D01*
X166395885Y-72535629D01*
X166376693Y-72755000D01*
X166395885Y-72974371D01*
X166452880Y-73187076D01*
X166455205Y-73192061D01*
X166543618Y-73381666D01*
X166543621Y-73381671D01*
X166545944Y-73386653D01*
X166549100Y-73391160D01*
X166549101Y-73391162D01*
X166668277Y-73561362D01*
X166672251Y-73567038D01*
X166827962Y-73722749D01*
X167008346Y-73849056D01*
X167013328Y-73851379D01*
X167013333Y-73851382D01*
X167098469Y-73891081D01*
X167151754Y-73937998D01*
X167171215Y-74006276D01*
X167150673Y-74074235D01*
X167098469Y-74119471D01*
X167013583Y-74159054D01*
X167004093Y-74164534D01*
X166962851Y-74193411D01*
X166954477Y-74203887D01*
X166961545Y-74217334D01*
X167627189Y-74882979D01*
X167641132Y-74890592D01*
X167642966Y-74890461D01*
X167649580Y-74886210D01*
X168319180Y-74216609D01*
X168325607Y-74204839D01*
X168316313Y-74192825D01*
X168275912Y-74164536D01*
X168266416Y-74159053D01*
X168181531Y-74119471D01*
X168128246Y-74072554D01*
X168108785Y-74004276D01*
X168129327Y-73936316D01*
X168181531Y-73891081D01*
X168266667Y-73851382D01*
X168266672Y-73851379D01*
X168271654Y-73849056D01*
X168452038Y-73722749D01*
X168571405Y-73603382D01*
X168633717Y-73569356D01*
X168704532Y-73574421D01*
X168761368Y-73616968D01*
X168786179Y-73683488D01*
X168786500Y-73692477D01*
X168786500Y-74443223D01*
X168766498Y-74511344D01*
X168719122Y-74554756D01*
X168677665Y-74576546D01*
X168012021Y-75242189D01*
X168004408Y-75256132D01*
X168004539Y-75257966D01*
X168008790Y-75264580D01*
X168678390Y-75934179D01*
X168720886Y-75957384D01*
X168771088Y-76007586D01*
X168786500Y-76067971D01*
X168786500Y-84398629D01*
X168766498Y-84466750D01*
X168749595Y-84487724D01*
X167856837Y-85380482D01*
X167794525Y-85414508D01*
X167756761Y-85416908D01*
X167645476Y-85407172D01*
X167645475Y-85407172D01*
X167640000Y-85406693D01*
X167499777Y-85418961D01*
X167430174Y-85404972D01*
X167379182Y-85355572D01*
X167362991Y-85286447D01*
X167386743Y-85219541D01*
X167400142Y-85205620D01*
X167413125Y-85187442D01*
X167406608Y-85175818D01*
X165919885Y-83689095D01*
X165885859Y-83626783D01*
X165887694Y-83601132D01*
X166554408Y-83601132D01*
X166554539Y-83602965D01*
X166558790Y-83609580D01*
X167765730Y-84816520D01*
X167777939Y-84823187D01*
X167789439Y-84814497D01*
X167886831Y-84681913D01*
X167891418Y-84674685D01*
X168017962Y-84441621D01*
X168021530Y-84433827D01*
X168115271Y-84185750D01*
X168117748Y-84177544D01*
X168176954Y-83919038D01*
X168178294Y-83910577D01*
X168202031Y-83644616D01*
X168202277Y-83639677D01*
X168202666Y-83602485D01*
X168202523Y-83597519D01*
X168184362Y-83331123D01*
X168183201Y-83322649D01*
X168129419Y-83062944D01*
X168127120Y-83054709D01*
X168038588Y-82804705D01*
X168035191Y-82796854D01*
X167913550Y-82561178D01*
X167909122Y-82553866D01*
X167790031Y-82384417D01*
X167779509Y-82376037D01*
X167766121Y-82383089D01*
X166562022Y-83587188D01*
X166554408Y-83601132D01*
X165887694Y-83601132D01*
X165890924Y-83555968D01*
X165919885Y-83510905D01*
X167406604Y-82024186D01*
X167413795Y-82011017D01*
X167406473Y-82000780D01*
X167359233Y-81962115D01*
X167352261Y-81957160D01*
X167126122Y-81818582D01*
X167118552Y-81814624D01*
X166875704Y-81708022D01*
X166867644Y-81705120D01*
X166612592Y-81632467D01*
X166604214Y-81630685D01*
X166341656Y-81593318D01*
X166333111Y-81592691D01*
X166067908Y-81591302D01*
X166059374Y-81591839D01*
X165796433Y-81626456D01*
X165788035Y-81628149D01*
X165532238Y-81698127D01*
X165524143Y-81700946D01*
X165280199Y-81804997D01*
X165272576Y-81808881D01*
X165164206Y-81873739D01*
X165095482Y-81891559D01*
X165028034Y-81869395D01*
X164983276Y-81814284D01*
X164973500Y-81765623D01*
X164973500Y-80160086D01*
X164993502Y-80091965D01*
X165047158Y-80045472D01*
X165117432Y-80035368D01*
X165166456Y-80053348D01*
X165235271Y-80096515D01*
X165242807Y-80100556D01*
X165484520Y-80209694D01*
X165492551Y-80212680D01*
X165746832Y-80288002D01*
X165755184Y-80289869D01*
X166017340Y-80329984D01*
X166025874Y-80330700D01*
X166291045Y-80334867D01*
X166299596Y-80334418D01*
X166562883Y-80302557D01*
X166571284Y-80300955D01*
X166827824Y-80233653D01*
X166835926Y-80230926D01*
X167080949Y-80129434D01*
X167088617Y-80125628D01*
X167317598Y-79991822D01*
X167324679Y-79987009D01*
X167404655Y-79924301D01*
X167413125Y-79912442D01*
X167406608Y-79900818D01*
X165919885Y-78414095D01*
X165885859Y-78351783D01*
X165887694Y-78326132D01*
X166554408Y-78326132D01*
X166554539Y-78327965D01*
X166558790Y-78334580D01*
X167765730Y-79541520D01*
X167777939Y-79548187D01*
X167789439Y-79539497D01*
X167886831Y-79406913D01*
X167891418Y-79399685D01*
X168017962Y-79166621D01*
X168021530Y-79158827D01*
X168115271Y-78910750D01*
X168117748Y-78902544D01*
X168176954Y-78644038D01*
X168178294Y-78635577D01*
X168202031Y-78369616D01*
X168202277Y-78364677D01*
X168202666Y-78327485D01*
X168202523Y-78322519D01*
X168184362Y-78056123D01*
X168183201Y-78047649D01*
X168129419Y-77787944D01*
X168127120Y-77779709D01*
X168038588Y-77529705D01*
X168035191Y-77521854D01*
X167913550Y-77286178D01*
X167909122Y-77278866D01*
X167790031Y-77109417D01*
X167779509Y-77101037D01*
X167766121Y-77108089D01*
X166562022Y-78312188D01*
X166554408Y-78326132D01*
X165887694Y-78326132D01*
X165890924Y-78280968D01*
X165919885Y-78235905D01*
X167406604Y-76749186D01*
X167413795Y-76736017D01*
X167396742Y-76712177D01*
X167398074Y-76711224D01*
X167369931Y-76670021D01*
X167367938Y-76599052D01*
X167404631Y-76538273D01*
X167468358Y-76506979D01*
X167500765Y-76505624D01*
X167634514Y-76517326D01*
X167645475Y-76517326D01*
X167853804Y-76499099D01*
X167864599Y-76497196D01*
X168066595Y-76443072D01*
X168076887Y-76439326D01*
X168266416Y-76350947D01*
X168275912Y-76345464D01*
X168317148Y-76316590D01*
X168325523Y-76306112D01*
X168318457Y-76292668D01*
X167652811Y-75627021D01*
X167638868Y-75619408D01*
X167637034Y-75619539D01*
X167630420Y-75623790D01*
X166960820Y-76293391D01*
X166939167Y-76333045D01*
X166936031Y-76347465D01*
X166885832Y-76397670D01*
X166816458Y-76412765D01*
X166790921Y-76408265D01*
X166612592Y-76357467D01*
X166604214Y-76355685D01*
X166341656Y-76318318D01*
X166333111Y-76317691D01*
X166067908Y-76316302D01*
X166059374Y-76316839D01*
X165796433Y-76351456D01*
X165788035Y-76353149D01*
X165532238Y-76423127D01*
X165524143Y-76425946D01*
X165280199Y-76529997D01*
X165272576Y-76533881D01*
X165164206Y-76598739D01*
X165095482Y-76616559D01*
X165028034Y-76594395D01*
X164983276Y-76539284D01*
X164973500Y-76490623D01*
X164973500Y-75260475D01*
X166377674Y-75260475D01*
X166395901Y-75468804D01*
X166397804Y-75479599D01*
X166451928Y-75681595D01*
X166455674Y-75691887D01*
X166544054Y-75881417D01*
X166549534Y-75890907D01*
X166578411Y-75932149D01*
X166588887Y-75940523D01*
X166602334Y-75933455D01*
X167267979Y-75267811D01*
X167275592Y-75253868D01*
X167275461Y-75252034D01*
X167271210Y-75245420D01*
X166601609Y-74575820D01*
X166589839Y-74569393D01*
X166577824Y-74578689D01*
X166549534Y-74619093D01*
X166544054Y-74628583D01*
X166455674Y-74818113D01*
X166451928Y-74828405D01*
X166397804Y-75030401D01*
X166395901Y-75041196D01*
X166377674Y-75249525D01*
X166377674Y-75260475D01*
X164973500Y-75260475D01*
X164973500Y-67020086D01*
X164993502Y-66951965D01*
X165047158Y-66905472D01*
X165117432Y-66895368D01*
X165166456Y-66913348D01*
G37*
G04 #@! TD.AperFunction*
G04 #@! TA.AperFunction,Conductor*
G36*
X192094175Y-63393502D02*
G01*
X192140668Y-63447158D01*
X192150772Y-63517432D01*
X192140618Y-63551951D01*
X192121701Y-63593269D01*
X192117967Y-63603815D01*
X192064853Y-63810679D01*
X192063082Y-63821234D01*
X192052207Y-63954930D01*
X192052000Y-63960036D01*
X192052000Y-64497885D01*
X192056475Y-64513124D01*
X192057865Y-64514329D01*
X192065548Y-64516000D01*
X196549884Y-64516000D01*
X196565123Y-64511525D01*
X196566328Y-64510135D01*
X196567999Y-64502452D01*
X196567999Y-63960039D01*
X196567791Y-63954929D01*
X196556918Y-63821233D01*
X196555148Y-63810680D01*
X196502033Y-63603815D01*
X196498299Y-63593269D01*
X196479382Y-63551951D01*
X196469212Y-63481687D01*
X196498643Y-63417078D01*
X196558333Y-63378638D01*
X196593946Y-63373500D01*
X198755500Y-63373500D01*
X198823621Y-63393502D01*
X198870114Y-63447158D01*
X198881500Y-63499500D01*
X198881500Y-75567167D01*
X198861498Y-75635288D01*
X198807842Y-75681781D01*
X198755500Y-75693167D01*
X195937012Y-75693167D01*
X195868891Y-75673165D01*
X195847606Y-75655951D01*
X195818878Y-75627021D01*
X195754839Y-75562534D01*
X195743721Y-75555478D01*
X195695562Y-75524916D01*
X195601690Y-75465343D01*
X195572487Y-75454944D01*
X195437449Y-75406859D01*
X195437444Y-75406858D01*
X195430814Y-75404497D01*
X195423826Y-75403664D01*
X195423823Y-75403663D01*
X195300722Y-75388984D01*
X195250704Y-75383020D01*
X195243701Y-75383756D01*
X195243700Y-75383756D01*
X195077312Y-75401244D01*
X195077310Y-75401245D01*
X195070312Y-75401980D01*
X194898603Y-75460434D01*
X194892599Y-75464128D01*
X194750119Y-75551782D01*
X194750116Y-75551784D01*
X194744112Y-75555478D01*
X194739077Y-75560409D01*
X194739074Y-75560411D01*
X194623934Y-75673165D01*
X194614517Y-75682387D01*
X194516259Y-75834854D01*
X194513850Y-75841474D01*
X194513848Y-75841477D01*
X194488998Y-75909753D01*
X194454221Y-76005301D01*
X194447162Y-76061183D01*
X194418781Y-76126257D01*
X194411251Y-76134485D01*
X193746139Y-76799596D01*
X193683827Y-76833621D01*
X193657044Y-76836500D01*
X190412338Y-76836500D01*
X190344824Y-76816885D01*
X190311583Y-76795790D01*
X190221666Y-76738727D01*
X190147105Y-76712177D01*
X190057425Y-76680243D01*
X190057420Y-76680242D01*
X190050790Y-76677881D01*
X190043802Y-76677048D01*
X190043799Y-76677047D01*
X189920698Y-76662368D01*
X189870680Y-76656404D01*
X189863677Y-76657140D01*
X189863676Y-76657140D01*
X189697288Y-76674628D01*
X189697286Y-76674629D01*
X189690288Y-76675364D01*
X189518579Y-76733818D01*
X189512575Y-76737512D01*
X189370095Y-76825166D01*
X189370092Y-76825168D01*
X189364088Y-76828862D01*
X189359053Y-76833793D01*
X189359050Y-76833795D01*
X189356288Y-76836500D01*
X189234493Y-76955771D01*
X189136235Y-77108238D01*
X189133826Y-77114858D01*
X189133824Y-77114861D01*
X189084358Y-77250769D01*
X189042264Y-77307940D01*
X189006564Y-77326951D01*
X188883579Y-77368818D01*
X188795520Y-77422993D01*
X188727021Y-77441651D01*
X188659306Y-77420312D01*
X188613878Y-77365753D01*
X188603499Y-77315675D01*
X188603499Y-76288766D01*
X188604026Y-76277583D01*
X188605701Y-76270090D01*
X188603561Y-76201999D01*
X188603499Y-76198042D01*
X188603499Y-76170143D01*
X188602995Y-76166152D01*
X188602062Y-76154310D01*
X188601181Y-76126257D01*
X188600673Y-76110110D01*
X188598461Y-76102496D01*
X188598460Y-76102491D01*
X188595022Y-76090658D01*
X188591011Y-76071294D01*
X188589466Y-76059063D01*
X188588473Y-76051202D01*
X188585556Y-76043835D01*
X188585555Y-76043830D01*
X188572197Y-76010091D01*
X188568353Y-75998864D01*
X188558229Y-75964021D01*
X188556017Y-75956406D01*
X188545706Y-75938971D01*
X188537011Y-75921223D01*
X188529551Y-75902382D01*
X188503563Y-75866612D01*
X188497047Y-75856692D01*
X188478579Y-75825464D01*
X188478577Y-75825461D01*
X188474541Y-75818637D01*
X188460220Y-75804316D01*
X188447379Y-75789282D01*
X188440130Y-75779305D01*
X188435471Y-75772892D01*
X188401394Y-75744701D01*
X188392615Y-75736711D01*
X182280405Y-69624500D01*
X182246379Y-69562188D01*
X182243500Y-69535405D01*
X182243500Y-66354594D01*
X182263502Y-66286473D01*
X182280405Y-66265499D01*
X183059549Y-65486355D01*
X183121861Y-65452329D01*
X183173762Y-65451979D01*
X183353597Y-65488567D01*
X183358772Y-65488757D01*
X183358774Y-65488757D01*
X183571673Y-65496564D01*
X183571677Y-65496564D01*
X183576837Y-65496753D01*
X183581957Y-65496097D01*
X183581959Y-65496097D01*
X183793288Y-65469025D01*
X183793289Y-65469025D01*
X183798416Y-65468368D01*
X183844827Y-65454444D01*
X184007429Y-65405661D01*
X184007434Y-65405659D01*
X184012384Y-65404174D01*
X184212994Y-65305896D01*
X184394860Y-65176173D01*
X184503091Y-65068319D01*
X184565462Y-65034404D01*
X184636268Y-65039592D01*
X184693030Y-65082238D01*
X184710012Y-65113341D01*
X184754385Y-65231705D01*
X184841739Y-65348261D01*
X184958295Y-65435615D01*
X185094684Y-65486745D01*
X185156866Y-65493500D01*
X185295500Y-65493500D01*
X185363621Y-65513502D01*
X185410114Y-65567158D01*
X185421500Y-65619500D01*
X185421500Y-70406233D01*
X185420973Y-70417416D01*
X185419298Y-70424909D01*
X185419547Y-70432835D01*
X185419547Y-70432836D01*
X185421438Y-70492986D01*
X185421500Y-70496945D01*
X185421500Y-70524856D01*
X185421997Y-70528790D01*
X185421997Y-70528791D01*
X185422005Y-70528856D01*
X185422938Y-70540693D01*
X185424327Y-70584889D01*
X185429978Y-70604339D01*
X185433987Y-70623700D01*
X185436526Y-70643797D01*
X185439445Y-70651168D01*
X185439445Y-70651170D01*
X185452804Y-70684912D01*
X185456649Y-70696142D01*
X185468982Y-70738593D01*
X185473015Y-70745412D01*
X185473017Y-70745417D01*
X185479293Y-70756028D01*
X185487988Y-70773776D01*
X185495448Y-70792617D01*
X185500110Y-70799033D01*
X185500110Y-70799034D01*
X185521436Y-70828387D01*
X185527952Y-70838307D01*
X185550458Y-70876362D01*
X185564779Y-70890683D01*
X185577619Y-70905716D01*
X185589528Y-70922107D01*
X185595634Y-70927158D01*
X185623605Y-70950298D01*
X185632384Y-70958288D01*
X189029750Y-74355654D01*
X189063776Y-74417966D01*
X189066054Y-74432453D01*
X189069163Y-74464160D01*
X189126418Y-74636273D01*
X189130065Y-74642295D01*
X189130066Y-74642297D01*
X189214261Y-74781320D01*
X189220380Y-74791424D01*
X189225269Y-74796487D01*
X189225270Y-74796488D01*
X189288703Y-74862174D01*
X189346382Y-74921902D01*
X189498159Y-75021222D01*
X189504763Y-75023678D01*
X189504765Y-75023679D01*
X189661558Y-75081990D01*
X189661560Y-75081990D01*
X189668168Y-75084448D01*
X189751995Y-75095633D01*
X189840980Y-75107507D01*
X189840984Y-75107507D01*
X189847961Y-75108438D01*
X189854972Y-75107800D01*
X189854976Y-75107800D01*
X189997459Y-75094832D01*
X190028600Y-75091998D01*
X190035302Y-75089820D01*
X190035304Y-75089820D01*
X190194409Y-75038124D01*
X190194412Y-75038123D01*
X190201108Y-75035947D01*
X190305266Y-74973856D01*
X190350860Y-74946677D01*
X190350862Y-74946676D01*
X190356912Y-74943069D01*
X190488266Y-74817982D01*
X190588643Y-74666902D01*
X190653055Y-74497338D01*
X190655998Y-74476397D01*
X190677748Y-74321639D01*
X190677748Y-74321636D01*
X190678299Y-74317717D01*
X190678616Y-74295000D01*
X190658397Y-74114745D01*
X190656080Y-74108091D01*
X190601064Y-73950106D01*
X190601062Y-73950103D01*
X190598745Y-73943448D01*
X190595009Y-73937469D01*
X190506359Y-73795598D01*
X190502626Y-73789624D01*
X190497664Y-73784627D01*
X190379778Y-73665915D01*
X190379774Y-73665912D01*
X190374815Y-73660918D01*
X190221666Y-73563727D01*
X190050790Y-73502881D01*
X190001007Y-73496945D01*
X189935733Y-73469018D01*
X189926830Y-73460926D01*
X186725405Y-70259500D01*
X186691379Y-70197188D01*
X186688500Y-70170405D01*
X186688500Y-68737364D01*
X187351500Y-68737364D01*
X187351591Y-68739037D01*
X187351591Y-68739052D01*
X187353446Y-68773295D01*
X187354619Y-68794957D01*
X187355456Y-68799243D01*
X187388504Y-68968469D01*
X187399620Y-69025393D01*
X187482804Y-69244952D01*
X187601791Y-69447356D01*
X187753181Y-69626819D01*
X187932644Y-69778209D01*
X187937248Y-69780915D01*
X187937250Y-69780917D01*
X187987103Y-69810224D01*
X188135048Y-69897196D01*
X188354607Y-69980380D01*
X188585043Y-70025381D01*
X188589401Y-70025617D01*
X188640948Y-70028409D01*
X188640963Y-70028409D01*
X188642636Y-70028500D01*
X190577364Y-70028500D01*
X190579037Y-70028409D01*
X190579052Y-70028409D01*
X190630599Y-70025617D01*
X190634957Y-70025381D01*
X190865393Y-69980380D01*
X191084952Y-69897196D01*
X191232897Y-69810224D01*
X191282750Y-69780917D01*
X191282752Y-69780915D01*
X191287356Y-69778209D01*
X191466819Y-69626819D01*
X191618209Y-69447356D01*
X191737196Y-69244952D01*
X191807673Y-69058932D01*
X191850512Y-69002317D01*
X191917160Y-68977849D01*
X191986455Y-68993298D01*
X192036398Y-69043759D01*
X192051500Y-69103573D01*
X192051500Y-72568134D01*
X192058255Y-72630316D01*
X192109385Y-72766705D01*
X192196739Y-72883261D01*
X192313295Y-72970615D01*
X192449684Y-73021745D01*
X192511866Y-73028500D01*
X196108134Y-73028500D01*
X196170316Y-73021745D01*
X196306705Y-72970615D01*
X196423261Y-72883261D01*
X196510615Y-72766705D01*
X196561745Y-72630316D01*
X196568500Y-72568134D01*
X196568500Y-68971866D01*
X196561745Y-68909684D01*
X196510615Y-68773295D01*
X196423261Y-68656739D01*
X196306705Y-68569385D01*
X196170316Y-68518255D01*
X196108134Y-68511500D01*
X192511866Y-68511500D01*
X192449684Y-68518255D01*
X192313295Y-68569385D01*
X192196739Y-68656739D01*
X192109385Y-68773295D01*
X192106236Y-68781696D01*
X192105019Y-68783918D01*
X192054760Y-68834064D01*
X191985369Y-68849077D01*
X191918877Y-68824191D01*
X191876395Y-68767307D01*
X191868500Y-68723408D01*
X191868500Y-66802636D01*
X191868129Y-66795771D01*
X191865617Y-66749401D01*
X191865381Y-66745043D01*
X191820380Y-66514607D01*
X191737196Y-66295048D01*
X191618209Y-66092644D01*
X191466819Y-65913181D01*
X191287356Y-65761791D01*
X191084952Y-65642804D01*
X190919082Y-65579961D01*
X192052001Y-65579961D01*
X192052209Y-65585071D01*
X192063082Y-65718767D01*
X192064852Y-65729320D01*
X192117967Y-65936185D01*
X192121701Y-65946731D01*
X192210510Y-66140705D01*
X192216046Y-66150412D01*
X192337803Y-66325597D01*
X192344976Y-66334176D01*
X192495824Y-66485024D01*
X192504403Y-66492197D01*
X192679588Y-66613954D01*
X192689295Y-66619490D01*
X192883269Y-66708299D01*
X192893815Y-66712033D01*
X193100679Y-66765147D01*
X193111234Y-66766918D01*
X193244930Y-66777793D01*
X193250036Y-66778000D01*
X194037885Y-66778000D01*
X194053124Y-66773525D01*
X194054329Y-66772135D01*
X194056000Y-66764452D01*
X194056000Y-66759884D01*
X194564000Y-66759884D01*
X194568475Y-66775123D01*
X194569865Y-66776328D01*
X194577548Y-66777999D01*
X195369961Y-66777999D01*
X195375071Y-66777791D01*
X195508767Y-66766918D01*
X195519320Y-66765148D01*
X195726185Y-66712033D01*
X195736731Y-66708299D01*
X195930705Y-66619490D01*
X195940412Y-66613954D01*
X196115597Y-66492197D01*
X196124176Y-66485024D01*
X196275024Y-66334176D01*
X196282197Y-66325597D01*
X196403954Y-66150412D01*
X196409490Y-66140705D01*
X196498299Y-65946731D01*
X196502033Y-65936185D01*
X196555147Y-65729321D01*
X196556918Y-65718766D01*
X196567793Y-65585070D01*
X196568000Y-65579964D01*
X196568000Y-65042115D01*
X196563525Y-65026876D01*
X196562135Y-65025671D01*
X196554452Y-65024000D01*
X194582115Y-65024000D01*
X194566876Y-65028475D01*
X194565671Y-65029865D01*
X194564000Y-65037548D01*
X194564000Y-66759884D01*
X194056000Y-66759884D01*
X194056000Y-65042115D01*
X194051525Y-65026876D01*
X194050135Y-65025671D01*
X194042452Y-65024000D01*
X192070116Y-65024000D01*
X192054877Y-65028475D01*
X192053672Y-65029865D01*
X192052001Y-65037548D01*
X192052001Y-65579961D01*
X190919082Y-65579961D01*
X190865393Y-65559620D01*
X190823194Y-65551379D01*
X190639243Y-65515456D01*
X190634957Y-65514619D01*
X190629227Y-65514309D01*
X190579052Y-65511591D01*
X190579037Y-65511591D01*
X190577364Y-65511500D01*
X188642636Y-65511500D01*
X188640963Y-65511591D01*
X188640948Y-65511591D01*
X188590773Y-65514309D01*
X188585043Y-65514619D01*
X188580757Y-65515456D01*
X188396807Y-65551379D01*
X188354607Y-65559620D01*
X188135048Y-65642804D01*
X187932644Y-65761791D01*
X187753181Y-65913181D01*
X187601791Y-66092644D01*
X187482804Y-66295048D01*
X187399620Y-66514607D01*
X187354619Y-66745043D01*
X187354383Y-66749401D01*
X187351872Y-66795771D01*
X187351500Y-66802636D01*
X187351500Y-68737364D01*
X186688500Y-68737364D01*
X186688500Y-65619500D01*
X186708502Y-65551379D01*
X186762158Y-65504886D01*
X186814500Y-65493500D01*
X186953134Y-65493500D01*
X187015316Y-65486745D01*
X187151705Y-65435615D01*
X187268261Y-65348261D01*
X187355615Y-65231705D01*
X187406745Y-65095316D01*
X187412815Y-65039440D01*
X187413131Y-65036531D01*
X187413500Y-65033134D01*
X187413500Y-63499500D01*
X187433502Y-63431379D01*
X187487158Y-63384886D01*
X187539500Y-63373500D01*
X192026054Y-63373500D01*
X192094175Y-63393502D01*
G37*
G04 #@! TD.AperFunction*
G04 #@! TA.AperFunction,Conductor*
G36*
X169541396Y-63393502D02*
G01*
X169587889Y-63447158D01*
X169597993Y-63517432D01*
X169587564Y-63552547D01*
X169535688Y-63664305D01*
X169475989Y-63879570D01*
X169452251Y-64101695D01*
X169465110Y-64324715D01*
X169466247Y-64329761D01*
X169466248Y-64329767D01*
X169477987Y-64381854D01*
X169514222Y-64542639D01*
X169598266Y-64749616D01*
X169714987Y-64940088D01*
X169861250Y-65108938D01*
X170033126Y-65251632D01*
X170226000Y-65364338D01*
X170434692Y-65444030D01*
X170439760Y-65445061D01*
X170439763Y-65445062D01*
X170547012Y-65466882D01*
X170653597Y-65488567D01*
X170658772Y-65488757D01*
X170658774Y-65488757D01*
X170871673Y-65496564D01*
X170871677Y-65496564D01*
X170876837Y-65496753D01*
X170881957Y-65496097D01*
X170881959Y-65496097D01*
X171093288Y-65469025D01*
X171093289Y-65469025D01*
X171098416Y-65468368D01*
X171103367Y-65466883D01*
X171103370Y-65466882D01*
X171144829Y-65454444D01*
X171215825Y-65454028D01*
X171270129Y-65486033D01*
X172216359Y-66432264D01*
X172223888Y-66440538D01*
X172228000Y-66447018D01*
X172233777Y-66452443D01*
X172277651Y-66493643D01*
X172280493Y-66496398D01*
X172300230Y-66516135D01*
X172303427Y-66518615D01*
X172312447Y-66526318D01*
X172344679Y-66556586D01*
X172351625Y-66560405D01*
X172351628Y-66560407D01*
X172362434Y-66566348D01*
X172378953Y-66577199D01*
X172394959Y-66589614D01*
X172402228Y-66592759D01*
X172402232Y-66592762D01*
X172435537Y-66607174D01*
X172446187Y-66612391D01*
X172484940Y-66633695D01*
X172492615Y-66635666D01*
X172492616Y-66635666D01*
X172504562Y-66638733D01*
X172523267Y-66645137D01*
X172541855Y-66653181D01*
X172549678Y-66654420D01*
X172549688Y-66654423D01*
X172585524Y-66660099D01*
X172597144Y-66662505D01*
X172632289Y-66671528D01*
X172639970Y-66673500D01*
X172660224Y-66673500D01*
X172679934Y-66675051D01*
X172699943Y-66678220D01*
X172707835Y-66677474D01*
X172743961Y-66674059D01*
X172755819Y-66673500D01*
X177017192Y-66673500D01*
X177085313Y-66693502D01*
X177131806Y-66747158D01*
X177141910Y-66817432D01*
X177123104Y-66867754D01*
X177071235Y-66948238D01*
X177068826Y-66954858D01*
X177065692Y-66961170D01*
X177064021Y-66960340D01*
X177041269Y-66996050D01*
X175617724Y-68419595D01*
X175555412Y-68453621D01*
X175528629Y-68456500D01*
X174291966Y-68456500D01*
X174249699Y-68449199D01*
X174182424Y-68425243D01*
X174182422Y-68425242D01*
X174175790Y-68422881D01*
X174168802Y-68422048D01*
X174168799Y-68422047D01*
X174045698Y-68407368D01*
X173995680Y-68401404D01*
X173988677Y-68402140D01*
X173988676Y-68402140D01*
X173822288Y-68419628D01*
X173822286Y-68419629D01*
X173815288Y-68420364D01*
X173730585Y-68449199D01*
X173728884Y-68449778D01*
X173688279Y-68456500D01*
X170247070Y-68456500D01*
X170228120Y-68455067D01*
X170213885Y-68452901D01*
X170213881Y-68452901D01*
X170206651Y-68451801D01*
X170199359Y-68452394D01*
X170199356Y-68452394D01*
X170153982Y-68456085D01*
X170143767Y-68456500D01*
X169023183Y-68456500D01*
X168955062Y-68436498D01*
X168908569Y-68382842D01*
X168897663Y-68319518D01*
X168902828Y-68260486D01*
X168902828Y-68260475D01*
X168903307Y-68255000D01*
X168884115Y-68035629D01*
X168827120Y-67822924D01*
X168783585Y-67729562D01*
X168736382Y-67628334D01*
X168736379Y-67628329D01*
X168734056Y-67623347D01*
X168607749Y-67442962D01*
X168452038Y-67287251D01*
X168271654Y-67160944D01*
X168072076Y-67067880D01*
X167859371Y-67010885D01*
X167640000Y-66991693D01*
X167499777Y-67003961D01*
X167430174Y-66989972D01*
X167379182Y-66940572D01*
X167362991Y-66871447D01*
X167386743Y-66804541D01*
X167400142Y-66790620D01*
X167413125Y-66772442D01*
X167406608Y-66760818D01*
X165919885Y-65274095D01*
X165885859Y-65211783D01*
X165887694Y-65186132D01*
X166554408Y-65186132D01*
X166554539Y-65187965D01*
X166558790Y-65194580D01*
X167765730Y-66401520D01*
X167777939Y-66408187D01*
X167789439Y-66399497D01*
X167886831Y-66266913D01*
X167891418Y-66259685D01*
X168017962Y-66026621D01*
X168021530Y-66018827D01*
X168115271Y-65770750D01*
X168117748Y-65762544D01*
X168176954Y-65504038D01*
X168178294Y-65495577D01*
X168202031Y-65229616D01*
X168202277Y-65224677D01*
X168202666Y-65187485D01*
X168202523Y-65182519D01*
X168184362Y-64916123D01*
X168183201Y-64907649D01*
X168129419Y-64647944D01*
X168127120Y-64639709D01*
X168038588Y-64389705D01*
X168035191Y-64381854D01*
X167913550Y-64146178D01*
X167909122Y-64138866D01*
X167790031Y-63969417D01*
X167779509Y-63961037D01*
X167766121Y-63968089D01*
X166562022Y-65172188D01*
X166554408Y-65186132D01*
X165887694Y-65186132D01*
X165890924Y-65140968D01*
X165919885Y-65095905D01*
X167406604Y-63609186D01*
X167413796Y-63596016D01*
X167397193Y-63572806D01*
X167373829Y-63505764D01*
X167390419Y-63436733D01*
X167441697Y-63387630D01*
X167499673Y-63373500D01*
X169473275Y-63373500D01*
X169541396Y-63393502D01*
G37*
G04 #@! TD.AperFunction*
M02*
