G04 #@! TF.GenerationSoftware,KiCad,Pcbnew,6.0.8-f2edbf62ab~116~ubuntu22.04.1*
G04 #@! TF.CreationDate,2022-10-13T12:47:22+02:00*
G04 #@! TF.ProjectId,Dual USB Controller adapter CPC,4475616c-2055-4534-9220-436f6e74726f,0.2*
G04 #@! TF.SameCoordinates,Original*
G04 #@! TF.FileFunction,Paste,Top*
G04 #@! TF.FilePolarity,Positive*
%FSLAX46Y46*%
G04 Gerber Fmt 4.6, Leading zero omitted, Abs format (unit mm)*
G04 Created by KiCad (PCBNEW 6.0.8-f2edbf62ab~116~ubuntu22.04.1) date 2022-10-13 12:47:22*
%MOMM*%
%LPD*%
G01*
G04 APERTURE LIST*
G04 Aperture macros list*
%AMRoundRect*
0 Rectangle with rounded corners*
0 $1 Rounding radius*
0 $2 $3 $4 $5 $6 $7 $8 $9 X,Y pos of 4 corners*
0 Add a 4 corners polygon primitive as box body*
4,1,4,$2,$3,$4,$5,$6,$7,$8,$9,$2,$3,0*
0 Add four circle primitives for the rounded corners*
1,1,$1+$1,$2,$3*
1,1,$1+$1,$4,$5*
1,1,$1+$1,$6,$7*
1,1,$1+$1,$8,$9*
0 Add four rect primitives between the rounded corners*
20,1,$1+$1,$2,$3,$4,$5,0*
20,1,$1+$1,$4,$5,$6,$7,0*
20,1,$1+$1,$6,$7,$8,$9,0*
20,1,$1+$1,$8,$9,$2,$3,0*%
%AMRotRect*
0 Rectangle, with rotation*
0 The origin of the aperture is its center*
0 $1 length*
0 $2 width*
0 $3 Rotation angle, in degrees counterclockwise*
0 Add horizontal line*
21,1,$1,$2,0,0,$3*%
G04 Aperture macros list end*
%ADD10RotRect,0.900000X0.800000X45.000000*%
%ADD11RoundRect,0.318150X-0.318150X-0.381850X0.318150X-0.381850X0.318150X0.381850X-0.318150X0.381850X0*%
%ADD12RoundRect,0.250000X0.250000X0.475000X-0.250000X0.475000X-0.250000X-0.475000X0.250000X-0.475000X0*%
%ADD13RoundRect,0.250000X-0.475000X0.250000X-0.475000X-0.250000X0.475000X-0.250000X0.475000X0.250000X0*%
%ADD14RoundRect,0.250000X0.475000X-0.250000X0.475000X0.250000X-0.475000X0.250000X-0.475000X-0.250000X0*%
%ADD15RoundRect,0.250000X-0.250000X-0.475000X0.250000X-0.475000X0.250000X0.475000X-0.250000X0.475000X0*%
%ADD16R,3.480000X1.846667*%
%ADD17RoundRect,0.250000X-0.262500X-0.450000X0.262500X-0.450000X0.262500X0.450000X-0.262500X0.450000X0*%
%ADD18R,0.500000X0.800000*%
%ADD19R,0.400000X0.800000*%
%ADD20RoundRect,0.150000X-0.150000X0.587500X-0.150000X-0.587500X0.150000X-0.587500X0.150000X0.587500X0*%
%ADD21RoundRect,0.250000X-1.075000X0.312500X-1.075000X-0.312500X1.075000X-0.312500X1.075000X0.312500X0*%
%ADD22RoundRect,0.250000X-0.450000X0.262500X-0.450000X-0.262500X0.450000X-0.262500X0.450000X0.262500X0*%
%ADD23R,1.846667X3.480000*%
%ADD24R,1.500000X1.500000*%
%ADD25RoundRect,0.250000X0.450000X-0.262500X0.450000X0.262500X-0.450000X0.262500X-0.450000X-0.262500X0*%
%ADD26R,1.700000X1.300000*%
%ADD27RoundRect,0.075000X-0.700000X-0.075000X0.700000X-0.075000X0.700000X0.075000X-0.700000X0.075000X0*%
%ADD28RoundRect,0.075000X-0.075000X-0.700000X0.075000X-0.700000X0.075000X0.700000X-0.075000X0.700000X0*%
%ADD29RoundRect,0.150000X-0.150000X0.512500X-0.150000X-0.512500X0.150000X-0.512500X0.150000X0.512500X0*%
G04 APERTURE END LIST*
D10*
X175895000Y-70421500D03*
X177238503Y-71765003D03*
X177980965Y-69679038D03*
D11*
X192251300Y-76200000D03*
X193828700Y-76200000D03*
D12*
X176845000Y-67310000D03*
X174945000Y-67310000D03*
D13*
X176530000Y-80330000D03*
X176530000Y-82230000D03*
D11*
X192251300Y-89535000D03*
X193828700Y-89535000D03*
D14*
X179705000Y-90182500D03*
X179705000Y-88282500D03*
D15*
X192090000Y-87630000D03*
X193990000Y-87630000D03*
X192090000Y-74295000D03*
X193990000Y-74295000D03*
D16*
X197485000Y-75740000D03*
X197485000Y-78510000D03*
X197485000Y-81280000D03*
X197485000Y-84050000D03*
X197485000Y-86820000D03*
D17*
X170537500Y-88900000D03*
X172362500Y-88900000D03*
D18*
X188030000Y-92975000D03*
D19*
X188830000Y-92975000D03*
X189630000Y-92975000D03*
D18*
X190430000Y-92975000D03*
X190430000Y-91175000D03*
D19*
X189630000Y-91175000D03*
X188830000Y-91175000D03*
D18*
X188030000Y-91175000D03*
D17*
X170537500Y-71120000D03*
X172362500Y-71120000D03*
D20*
X184465000Y-70817500D03*
X182565000Y-70817500D03*
X183515000Y-72692500D03*
D21*
X187325000Y-70927500D03*
X187325000Y-73852500D03*
D22*
X186055000Y-91162500D03*
X186055000Y-92987500D03*
D23*
X180515000Y-97155000D03*
X183285000Y-97155000D03*
X186055000Y-97155000D03*
X188825000Y-97155000D03*
X191595000Y-97155000D03*
D17*
X170537500Y-67310000D03*
X172362500Y-67310000D03*
D22*
X179705000Y-91797500D03*
X179705000Y-93622500D03*
D14*
X176530000Y-78752500D03*
X176530000Y-76852500D03*
X176530000Y-85707500D03*
X176530000Y-83807500D03*
D24*
X177890000Y-96520000D03*
X170090000Y-96520000D03*
D25*
X180340000Y-68857500D03*
X180340000Y-67032500D03*
D26*
X180340000Y-70640000D03*
X180340000Y-74140000D03*
D27*
X179745000Y-78165000D03*
X179745000Y-78665000D03*
X179745000Y-79165000D03*
X179745000Y-79665000D03*
X179745000Y-80165000D03*
X179745000Y-80665000D03*
X179745000Y-81165000D03*
X179745000Y-81665000D03*
X179745000Y-82165000D03*
X179745000Y-82665000D03*
X179745000Y-83165000D03*
X179745000Y-83665000D03*
X179745000Y-84165000D03*
X179745000Y-84665000D03*
X179745000Y-85165000D03*
X179745000Y-85665000D03*
D28*
X181670000Y-87590000D03*
X182170000Y-87590000D03*
X182670000Y-87590000D03*
X183170000Y-87590000D03*
X183670000Y-87590000D03*
X184170000Y-87590000D03*
X184670000Y-87590000D03*
X185170000Y-87590000D03*
X185670000Y-87590000D03*
X186170000Y-87590000D03*
X186670000Y-87590000D03*
X187170000Y-87590000D03*
X187670000Y-87590000D03*
X188170000Y-87590000D03*
X188670000Y-87590000D03*
X189170000Y-87590000D03*
D27*
X191095000Y-85665000D03*
X191095000Y-85165000D03*
X191095000Y-84665000D03*
X191095000Y-84165000D03*
X191095000Y-83665000D03*
X191095000Y-83165000D03*
X191095000Y-82665000D03*
X191095000Y-82165000D03*
X191095000Y-81665000D03*
X191095000Y-81165000D03*
X191095000Y-80665000D03*
X191095000Y-80165000D03*
X191095000Y-79665000D03*
X191095000Y-79165000D03*
X191095000Y-78665000D03*
X191095000Y-78165000D03*
D28*
X189170000Y-76240000D03*
X188670000Y-76240000D03*
X188170000Y-76240000D03*
X187670000Y-76240000D03*
X187170000Y-76240000D03*
X186670000Y-76240000D03*
X186170000Y-76240000D03*
X185670000Y-76240000D03*
X185170000Y-76240000D03*
X184670000Y-76240000D03*
X184170000Y-76240000D03*
X183670000Y-76240000D03*
X183170000Y-76240000D03*
X182670000Y-76240000D03*
X182170000Y-76240000D03*
X181670000Y-76240000D03*
D12*
X177480000Y-73660000D03*
X175580000Y-73660000D03*
D18*
X181680000Y-92975000D03*
D19*
X182480000Y-92975000D03*
X183280000Y-92975000D03*
D18*
X184080000Y-92975000D03*
X184080000Y-91175000D03*
D19*
X183280000Y-91175000D03*
X182480000Y-91175000D03*
D18*
X181680000Y-91175000D03*
D17*
X170537500Y-91440000D03*
X172362500Y-91440000D03*
X170537500Y-73660000D03*
X172362500Y-73660000D03*
D18*
X182315000Y-68845000D03*
D19*
X183115000Y-68845000D03*
X183915000Y-68845000D03*
D18*
X184715000Y-68845000D03*
X184715000Y-67045000D03*
D19*
X183915000Y-67045000D03*
X183115000Y-67045000D03*
D18*
X182315000Y-67045000D03*
D29*
X176845000Y-69347500D03*
X175895000Y-69347500D03*
X174945000Y-69347500D03*
X174945000Y-71622500D03*
X176845000Y-71622500D03*
M02*
